<svg version="1" xmlns="http://www.w3.org/2000/svg" width="933.333" height="933.333" viewBox="0 0 700.000000 700.000000"><path d="M323 1.1c-70.3 5.7-137.2 32.1-191.5 75.6-14.1 11.2-37.1 33.7-49 47.8-21.4 25.4-39.1 53.7-52.3 83.5-42.3 96-39.9 204.6 6.8 298.1 18 35.9 37.1 62.2 66.9 91.9 39.6 39.4 84.3 67 136.1 84 37.5 12.4 69.4 17.4 110 17.4 25.8 0 35.3-.7 58-4.5 98.3-16.2 185.5-74.7 239.2-160.4 8.9-14.1 21.4-38.9 27.7-54.7 48.3-121.6 25.3-259.5-60-358.3-9.6-11.2-30.6-31.8-41.9-41.2C504.3 23.1 412-6.1 323 1.1zM151 329v66h74v18h-93V263h19v66zm153.9-25.5c16.9 4 29.8 16.9 34.7 34.6 2.4 8.7 2.9 25 1.1 35.4-4.6 26.1-23 41.5-49.7 41.5-25 0-42.3-13.2-48.7-37.2-2.3-8.7-2.3-29.9 0-38.6 5-18.8 17.5-31.5 35-35.8 7.2-1.7 20-1.7 27.6.1zm115.4 1.8c3.1 1.4 7.9 4.7 10.7 7.3l5 4.7V304h17.2l-.5 56.2c-.6 67.4-.9 69.8-10.3 81.4-7.4 9.2-19.4 14.3-35.4 15.1-22.4 1.2-39.6-7.1-44.4-21.5-.9-2.5-1.6-6.5-1.6-8.9 0-3.7.3-4.4 1.8-3.9.9.2 4.2.8 7.2 1.1 7.2.9 8.6 1.8 9.4 5.6 2.8 14.2 33.6 17.6 46.8 5.2 4.9-4.7 7.1-11.6 7.6-24.3l.5-11.4-5.2 4.6c-8.8 7.9-20.9 11.1-33.7 8.9-16.9-3-28.5-13.8-35.1-32.8-2.5-7.1-2.7-9.1-2.7-21.8 0-12.5.3-14.9 2.7-22.1 4.3-13.1 12.3-23.5 21.7-28.4 10.9-5.8 27.8-6.5 38.3-1.7zm116.9-2.2c17.4 3.6 31.5 17.6 36.5 36 2.3 8.7 2.3 29.8-.1 38.9-6 23.4-24.1 37-49.1 37-24.8 0-42.5-13.8-48.6-38-2.1-8.1-1.8-30.8.5-38.9 4.8-17.7 16.9-29.8 34.3-34.6 6-1.7 19.5-1.9 26.5-.4z"/><path d="M280.3 318.6c-5.2 1.9-12.6 8.3-15.8 13.9-7 11.8-7.3 38.4-.6 51.3 2.7 5.1 9.7 11.7 15.1 14.1 6.6 3 17.8 2.9 24.6-.3 14-6.5 20-20 19.1-42.6-.5-15.1-2.8-21.3-10.6-29.1-3.8-3.8-7.2-6.1-10.5-7.2-6-2.1-15.6-2.1-21.3-.1zM396 318.3c-2 .6-6.1 3.7-9.5 7.1-7.9 8-9.6 12.6-10.3 27.9-.8 19 2.3 29.3 11.1 37.4 14.3 13.2 37.8 7.1 44.7-11.4 6.9-18.5 3.8-42.5-6.8-53.7-7.3-7.6-18.9-10.5-29.2-7.3zM516 317.9c-4.7 1.5-8.5 3.9-12.3 7.8-7.5 7.4-10.7 17.3-10.7 32.8 0 26.6 11.5 41.4 32.1 41.5 9.4 0 15.8-2.9 22.3-10.1 5.8-6.4 8.6-14.5 9.3-27 1.7-27.8-9.9-44.9-30.7-45.6-4.1-.1-8.6.1-10 .6z"/></svg>