<svg xmlns="http://www.w3.org/2000/svg" xmlns:xlink="http://www.w3.org/1999/xlink" width="229" height="109" viewBox="0 0 229 109"><defs><style>.a{fill:#fff59d;}.b{filter:url(#a);}</style><filter id="a" x="0" y="0" width="229" height="109" filterUnits="userSpaceOnUse"><feOffset input="SourceAlpha"/><feGaussianBlur stdDeviation="1.5" result="b"/><feFlood/><feComposite operator="in" in2="b"/><feComposite in="SourceGraphic"/></filter></defs><g class="b" transform="matrix(1, 0, 0, 1, 0, 0)"><path class="a" d="M50,100A50.013,50.013,0,0,1,30.538,3.929,49.687,49.687,0,0,1,50,0H170a50.013,50.013,0,0,1,19.462,96.071A49.682,49.682,0,0,1,170,100ZM76,50a40.045,40.045,0,0,0,40,40h60a40,40,0,0,0,0-80H116A40.046,40.046,0,0,0,76,50ZM157.912,77.15a6.559,6.559,0,0,1-1.762-.85q-.7-.5-1.25-.95l2.35-2.4a9.55,9.55,0,0,0,.851.7,4.06,4.06,0,0,0,1.162.575,5.285,5.285,0,0,0,1.638.225,3.278,3.278,0,0,0,1.363-.287,2.851,2.851,0,0,0,1.075-.838,2.522,2.522,0,0,0,.513-1.375l.164-1.43a4.3,4.3,0,0,1-1.239,1.143,4.667,4.667,0,0,1-2.55.637,5.561,5.561,0,0,1-2.713-.662,4.841,4.841,0,0,1-1.925-1.938,6.319,6.319,0,0,1-.713-3.125,5.719,5.719,0,0,1,.388-1.975,6.538,6.538,0,0,1,1.174-1.976,6.084,6.084,0,0,1,1.988-1.512,7.231,7.231,0,0,1,5.262-.175,3.44,3.44,0,0,1,1.405.971l.357-.833h3.226l-1.45,11.5a4.831,4.831,0,0,1-1.125,2.7,5.959,5.959,0,0,1-2.4,1.662,9.528,9.528,0,0,1-5.788.212ZM160.3,63.688a3.154,3.154,0,0,0-1.062.8,3.194,3.194,0,0,0-.6,1.038,3.246,3.246,0,0,0-.187,1.049,3.122,3.122,0,0,0,.362,1.562,2.4,2.4,0,0,0,1.038.976,3.541,3.541,0,0,0,1.6.338,3.172,3.172,0,0,0,1.075-.188,3.506,3.506,0,0,0,.988-.55,4.025,4.025,0,0,0,.837-.913l.325-2.675a2.279,2.279,0,0,0-.562-.938,2.641,2.641,0,0,0-.949-.6,4.075,4.075,0,0,0-2.863.1ZM117.925,72.3a5.706,5.706,0,0,0,2.062-.5,3.717,3.717,0,0,0,1.525-1.337,5.425,5.425,0,0,0,.787-2.413l1.75-14.45h3.65l-1.775,14.524a8.941,8.941,0,0,1-1.438,4.1,7.835,7.835,0,0,1-2.962,2.613,9.5,9.5,0,0,1-4.025.987Zm56.825-.312a6.616,6.616,0,0,1-1.963-.962,4.951,4.951,0,0,1-1.475-1.675,5.031,5.031,0,0,1-.562-2.451,7.16,7.16,0,0,1,.338-2.1,6.382,6.382,0,0,1,1.088-2.063,5.494,5.494,0,0,1,2-1.562,7.013,7.013,0,0,1,3.05-.6,6.84,6.84,0,0,1,2.837.612A5.614,5.614,0,0,1,182.312,63a4.863,4.863,0,0,1,.888,2.975,7.262,7.262,0,0,1-.176,1.463,6.975,6.975,0,0,1-.6,1.688,5.857,5.857,0,0,1-1.149,1.562,5.561,5.561,0,0,1-1.838,1.162,7.443,7.443,0,0,1-4.687.138Zm.7-8.025a3.056,3.056,0,0,0-.9,1.313,4.363,4.363,0,0,0-.275,1.45,2.667,2.667,0,0,0,.463,1.7,2.378,2.378,0,0,0,1.075.787,3.33,3.33,0,0,0,1.063.212,2.39,2.39,0,0,0,1.675-.55,3.034,3.034,0,0,0,.85-1.325,4.655,4.655,0,0,0,.25-1.426,2.992,2.992,0,0,0-.287-1.412,2.145,2.145,0,0,0-.713-.813,2.712,2.712,0,0,0-.85-.375,3.193,3.193,0,0,0-.7-.1A2.445,2.445,0,0,0,175.45,63.962ZM134,72.25a3.814,3.814,0,0,1-2.1-.6,4.771,4.771,0,0,1-1.687-1.825,5.917,5.917,0,0,1-.663-2.9,6.375,6.375,0,0,1,.45-2.363,6.741,6.741,0,0,1,1.275-2.05,6.2,6.2,0,0,1,1.95-1.45,5.667,5.667,0,0,1,2.475-.537,5.328,5.328,0,0,1,1.787.25,3.31,3.31,0,0,1,1.112.637,4.571,4.571,0,0,1,.688.783l.362-1.12h3.25L141.575,72h-3.5l.158-1.369-.033.032a6.506,6.506,0,0,1-.863.662,6.078,6.078,0,0,1-1.4.662,5.434,5.434,0,0,1-1.767.265Zm.9-8.575a2.952,2.952,0,0,0-.987.775,3.123,3.123,0,0,0-.562,1.013,3.339,3.339,0,0,0-.175,1.038,3.3,3.3,0,0,0,.35,1.562,2.492,2.492,0,0,0,.987,1.025,2.913,2.913,0,0,0,1.462.363,2.539,2.539,0,0,0,.963-.188,3.255,3.255,0,0,0,.887-.55,3.558,3.558,0,0,0,.75-.913l.325-2.675a2.047,2.047,0,0,0-.474-.938,2.345,2.345,0,0,0-.876-.6,3.166,3.166,0,0,0-1.2-.212A3.214,3.214,0,0,0,134.9,63.675ZM193.025,72l.85-6.875a1.749,1.749,0,0,0-.263-1.163,1.34,1.34,0,0,0-1.163-.437,2.3,2.3,0,0,0-1.463.526,3.91,3.91,0,0,0-1.087,1.425,6.871,6.871,0,0,0-.575,2.075l-.55,4.45h-3.5L186.6,61.075h3.175l.056,1.626a5.32,5.32,0,0,1,1.757-1.514,5.5,5.5,0,0,1,2.687-.637,3.327,3.327,0,0,1,2.462.913,2.826,2.826,0,0,1,.788,2.362l-1,8.175ZM189.85,63.25ZM145.2,72l1.326-10.925h3.15l-.1,2.425a6.214,6.214,0,0,1,1.438-1.638,6.656,6.656,0,0,1,1.7-1,4.152,4.152,0,0,1,1.462-.338l-.6,3.5a3.351,3.351,0,0,0-2.15.4,4.387,4.387,0,0,0-1.525,1.45,4.505,4.505,0,0,0-.7,1.85L148.675,72Zm13.113-24.85a6.539,6.539,0,0,1-1.763-.85q-.7-.5-1.249-.95l2.35-2.4a9.408,9.408,0,0,0,.85.7,4.113,4.113,0,0,0,1.163.575,5.279,5.279,0,0,0,1.637.225,3.275,3.275,0,0,0,1.363-.288,2.867,2.867,0,0,0,1.076-.837,2.527,2.527,0,0,0,.512-1.375l.164-1.431a4.33,4.33,0,0,1-1.239,1.143,4.67,4.67,0,0,1-2.551.637,5.561,5.561,0,0,1-2.713-.662,4.841,4.841,0,0,1-1.925-1.938,6.331,6.331,0,0,1-.712-3.125,5.721,5.721,0,0,1,.387-1.975,6.537,6.537,0,0,1,1.175-1.975,6.086,6.086,0,0,1,1.987-1.513,7.236,7.236,0,0,1,5.262-.175,3.443,3.443,0,0,1,1.406.971l.357-.833h3.225l-1.45,11.5a4.824,4.824,0,0,1-1.125,2.7,5.968,5.968,0,0,1-2.4,1.662,9.525,9.525,0,0,1-5.787.212ZM160.7,33.688a3.156,3.156,0,0,0-1.063.8,3.212,3.212,0,0,0-.6,1.038,3.256,3.256,0,0,0-.187,1.05,3.113,3.113,0,0,0,.363,1.562,2.4,2.4,0,0,0,1.038.975,3.537,3.537,0,0,0,1.6.337,3.172,3.172,0,0,0,1.076-.187,3.524,3.524,0,0,0,.987-.55,4.046,4.046,0,0,0,.838-.913l.325-2.675a2.283,2.283,0,0,0-.562-.938,2.651,2.651,0,0,0-.95-.6,4.066,4.066,0,0,0-2.862.1Zm-31.338,7.975a4.6,4.6,0,0,1-2.087-1.876,6.1,6.1,0,0,1-.751-3.163,6.32,6.32,0,0,1,1.488-3.987,5.673,5.673,0,0,1,2-1.488A7.05,7.05,0,0,1,133,30.575a7.655,7.655,0,0,1,1.887.238,4.649,4.649,0,0,1,1.725.851,5.019,5.019,0,0,1,1.35,1.712,8.789,8.789,0,0,1,.788,2.85l-8.192,2.025a2.342,2.342,0,0,0,1.054.825,3.578,3.578,0,0,0,1.263.249,2.687,2.687,0,0,0,.962-.175,8.468,8.468,0,0,0,.938-.425l1.225,2.7a8.789,8.789,0,0,1-1.737.625,7.343,7.343,0,0,1-1.763.225A7.485,7.485,0,0,1,129.362,41.663Zm1.863-7.938a2.488,2.488,0,0,0-.913,1.1,3.54,3.54,0,0,0-.288,1.4q0,.032,0,.063L135.012,35a2.128,2.128,0,0,0-2.137-1.7A2.882,2.882,0,0,0,131.225,33.725ZM102.45,42.15a11.456,11.456,0,0,1-2.1-.35,11.034,11.034,0,0,1-2.05-.762A9.376,9.376,0,0,1,96.4,39.8l1.95-2.725a7.945,7.945,0,0,0,1.3.913,8.242,8.242,0,0,0,1.475.662,5.846,5.846,0,0,0,1.4.3,5.569,5.569,0,0,0,1.325-.112,2.572,2.572,0,0,0,1.174-.562,1.833,1.833,0,0,0,.6-1.225,1.417,1.417,0,0,0-.25-1.025,3.6,3.6,0,0,0-.875-.875,7.4,7.4,0,0,0-1.25-.725q-.8-.375-1.65-.85a8.384,8.384,0,0,1-1.562-1.125,4.245,4.245,0,0,1-1.088-1.6,4.476,4.476,0,0,1-.2-2.25,5.653,5.653,0,0,1,1.05-2.738,5.349,5.349,0,0,1,2.225-1.725,7.548,7.548,0,0,1,3.1-.562,11.115,11.115,0,0,1,2.537.388,8.919,8.919,0,0,1,1.862.762A11.933,11.933,0,0,1,111,25.7l-1.724,2.675a12.178,12.178,0,0,0-2.012-1.088,5.927,5.927,0,0,0-1.988-.487,4.813,4.813,0,0,0-1.075.062,2.556,2.556,0,0,0-.838.3,1.617,1.617,0,0,0-.575.563,1.965,1.965,0,0,0-.262.824,1.537,1.537,0,0,0,.362,1.188,4.433,4.433,0,0,0,1.2.987,15.558,15.558,0,0,0,1.612.825,10.339,10.339,0,0,1,1.95,1.125,4.63,4.63,0,0,1,1.45,1.762,5.047,5.047,0,0,1,.3,2.838,5.218,5.218,0,0,1-.651,1.975,5.412,5.412,0,0,1-1.412,1.613,6.2,6.2,0,0,1-2.112,1.038,7.645,7.645,0,0,1-2.1.272Q102.795,42.172,102.45,42.15ZM148.325,42l.85-6.875a1.742,1.742,0,0,0-.263-1.163,1.34,1.34,0,0,0-1.162-.437,2.3,2.3,0,0,0-1.463.525,3.905,3.905,0,0,0-1.088,1.426,6.917,6.917,0,0,0-.575,2.075L144.075,42h-3.5L141.9,31.075h3.174l.057,1.625a5.32,5.32,0,0,1,1.756-1.513,5.5,5.5,0,0,1,2.687-.638,3.328,3.328,0,0,1,2.463.913,2.832,2.832,0,0,1,.788,2.362l-1,8.176ZM145.15,33.25ZM119.575,42l.825-6.875a1.8,1.8,0,0,0-.25-1.163,1.3,1.3,0,0,0-1.15-.437,2.3,2.3,0,0,0-1.463.525,3.9,3.9,0,0,0-1.087,1.426,6.865,6.865,0,0,0-.575,2.075L115.325,42h-3.5l2.4-19.725h3.424L116.4,32.681a5.334,5.334,0,0,1,1.742-1.493,5.5,5.5,0,0,1,2.687-.638,3.327,3.327,0,0,1,2.462.913,2.826,2.826,0,0,1,.788,2.362l-1,8.176Z" transform="translate(4.5 4.5)"/></g></svg>