<svg xmlns="http://www.w3.org/2000/svg" width="50" height="54" viewBox="0 0 50 54"><defs><style>.a{fill:#fff;}.a,.b,.c{stroke:#000;}.c{fill:snow;}.d,.g{fill:none;}.d{stroke:#32cd32;stroke-linejoin:round;stroke-width:2px;}.e{fill:#922529;}.f{stroke:none;}</style></defs><g transform="translate(-129 -508)"><g class="a" transform="translate(129 522)"><path class="f" d="M0,0H50a0,0,0,0,1,0,0V35a5,5,0,0,1-5,5H5a5,5,0,0,1-5-5V0A0,0,0,0,1,0,0Z"/><path class="g" d="M1,.5H49a.5.5,0,0,1,.5.5V35A4.5,4.5,0,0,1,45,39.5H5A4.5,4.5,0,0,1,.5,35V1A.5.5,0,0,1,1,.5Z"/></g><g class="b" transform="translate(129 513)"><path class="f" d="M5,0H45a5,5,0,0,1,5,5v5a0,0,0,0,1,0,0H0a0,0,0,0,1,0,0V5A5,5,0,0,1,5,0Z"/><path class="g" d="M5,.5H45A4.5,4.5,0,0,1,49.5,5V9a.5.5,0,0,1-.5.5H1A.5.5,0,0,1,.5,9V5A4.5,4.5,0,0,1,5,.5Z"/></g><g class="c" transform="translate(142 508)"><rect class="f" width="5" height="10" rx="2.5"/><rect class="g" x="0.5" y="0.5" width="4" height="9" rx="2"/></g><g class="c" transform="translate(162 508)"><rect class="f" width="5" height="10" rx="2.5"/><rect class="g" x="0.5" y="0.5" width="4" height="9" rx="2"/></g><path class="d" d="M15,0,5,10ZM0,5l5,5Z" transform="translate(158.5 547.5)"/><rect class="e" width="10" height="10" rx="2" transform="translate(131 535)"/><rect class="e" width="10" height="10" rx="2" transform="translate(131 524)"/><rect class="e" width="10" height="10" rx="2" transform="translate(143 524)"/><rect class="e" width="10" height="10" rx="2" transform="translate(155 524)"/><rect class="e" width="10" height="10" rx="2" transform="translate(167 524)"/><rect class="e" width="10" height="10" rx="2" transform="translate(143 535)"/><rect class="e" width="10" height="10" rx="2" transform="translate(155 535)"/><rect class="e" width="10" height="10" rx="2" transform="translate(167 535)"/><rect class="e" width="10" height="10" rx="2" transform="translate(131 546)"/><rect class="e" width="10" height="10" rx="2" transform="translate(143 546)"/></g></svg>