<svg xmlns="http://www.w3.org/2000/svg" xmlns:xlink="http://www.w3.org/1999/xlink" width="65" height="65" viewBox="0 0 65 65"><defs><style>.a{fill:snow;}.b{font-size:10px;font-family:JosefinSans-Bold, Josefin Sans;font-weight:700;}.c{fill:#922529;}.d{fill:#008c51;}.e{fill:#e3dada;}.f{filter:url(#a);}</style><filter id="a" x="0" y="0" width="65" height="65" filterUnits="userSpaceOnUse"><feOffset dx="1" dy="2" input="SourceAlpha"/><feGaussianBlur stdDeviation="2.5" result="b"/><feFlood flood-opacity="0.961"/><feComposite operator="in" in2="b"/><feComposite in="SourceGraphic"/></filter></defs><g transform="translate(-114.5 -598.5)"><g class="f" transform="matrix(1, 0, 0, 1, 114.5, 598.5)"><path class="a" d="M0,0H50a0,0,0,0,1,0,0V45a5,5,0,0,1-5,5H5a5,5,0,0,1-5-5V0A0,0,0,0,1,0,0Z" transform="translate(6.5 5.5)"/></g><text class="b" transform="translate(138 614)"><tspan x="-15.625" y="0">NEWS</tspan></text><rect class="c" width="21" height="10" transform="translate(124 620)"/><rect class="c" width="19" height="3" transform="translate(149 620)"/><rect class="c" width="19" height="3" transform="translate(149 627)"/><rect class="d" width="43" height="5" transform="translate(125 645)"/><rect class="c" width="13" height="8" transform="translate(155 633)"/><rect class="c" width="23" height="2" transform="translate(123 632)"/><rect class="c" width="5" height="2" transform="translate(148 632)"/><rect class="c" width="14" height="2" transform="translate(123 636)"/><rect class="c" width="14" height="2" transform="translate(139 636)"/><rect class="c" width="21" height="2" transform="translate(123 640)"/><rect class="c" width="7" height="2" transform="translate(146 640)"/><rect width="46" height="2" transform="translate(123 615)"/><path class="e" d="M0,0,12,9H0Z" transform="translate(159 604)"/></g></svg>