<svg xmlns="http://www.w3.org/2000/svg" xmlns:xlink="http://www.w3.org/1999/xlink" width="115" height="115" viewBox="0 0 115 115"><defs><style>.a{fill:url(#a);}.b{filter:url(#b);}</style><linearGradient id="a" x1="0.357" y1="0.559" x2="0.179" y2="0.843" gradientUnits="objectBoundingBox"><stop offset="0" stop-color="#21618c" stop-opacity="0.969"/><stop offset="1" stop-color="#f4d03f"/></linearGradient><filter id="b" x="0" y="0" width="115" height="115" filterUnits="userSpaceOnUse"><feOffset input="SourceAlpha"/><feGaussianBlur stdDeviation="2.5" result="c"/><feFlood flood-opacity="0.2"/><feComposite operator="in" in2="c"/><feComposite in="SourceGraphic"/></filter></defs><g class="b" transform="matrix(1, 0, 0, 1, 0, 0)"><path class="a" d="M45.707,100.272c-1.589-.152-3.189-.383-4.757-.687S37.8,98.9,36.265,98.441s-3.087-1-4.579-1.6-3-1.3-4.437-2.059c-1.015-.534-2.028-1.111-3.01-1.719.2-.252.387-.514.563-.779.157-.239.307-.485.446-.735a48,48,0,0,0,19.937,6.826c1.307.144,2.637.236,3.953.273s2.647.02,3.96-.049,2.641-.2,3.946-.373,2.622-.411,3.91-.7a47.836,47.836,0,0,0,14.8-5.98c.14.252.291.5.447.736.175.265.364.526.563.779-.982.607-1.994,1.184-3.01,1.719-1.438.756-2.93,1.448-4.437,2.059s-3.033,1.144-4.579,1.6-3.112.839-4.686,1.144-3.167.535-4.757.687-3.2.229-4.793.229S47.294,100.423,45.707,100.272Zm-3.694-6.147a44.434,44.434,0,0,1-8.235-2.44c-1.335-.542-2.662-1.157-3.944-1.831-.645-.339-1.3-.7-1.931-1.078A11.181,11.181,0,0,0,12.225,73.1c-.376-.635-.739-1.285-1.078-1.932-.671-1.276-1.287-2.6-1.831-3.943a44.579,44.579,0,0,1,0-33.445c.543-1.337,1.158-2.665,1.831-3.944.356-.678.738-1.359,1.135-2.028A11.18,11.18,0,0,0,28,12.168c.6-.355,1.221-.7,1.837-1.021,1.277-.671,2.6-1.288,3.943-1.831a44.564,44.564,0,0,1,33.445,0c1.338.543,2.666,1.159,3.943,1.831.714.374,1.427.776,2.123,1.192a11.181,11.181,0,0,0,15.6,15.756c.335.572.66,1.157.966,1.74.672,1.281,1.289,2.607,1.831,3.944a44.564,44.564,0,0,1,0,33.445c-.544,1.339-1.159,2.666-1.831,3.943-.322.615-.666,1.232-1.021,1.837A11.181,11.181,0,0,0,73.193,88.719c-.666.4-1.348.779-2.027,1.135-1.282.673-2.608,1.289-3.944,1.831a44.627,44.627,0,0,1-25.21,2.44Zm4.751-11.494a5.623,5.623,0,1,0,3.972-1.643A5.625,5.625,0,0,0,46.764,82.631ZM30.8,30.8a27.9,27.9,0,1,0,19.7-8.148A27.9,27.9,0,0,0,30.8,30.8ZM10.426,46.607A5.625,5.625,0,1,0,14.4,44.964,5.625,5.625,0,0,0,10.426,46.607Zm72.048-.157a5.623,5.623,0,1,0,3.972-1.643A5.624,5.624,0,0,0,82.473,46.45ZM46.764,10.426a5.625,5.625,0,1,0,3.972-1.642A5.625,5.625,0,0,0,46.764,10.426ZM79.058,89.318c.959-.707,1.9-1.459,2.809-2.236.928-.8,1.839-1.642,2.706-2.509s1.712-1.778,2.509-2.706c.778-.906,1.529-1.851,2.236-2.809a7.612,7.612,0,0,1,1.517,1c-.5.679-1.019,1.351-1.547,2a50.828,50.828,0,0,1-7.23,7.23c-.647.527-1.319,1.048-2,1.547A7.612,7.612,0,0,1,79.058,89.318Zm-60.115-.03a50.828,50.828,0,0,1-7.23-7.23c-.528-.648-1.049-1.32-1.547-2a7.651,7.651,0,0,1,1.517-1c.709.963,1.464,1.912,2.246,2.822s1.634,1.83,2.5,2.694,1.77,1.705,2.694,2.5,1.858,1.537,2.821,2.246a7.548,7.548,0,0,1-1,1.517C20.263,90.337,19.59,89.816,18.942,89.288ZM92.282,76.2c-.238-.157-.484-.307-.736-.447a47.836,47.836,0,0,0,5.98-14.8c.284-1.287.518-2.6.7-3.91s.3-2.632.373-3.946.087-2.646.05-3.96-.129-2.644-.273-3.953a48,48,0,0,0-6.826-19.937c.25-.14.5-.29.735-.446.266-.175.527-.365.779-.562.607.983,1.185,2,1.719,3.01.756,1.438,1.449,2.931,2.059,4.437s1.144,3.033,1.6,4.579.839,3.111,1.144,4.686.534,3.166.687,4.757.229,3.2.229,4.792-.077,3.206-.229,4.793-.383,3.191-.687,4.757S98.9,63.2,98.441,64.736s-1,3.087-1.6,4.579-1.3,3-2.059,4.437c-.534,1.016-1.112,2.029-1.719,3.01C92.809,76.565,92.547,76.376,92.282,76.2ZM6.221,73.752c-.756-1.438-1.449-2.931-2.059-4.437s-1.144-3.032-1.6-4.579-.84-3.114-1.144-4.686S.881,56.883.729,55.293.5,52.094.5,50.5s.077-3.206.229-4.792.383-3.19.687-4.757.69-3.154,1.144-4.686,1-3.086,1.6-4.579,1.3-3,2.059-4.437c.534-1.015,1.112-2.028,1.719-3.01.253.2.515.388.779.563.238.157.485.307.736.447a47.823,47.823,0,0,0-5.981,14.8c-.284,1.288-.518,2.6-.7,3.91s-.3,2.63-.374,3.946-.086,2.646-.049,3.961.128,2.645.272,3.953A48.029,48.029,0,0,0,9.455,75.754c-.25.139-.5.289-.735.446-.266.175-.527.365-.779.563C7.332,75.779,6.754,74.767,6.221,73.752ZM58.463,58.389a1.238,1.238,0,0,1-.344-.929,2.8,2.8,0,0,1,.048-.488l.024-.128h1.44l-.016.1a.727.727,0,0,0-.016.144q0,.552.8.552t.8-.5a.5.5,0,0,0-.272-.432,2.636,2.636,0,0,0-.66-.28q-.389-.112-.776-.26a1.626,1.626,0,0,1-.661-.464,1.167,1.167,0,0,1-.272-.787q0-2.009,2.584-2.008a2.4,2.4,0,0,1,1.428.355,1.16,1.16,0,0,1,.484.988,1.635,1.635,0,0,1-.06.444,1.009,1.009,0,0,1-.124.3l-.064.1H61.384a.644.644,0,0,0,.175-.464q0-.52-.68-.52-.856,0-.856.544a.483.483,0,0,0,.272.432,2.363,2.363,0,0,0,.66.252c.259.062.518.138.78.229a1.526,1.526,0,0,1,.664.452,1.215,1.215,0,0,1,.272.82,1.824,1.824,0,0,1-.608,1.508,2.949,2.949,0,0,1-1.872.491A2.515,2.515,0,0,1,58.463,58.389Zm9.728.336,1.016-5.76h4.016L73,54.213H70.423l-.184,1.08h2.128l-.224,1.247H70.016l-.16.936h2.576l-.224,1.248Zm-4.936,0,1.016-5.76h4.016l-.224,1.248H65.488l-.185,1.08h2.129l-.224,1.247H65.079l-.159.936H67.5l-.224,1.248Zm-7.408,0,.048-1.256H54.559l-.392,1.256H52.639l2.056-5.76h2.64l.032,5.76Zm-.96-2.328h1.048l.088-2.032h-.5ZM50.8,58.725l-.6-2.112h-.632l-.376,2.112h-1.44l1.016-5.76h1.44l-.424,2.4H50.3l1.52-2.4h1.519l-1.831,2.9.816,2.856Zm-5.328,0,.048-1.256H44.184l-.392,1.256H42.263l2.057-5.76h2.64l.032,5.76Zm-.96-2.328h1.048l.088-2.032h-.5Zm-6.176,2.328,1.016-5.76h1.44L40,57.477h2.208l-.224,1.248Zm-2.281,0,.049-1.256H34.767l-.392,1.256H32.847l2.056-5.76h2.641l.031,5.76ZM35.1,56.4h1.048l.088-2.032h-.5Zm-4.088,2.328-.6-2.112h-.632L29.4,58.725h-1.44l1.016-5.76h1.44l-.424,2.4H30.5l1.519-2.4h1.52l-1.831,2.9.815,2.856ZM63.595,45.287a1.9,1.9,0,0,1-.391-1.27,4.369,4.369,0,0,1,.08-.79l.35-2a2.967,2.967,0,0,1,3.28-2.68q2.411,0,2.41,1.97a3.914,3.914,0,0,1-.07.71l-.35,2a3.3,3.3,0,0,1-1.039,2.06,3.409,3.409,0,0,1-2.25.67A2.546,2.546,0,0,1,63.595,45.287Zm1.83-4.019-.34,1.92a3.251,3.251,0,0,0-.04.52q0,.7.84.7a1.182,1.182,0,0,0,.8-.259,1.619,1.619,0,0,0,.42-.96l.339-1.92a2.376,2.376,0,0,0,.031-.36.721.721,0,0,0-.821-.81A1.207,1.207,0,0,0,65.425,41.268ZM57.035,45.4a1.543,1.543,0,0,1-.43-1.159,3.377,3.377,0,0,1,.06-.61l.03-.16h1.8l-.02.12a.921.921,0,0,0-.021.18q0,.69,1,.69t1-.62a.622.622,0,0,0-.34-.54,3.358,3.358,0,0,0-.825-.35q-.485-.14-.97-.325a2.023,2.023,0,0,1-.824-.58,1.458,1.458,0,0,1-.34-.986q0-2.51,3.23-2.51a2.989,2.989,0,0,1,1.785.445,1.446,1.446,0,0,1,.6,1.235,2.018,2.018,0,0,1-.075.555,1.27,1.27,0,0,1-.155.374l-.08.121h-1.77a.808.808,0,0,0,.22-.58q0-.649-.85-.65-1.069,0-1.07.68a.608.608,0,0,0,.34.54,3,3,0,0,0,.825.315,9.991,9.991,0,0,1,.975.284,1.9,1.9,0,0,1,.83.565,1.515,1.515,0,0,1,.34,1.025,2.279,2.279,0,0,1-.76,1.885,3.683,3.683,0,0,1-2.34.616A3.134,3.134,0,0,1,57.035,45.4Zm-19.6-1.19a3.014,3.014,0,0,1,.06-.58l.13-.74h1.8l-.06.329a3.29,3.29,0,0,0-.04.51.691.691,0,0,0,.13.43.8.8,0,0,0,.661.249,1.088,1.088,0,0,0,.744-.249,1.573,1.573,0,0,0,.4-.921l.821-4.63h1.789l-.84,4.77a3.086,3.086,0,0,1-1,1.955,3.394,3.394,0,0,1-2.19.625Q37.434,45.958,37.435,44.207Zm15.889,1.61,1.271-7.2h1.8l-1.26,7.2Zm-3.219,0-1.26-3.94-.68,3.94h-1.81l1.27-7.2h1.86l1.24,3.68.65-3.68h1.8l-1.26,7.2Zm-17.78,0-.08-7.2H34.2l-.03,5.45H34.4l1.9-5.45h1.95l-2.73,7.2ZM10.166,20.941c.5-.681,1.021-1.353,1.547-2a50.828,50.828,0,0,1,7.23-7.23c.648-.528,1.32-1.049,2-1.547a7.616,7.616,0,0,1,1,1.517c-.959.707-1.9,1.459-2.809,2.236-.927.8-1.838,1.641-2.706,2.509s-1.712,1.778-2.509,2.706c-.778.905-1.529,1.85-2.236,2.809A7.651,7.651,0,0,1,10.166,20.941Zm76.906-1.82c-.792-.922-1.633-1.828-2.5-2.694s-1.772-1.706-2.694-2.5-1.858-1.537-2.822-2.246a7.625,7.625,0,0,1,1-1.517c.679.5,1.352,1.02,2,1.547a50.828,50.828,0,0,1,7.23,7.23c.528.647,1.049,1.319,1.547,2a7.573,7.573,0,0,1-1.517,1C88.609,20.979,87.853,20.03,87.071,19.121ZM71.121,6.946a48.043,48.043,0,0,0-15.3-4.318c-1.307-.144-2.637-.235-3.953-.272s-2.647-.021-3.961.049-2.642.2-3.946.374-2.622.411-3.91.7a47.843,47.843,0,0,0-14.8,5.98c-.14-.25-.291-.5-.447-.735-.175-.265-.364-.526-.562-.779.982-.608,1.994-1.185,3.01-1.719,1.439-.756,2.932-1.449,4.437-2.059s3.031-1.144,4.579-1.6,3.111-.839,4.686-1.144S44.118.881,45.707.729,48.908.5,50.5.5s3.206.076,4.793.229,3.189.383,4.757.687,3.152.689,4.686,1.144,3.087,1,4.579,1.6,3,1.3,4.437,2.059c1.014.533,2.027,1.111,3.01,1.719-.2.253-.388.515-.562.779-.158.238-.308.485-.446.735A47.979,47.979,0,0,0,71.121,6.946Z" transform="translate(7 7)"/></g></svg>