<svg xmlns="http://www.w3.org/2000/svg" xmlns:xlink="http://www.w3.org/1999/xlink" width="118" height="117.702" viewBox="0 0 118 117.702"><defs><style>.a{fill:url(#a);}.b{filter:url(#b);}</style><linearGradient id="a" x1="0.58" y1="0.369" x2="0.106" y2="0.832" gradientUnits="objectBoundingBox"><stop offset="0" stop-color="#21618c"/><stop offset="1" stop-color="#cb4335"/></linearGradient><filter id="b" x="0" y="0" width="118" height="117.702" filterUnits="userSpaceOnUse"><feOffset dy="3" input="SourceAlpha"/><feGaussianBlur stdDeviation="3" result="c"/><feFlood flood-opacity="0.161"/><feComposite operator="in" in2="c"/><feComposite in="SourceGraphic"/></filter></defs><g class="b" transform="matrix(1, 0, 0, 1, 0, 0)"><path class="a" d="M70.451,101.633a51.6,51.6,0,0,0,30.861-30.352c.464.131.938.246,1.411.339-.267.719-.554,1.437-.85,2.138-.662,1.568-1.411,3.121-2.224,4.618s-1.7,2.952-2.647,4.356S95.036,85.5,93.962,86.8s-2.218,2.56-3.41,3.751S88.1,92.89,86.8,93.962,84.13,96.06,82.733,97s-2.87,1.839-4.356,2.646-3.051,1.562-4.618,2.225c-.979.415-1.987.8-3,1.161C70.676,102.565,70.573,102.1,70.451,101.633Zm-37.819.24c-1.567-.662-3.12-1.411-4.619-2.225s-2.952-1.7-4.355-2.646-2.766-1.966-4.067-3.041-2.561-2.219-3.752-3.41S13.5,88.1,12.429,86.8s-2.1-2.671-3.041-4.067S7.55,79.864,6.742,78.377s-1.562-3.05-2.225-4.618c-.405-.958-.788-1.944-1.138-2.932.47-.085.94-.19,1.4-.312a51.627,51.627,0,0,0,31.163,31.1c-.123.467-.229.942-.314,1.418C34.618,102.678,33.611,102.288,32.632,101.874ZM62.05,90.5a17.691,17.691,0,0,0-17.425,0,17.832,17.832,0,0,0-6.294,6.016c-.967-.335-1.93-.7-2.862-1.1-1.362-.576-2.712-1.226-4.012-1.932s-2.565-1.475-3.785-2.3-2.4-1.71-3.534-2.642-2.225-1.928-3.26-2.963-2.032-2.132-2.963-3.26S16.093,80,15.273,78.79s-1.6-2.493-2.3-3.785-1.357-2.651-1.933-4.013c-.554-1.31-1.051-2.66-1.48-4.014A17.814,17.814,0,0,0,15.8,60.653a17.615,17.615,0,0,0,1.757-4.2,17.753,17.753,0,0,0,.623-4.67A17.688,17.688,0,0,0,10.32,37.067c.2-.545.419-1.092.643-1.625.45-1.078.95-2.155,1.484-3.2s1.108-2.066,1.717-3.061,1.259-1.969,1.939-2.911,1.4-1.863,2.149-2.749,1.535-1.75,2.347-2.576,1.663-1.629,2.534-2.39,1.786-1.5,2.711-2.2,1.9-1.364,2.875-1.987,2-1.221,3.028-1.769,2.1-1.068,3.169-1.538,2.171-.9,3.272-1.287a17.814,17.814,0,0,0,6.317,6.181A17.627,17.627,0,0,0,48.69,17.7a17.723,17.723,0,0,0,4.647.617,17.73,17.73,0,0,0,4.648-.617,17.627,17.627,0,0,0,4.185-1.74,17.814,17.814,0,0,0,6.317-6.181c1.1.385,2.2.818,3.272,1.287s2.135.986,3.169,1.538,2.043,1.142,3.028,1.769,1.947,1.292,2.875,1.987,1.839,1.432,2.711,2.2,1.723,1.565,2.534,2.39,1.6,1.693,2.347,2.576,1.471,1.81,2.149,2.749,1.332,1.921,1.939,2.911,1.187,2.025,1.717,3.061,1.032,2.118,1.484,3.2c.193.464.382.936.559,1.4a17.823,17.823,0,0,0-5.939,6.28,17.691,17.691,0,0,0,.228,17.706,17.8,17.8,0,0,0,6.488,6.356c-.413,1.284-.889,2.565-1.414,3.805-.575,1.362-1.226,2.712-1.932,4.013s-1.476,2.565-2.3,3.785-1.71,2.4-2.642,3.534-1.927,2.224-2.963,3.26-2.132,2.031-3.26,2.963S80.217,90.368,79,91.189s-2.493,1.6-3.785,2.3-2.651,1.357-4.012,1.932c-.934.4-1.9.765-2.863,1.1A17.822,17.822,0,0,0,62.05,90.5ZM72.526,79.911a7.1,7.1,0,1,0,7.1-7.1A7.111,7.111,0,0,0,72.526,79.911Zm-52.865,0a7.1,7.1,0,1,0,7.1-7.1A7.111,7.111,0,0,0,19.66,79.911Zm5.371-26.787A28.305,28.305,0,1,0,53.337,24.819,28.337,28.337,0,0,0,25.032,53.124ZM72.526,26.692a7.1,7.1,0,1,0,7.1-7.1A7.111,7.111,0,0,0,72.526,26.692Zm-52.865,0a7.1,7.1,0,1,0,7.1-7.1A7.111,7.111,0,0,0,19.66,26.692ZM60.914,60.527a1.236,1.236,0,0,1-.344-.928,2.7,2.7,0,0,1,.048-.488l.024-.128h1.44l-.016.1a.734.734,0,0,0-.016.144q0,.552.8.553t.8-.5a.5.5,0,0,0-.272-.432,2.676,2.676,0,0,0-.661-.28q-.387-.112-.776-.26a1.612,1.612,0,0,1-.66-.464A1.163,1.163,0,0,1,61,57.055q0-2.007,2.584-2.008a2.39,2.39,0,0,1,1.427.356,1.155,1.155,0,0,1,.484.988,1.64,1.64,0,0,1-.059.444,1.026,1.026,0,0,1-.124.3l-.064.1H63.833a.642.642,0,0,0,.176-.464q0-.52-.68-.519-.856,0-.856.544a.486.486,0,0,0,.272.432,2.37,2.37,0,0,0,.661.252c.258.061.518.138.779.228a1.51,1.51,0,0,1,.664.453,1.209,1.209,0,0,1,.272.82,1.825,1.825,0,0,1-.607,1.507,2.944,2.944,0,0,1-1.872.492A2.51,2.51,0,0,1,60.914,60.527Zm9.728.336,1.016-5.76h4.016l-.224,1.248H72.874l-.185,1.08h2.129l-.224,1.248H72.465l-.159.936h2.576l-.224,1.247Zm-4.937,0,1.016-5.76h4.016l-.223,1.248H67.937l-.184,1.08h2.128l-.224,1.248H67.53l-.16.936h2.576l-.223,1.247Zm-7.408,0,.049-1.256H57.01l-.391,1.256H55.09l2.056-5.76h2.641l.031,5.76Zm-.959-2.327h1.048l.088-2.032h-.5Zm-4.089,2.327-.6-2.111h-.633l-.375,2.111H50.2l1.016-5.76h1.44l-.425,2.4h.512l1.52-2.4h1.52l-1.832,2.9.815,2.856Zm-5.328,0,.049-1.256H46.634l-.392,1.256H44.714l2.056-5.76H49.41l.032,5.76Zm-.959-2.327H48.01L48.1,56.5h-.5Zm-6.177,2.327L41.8,55.1h1.44l-.792,4.513h2.209l-.224,1.247Zm-2.28,0,.048-1.256H37.218l-.392,1.256H35.3l2.056-5.76h2.64l.032,5.76Zm-.96-2.327h1.049l.088-2.032h-.5Zm-4.088,2.327-.6-2.111h-.633l-.375,2.111H30.41l1.015-5.76h1.44l-.424,2.4h.512l1.52-2.4h1.52l-1.832,2.9.816,2.856ZM66.393,48.785a1.9,1.9,0,0,1-.39-1.27,4.282,4.282,0,0,1,.08-.79l.35-2a2.966,2.966,0,0,1,3.28-2.68q2.41,0,2.41,1.97a3.93,3.93,0,0,1-.07.71l-.35,2a3.316,3.316,0,0,1-1.04,2.06,3.409,3.409,0,0,1-2.25.67A2.548,2.548,0,0,1,66.393,48.785Zm1.83-4.02-.339,1.92a3.257,3.257,0,0,0-.04.52q0,.7.841.7a1.175,1.175,0,0,0,.8-.26,1.608,1.608,0,0,0,.42-.96l.34-1.92a2.469,2.469,0,0,0,.03-.36.72.72,0,0,0-.82-.81A1.209,1.209,0,0,0,68.223,44.764Zm-8.39,4.13a1.549,1.549,0,0,1-.43-1.16,3.476,3.476,0,0,1,.06-.61l.03-.159h1.8l-.02.12a.914.914,0,0,0-.02.18q0,.69,1,.69t.994-.62a.62.62,0,0,0-.34-.54,3.269,3.269,0,0,0-.824-.35q-.486-.14-.97-.325a2.025,2.025,0,0,1-.825-.581,1.454,1.454,0,0,1-.34-.985q0-2.51,3.23-2.51a3,3,0,0,1,1.786.445,1.448,1.448,0,0,1,.6,1.236,2.046,2.046,0,0,1-.075.554,1.25,1.25,0,0,1-.156.375l-.08.12H63.483a.8.8,0,0,0,.22-.58q0-.651-.85-.65-1.071,0-1.07.68a.606.606,0,0,0,.34.54,2.979,2.979,0,0,0,.824.315,9.942,9.942,0,0,1,.976.285,1.9,1.9,0,0,1,.83.565,1.513,1.513,0,0,1,.34,1.024,2.282,2.282,0,0,1-.76,1.886,3.687,3.687,0,0,1-2.34.615A3.138,3.138,0,0,1,59.833,48.894Zm-19.6-1.19a3.1,3.1,0,0,1,.06-.581l.131-.74h1.8l-.06.33a3.18,3.18,0,0,0-.041.509.689.689,0,0,0,.131.43.8.8,0,0,0,.66.25,1.089,1.089,0,0,0,.745-.25,1.581,1.581,0,0,0,.405-.92l.82-4.63h1.79l-.84,4.77a3.09,3.09,0,0,1-1,1.955,3.4,3.4,0,0,1-2.191.625Q40.233,49.454,40.233,47.7Zm15.89,1.61,1.27-7.2h1.8l-1.26,7.2Zm-3.22,0-1.26-3.94-.68,3.94h-1.81l1.27-7.2h1.859l1.24,3.68.65-3.68h1.8l-1.26,7.2Zm-17.779,0-.08-7.2H37l-.031,5.45h.23l1.9-5.45h1.95l-2.731,7.2ZM97.078,26.451A51.44,51.44,0,0,0,70.515,4.781c.123-.462.228-.932.312-1.4.989.35,1.975.733,2.932,1.138,1.567.663,3.12,1.411,4.618,2.225s2.951,1.7,4.356,2.646S85.5,11.355,86.8,12.429s2.561,2.219,3.751,3.41,2.339,2.453,3.41,3.752,2.1,2.669,3.041,4.067,1.84,2.87,2.646,4.355,1.562,3.051,2.225,4.619c.534,1.261,1.024,2.56,1.459,3.866-.476.076-.953.174-1.421.29A51.6,51.6,0,0,0,97.078,26.451ZM3.333,35.7c.364-1.034.761-2.065,1.184-3.064.662-1.567,1.411-3.12,2.225-4.619s1.7-2.951,2.646-4.355,1.967-2.766,3.041-4.067,2.219-2.56,3.41-3.752,2.453-2.338,3.752-3.41,2.669-2.1,4.067-3.041,2.869-1.839,4.355-2.646,3.052-1.562,4.619-2.225c1-.423,2.03-.822,3.064-1.184.084.47.187.941.308,1.4A51.59,51.59,0,0,0,4.747,36.008C4.281,35.886,3.807,35.781,3.333,35.7Z" transform="translate(5.67 2.67)"/></g></svg>