<svg xmlns="http://www.w3.org/2000/svg" xmlns:xlink="http://www.w3.org/1999/xlink" width="149.356" height="115.117" viewBox="0 0 149.356 115.117"><defs><style>.a{fill:url(#a);}.b{filter:url(#b);}</style><linearGradient id="a" x1="0.662" y1="0.337" x2="0.137" y2="0.809" gradientUnits="objectBoundingBox"><stop offset="0" stop-color="#21618c" stop-opacity="0.969"/><stop offset="1" stop-color="#cb4335"/></linearGradient><filter id="b" x="0" y="0" width="149.356" height="115.117" filterUnits="userSpaceOnUse"><feOffset input="SourceAlpha"/><feGaussianBlur stdDeviation="2.5" result="c"/><feFlood flood-opacity="0.302"/><feComposite operator="in" in2="c"/><feComposite in="SourceGraphic"/></filter></defs><g class="b" transform="matrix(1, 0, 0, 1, 0, 0)"><path class="a" d="M60.2,99.888c-1.592-.153-3.194-.384-4.763-.688s-3.154-.69-4.692-1.146-3.09-1-4.585-1.6-3-1.305-4.442-2.061c-1.034-.545-2.066-1.134-3.067-1.754.212-.266.413-.544.6-.824.168-.255.328-.517.473-.783a47.8,47.8,0,0,0,14.834,6c1.286.284,2.6.518,3.906.695s2.629.3,3.942.373,2.642.087,3.956.05,2.642-.129,3.949-.273a47.954,47.954,0,0,0,19.964-6.849c.146.266.305.529.472.783.186.282.388.559.6.824-1,.621-2.033,1.211-3.066,1.754-1.441.757-2.936,1.45-4.442,2.061s-3.038,1.146-4.586,1.6-3.115.841-4.691,1.146-3.172.535-4.763.688-3.2.229-4.8.229S61.791,100.04,60.2,99.888Zm-.019-2.959c-1.566-.159-3.14-.4-4.678-.714-1.518-.311-3.037-.7-4.515-1.161-1.462-.455-2.918-.988-4.328-1.585A47.256,47.256,0,0,1,21.589,68.4c-.6-1.41-1.129-2.867-1.584-4.329-.46-1.478-.851-3-1.161-4.515a46.917,46.917,0,0,1-.714-4.677,47.695,47.695,0,0,1,0-9.635,46.934,46.934,0,0,1,.714-4.678c.31-1.518.7-3.037,1.161-4.515.455-1.462.987-2.918,1.584-4.328A47.252,47.252,0,0,1,46.662,6.647c1.41-.6,2.867-1.129,4.328-1.584,1.479-.46,3-.851,4.515-1.161a46.935,46.935,0,0,1,4.678-.714,47.695,47.695,0,0,1,9.635,0A46.917,46.917,0,0,1,74.5,3.9c1.519.31,3.037.7,4.515,1.161,1.463.455,2.919.987,4.329,1.584A47.241,47.241,0,0,1,108.412,31.72c.6,1.41,1.13,2.867,1.585,4.328.46,1.479.85,3,1.161,4.515.314,1.538.554,3.111.714,4.678a47.87,47.87,0,0,1,0,9.635c-.159,1.566-.4,3.14-.714,4.677-.311,1.518-.7,3.037-1.161,4.515-.455,1.463-.988,2.919-1.585,4.329A47.246,47.246,0,0,1,83.34,93.47c-1.41.6-2.867,1.13-4.329,1.585s-3,.85-4.515,1.161a47.178,47.178,0,0,1-4.677.714,47.87,47.87,0,0,1-9.635,0Zm-1.072-8.708A5.889,5.889,0,1,0,65,82.331,5.9,5.9,0,0,0,59.112,88.221Zm22.026-5.3a2.944,2.944,0,1,0,2.945-2.945A2.948,2.948,0,0,0,81.137,82.921Zm-37.927,0a2.945,2.945,0,1,0,2.945-2.945A2.948,2.948,0,0,0,43.21,82.921ZM35.554,50.058A29.446,29.446,0,1,0,65,20.612,29.48,29.48,0,0,0,35.554,50.058ZM36.5,77.09a1.472,1.472,0,1,0,1.472-1.472A1.473,1.473,0,0,0,36.5,77.09Zm53.946-.118A1.472,1.472,0,1,0,91.915,75.5,1.474,1.474,0,0,0,90.442,76.973ZM95.272,68.2a2.944,2.944,0,1,0,2.944-2.945A2.947,2.947,0,0,0,95.272,68.2Zm-66.9,0a2.945,2.945,0,1,0,2.945-2.945A2.948,2.948,0,0,0,28.369,68.2Zm68.787-17.9a5.889,5.889,0,1,0,5.889-5.89A5.9,5.9,0,0,0,97.156,50.294ZM21.3,50.058a5.889,5.889,0,1,0,5.889-5.889A5.9,5.9,0,0,0,21.3,50.058ZM95.036,31.213a2.944,2.944,0,1,0,2.945-2.945A2.948,2.948,0,0,0,95.036,31.213Zm-66.313,0a2.944,2.944,0,1,0,2.944-2.945A2.947,2.947,0,0,0,28.723,31.213Zm61.719-7.951a1.472,1.472,0,1,0,1.472-1.472A1.474,1.474,0,0,0,90.442,23.262Zm-53.71,0A1.472,1.472,0,1,0,38.2,21.79,1.474,1.474,0,0,0,36.732,23.262Zm44.405-5.948a2.944,2.944,0,1,0,2.945-2.945A2.948,2.948,0,0,0,81.137,17.314ZM43.21,16.49a2.945,2.945,0,1,0,2.945-2.945A2.948,2.948,0,0,0,43.21,16.49Zm15.9-4.241A5.889,5.889,0,1,0,65,6.36,5.9,5.9,0,0,0,59.112,12.249Zm62.625,84.515a1.082,1.082,0,0,1-.3-.812,2.4,2.4,0,0,1,.041-.427l.022-.112h1.26l-.014.084a.684.684,0,0,0-.014.126q0,.483.7.483t.7-.434a.435.435,0,0,0-.238-.378,2.306,2.306,0,0,0-.578-.245c-.226-.066-.453-.141-.679-.228a1.412,1.412,0,0,1-.578-.406,1.021,1.021,0,0,1-.238-.689q0-1.758,2.261-1.758a2.093,2.093,0,0,1,1.249.312,1.01,1.01,0,0,1,.424.864,1.423,1.423,0,0,1-.053.389.9.9,0,0,1-.108.262l-.056.085h-1.239a.564.564,0,0,0,.154-.406q0-.455-.595-.455-.749,0-.749.476a.425.425,0,0,0,.238.378,2.081,2.081,0,0,0,.578.22q.339.081.682.2a1.33,1.33,0,0,1,.581.4,1.063,1.063,0,0,1,.238.717,1.6,1.6,0,0,1-.532,1.319,2.579,2.579,0,0,1-1.638.431A2.194,2.194,0,0,1,121.736,96.764Zm8.512.294.889-5.04h3.514l-.2,1.092H132.2l-.161.945H133.9l-.2,1.093h-1.862l-.139.819h2.254l-.2,1.092Zm-4.319,0,.889-5.04h3.514l-.2,1.092h-2.254l-.161.945h1.862l-.2,1.093h-1.862l-.139.819h2.254l-.2,1.092Zm-6.482,0,.041-1.1H118.32l-.343,1.1H116.64l1.8-5.04h2.309l.028,5.04Zm-.841-2.037h.917l.077-1.778h-.441Zm-3.577,2.037-.525-1.848h-.553l-.328,1.848h-1.26l.888-5.04h1.26l-.371,2.1h.448l1.33-2.1h1.329l-1.6,2.541.715,2.5Zm-4.662,0,.042-1.1h-1.169l-.343,1.1h-1.337l1.8-5.04h2.31l.028,5.04Zm-.84-2.037h.916l.077-1.778h-.441Zm-5.4,2.037.889-5.04h1.26l-.693,3.948h1.932l-.2,1.092Zm-2,0,.042-1.1H101l-.343,1.1H99.323l1.8-5.04h2.31l.028,5.04Zm-.84-2.037h.917l.077-1.778h-.441Zm-3.577,2.037-.526-1.848h-.553L96.3,97.059h-1.26l.889-5.04h1.26l-.371,2.1h.448l1.329-2.1h1.33l-1.6,2.541.714,2.5ZM91.9,89.981c1.269-.856,2.513-1.786,3.7-2.763s2.343-2.03,3.438-3.124,2.157-2.264,3.141-3.459c.97-1.179,1.895-2.417,2.745-3.678a9.609,9.609,0,0,1,1.6,1.074c-.84,1.243-1.746,2.462-2.693,3.623A50.817,50.817,0,0,1,96.6,88.891c-1.162.948-2.381,1.854-3.623,2.693A9.6,9.6,0,0,1,91.9,89.981Zm-58.495-1.09a50.885,50.885,0,0,1-7.239-7.238c-.947-1.161-1.852-2.381-2.692-3.623a9.555,9.555,0,0,1,1.6-1.074c.85,1.262,1.774,2.5,2.745,3.678.984,1.194,2.04,2.358,3.141,3.459s2.264,2.157,3.459,3.141c1.178.97,2.416,1.894,3.678,2.745a9.627,9.627,0,0,1-1.074,1.6C35.784,90.743,34.566,89.838,33.406,88.891ZM62.291,78.2c-.9-.086-1.8-.217-2.69-.388s-1.781-.39-2.649-.647-1.746-.563-2.589-.905c-.562-.228-1.125-.478-1.674-.743h0c.066-.092.13-.186.193-.281.139-.21.271-.428.392-.65a27.492,27.492,0,0,0,23.453,0c.121.221.253.439.391.65.062.094.128.189.194.282-.551.265-1.114.516-1.674.743-.843.342-1.714.646-2.589.905s-1.76.474-2.65.647-1.79.3-2.689.388-1.81.13-2.71.13S63.189,78.283,62.291,78.2Zm44.463-2.391c-.253-.166-.516-.326-.783-.472a47.8,47.8,0,0,0,6-14.834c.284-1.286.518-2.6.695-3.906s.3-2.629.373-3.942.087-2.642.05-3.956-.129-2.644-.273-3.949a47.934,47.934,0,0,0-6.849-19.964c.266-.147.53-.306.783-.473.281-.185.559-.387.824-.6.621,1,1.211,2.034,1.754,3.067.757,1.441,1.451,2.936,2.061,4.442s1.146,3.037,1.6,4.585.841,3.115,1.146,4.692.535,3.171.688,4.763.229,3.2.229,4.8-.076,3.21-.229,4.8-.384,3.194-.688,4.763-.69,3.154-1.146,4.691-1,3.091-1.6,4.586-1.305,3-2.061,4.442c-.545,1.034-1.134,2.066-1.754,3.066C107.312,76.193,107.035,75.992,106.754,75.806ZM20.669,73.338C19.912,71.9,19.218,70.4,18.607,68.9S17.462,65.859,17,64.31s-.84-3.116-1.145-4.691-.535-3.171-.688-4.763-.229-3.2-.229-4.8.076-3.209.229-4.8.384-3.2.688-4.763.69-3.155,1.145-4.692,1-3.09,1.6-4.585,1.3-3,2.062-4.442c.544-1.034,1.134-2.066,1.754-3.067.265.212.543.413.824.6.253.167.517.327.783.473a47.946,47.946,0,0,0-6.85,19.964c-.143,1.306-.235,2.635-.272,3.949s-.02,2.644.05,3.956.2,2.639.373,3.942.411,2.62.695,3.906a47.782,47.782,0,0,0,6,14.834c-.266.146-.529.305-.783.472-.281.186-.559.387-.824.6C21.8,75.4,21.213,74.371,20.669,73.338Zm57.457.526a27.156,27.156,0,0,0,6.095-4.585l.127-.128H83.341v-.406l.116-.232-.347-.231.115-.347-.347-.116.116-.58-.232-.463.174-.289c.1.176.2.158.29-.059l-.174-.29c.2.054.259-.024.174-.232l-.405-.116-.406.29.058-.174-.29.174q.093.267-.174.175l.059.174V66.6h-.232q.127.312-.174.231l-.231.347-.059-.231c-.231.1-.309,0-.231-.29l.115-.464-.174.059-.174-.059.58-.695q-.429-.2-.058-.406l.231.116c.193-.094.251-.286.174-.581H81.6c.085.209.027.287-.174.232l.058-.174q.1-.348-.406-.174l-.116-.231c.256.084.352.026.29-.175l-.231-.115-.059.174L80.5,63.82l-.231.116A.8.8,0,0,0,79.4,63.7l-.116-.291,1.217-1.1a1.681,1.681,0,0,1,1.275-.231l.231-.233h.174v.464h.175a6.5,6.5,0,0,1,1.68,3.072l.231,1.622.232.464v1.524a27.117,27.117,0,0,0,4.306-5.811,7.968,7.968,0,0,1,.917.6c-.346.624-.721,1.239-1.111,1.832-.518.785-1.085,1.554-1.682,2.288a28.725,28.725,0,0,1-4.087,4.087c-.734.6-1.5,1.164-2.288,1.682-.592.391-1.209.765-1.831,1.111A7.85,7.85,0,0,1,78.126,73.864Zm5.911-4.829h.115v-.347Zm-2.086-4.4v-.346l-.116.346Zm-32.5,9.04a28.393,28.393,0,0,1-2.288-1.682A28.669,28.669,0,0,1,43.071,67.9c-.6-.734-1.163-1.5-1.681-2.288-.392-.592-.765-1.209-1.112-1.832a7.851,7.851,0,0,1,.917-.6,27.26,27.26,0,0,0,10.679,10.68,7.843,7.843,0,0,1-.6.917C50.654,74.435,50.038,74.06,49.446,73.67Zm9.847-6.952-.869-.638L57.96,64.8V63.3l.522-1.1.116.233.464-.812.174.058.115-.927L59,59.705v-.232l-.116-.347.232-.058.058-.463.29,1.217.348.521c.208.086.285.027.231-.173l.232-.581-.464-.695V58.14l.464-.173.464-1.681h.231c-.085-.208-.027-.286.174-.231l1.218-.638-.406-.058-.464.116-.232-.347-.811.347H60.22l-1.738.231-.464-.116h-.231l-1.159-.115-.58-.232-.347.7-.174-.405.347-.7-.29-.638-.29-.174.116-.231-.231-1.449c-.209-.086-.286-.027-.232.174q.29.174.116.811l-.116.406-.58-.231.059-.348c.1.177.2.159.29-.058l-.058-.289-.115.232-.059-.291c.27-.115.309-.231.116-.347l.116-1.159-.29-.638-.232.347q-.255.093-.174-.174H53.9c.054.4-.062.634-.347.7l-.116.811-.637.868c-.2.062-.259-.035-.174-.29l.231-.4q-.475.15-.347-.232c.209.085.286.027.232-.174l.231-.463-.347.231-.174.29-.29.175-1.8,2.955-.058-.29q.267-.138.116-.695l.347-.522q.348.151.232-.29l1.217-1.8c.177.062.236,0,.174-.173l.406-.523c.177.062.236,0,.174-.174l.347-.695c-.208-.132-.247-.44-.115-.927l.115-.231-.174-.29-.29.81q-.382.151-.231-.4a1.416,1.416,0,0,0,.464-1.275l-.58-.4L51.7,49.39l-.29.29-.753.116v-.464h.174l.406-.289.985-1.8.174.058-.116-.231.348-.175.174.348.521.406c-.085.254-.027.351.174.29q.174.289.812.115l.406-.115.231-.754a10.672,10.672,0,0,0,1.97-2.491l.348.174.29.522.058-.174-.347-.812h.115l.464,1.159.753.869,1.274.695,1.159.116.4-.116-.058.232H60.22v.116H61.5l1.159-.812-.522.637v.175l-.232.058v0l.232-.058V47.3l.637-.753.037.111.427-.69-.29.175.58-1.449-.174.348-.058-.175.231-.174.232-.174a.974.974,0,0,1-.927-.464,2.35,2.35,0,0,0-.869-1.217l-1.275-.464h-2.55L57.9,42.5H56.164l-.116.116H53.5l-1.448.868-.927,1.39V45.1l-.174.29-.29.174L50.2,46.725l-.29.289-.174-.405.4-1.333.055.439a2.1,2.1,0,0,0,0-.5l.053-.077-.053-.212a.35.35,0,0,0,.175.036l.073-.106a.43.43,0,0,0-.017-.1l.29-.29.069-.1.221-.827.347-.174,1.159-1.507.232-.752-.348.175-.406.521-.289.174-.175.406h-.289c.115.293.058.41-.175.347L50.022,44c-.17-.053-.229,0-.175.175l-.347.174.116-.637.637-.986.012.036.046-.093.079-.092.153-.257.231-.347.116-.29.459-.287-.822,1.017,1.116-1.31h-.058l-.227.281.284-.513h.232l.985-.985-.174-.058-.231.116.115-.232a1.6,1.6,0,0,0,1.449-.752l.116-.638c.231.1.309,0,.231-.29l.348-.175.174-.347h.231l.522-.522.29-.4.288-.172a5.083,5.083,0,0,0-.81.925L56.744,36l.812-.463a5.4,5.4,0,0,0-1.333.869q.091-.3-.29-.174l-.232-.116-.58.116-.695.463H53.5l-.115.116q-.139-.256-.7-.116l-.406-.406q-.057-.463.29-.522l.1.207c.3-.067.5-.019.592.141l.237-.079-.41-.095.174-.291a.883.883,0,0,0,.927.348,1.327,1.327,0,0,1,1.043-.232l.232.116a2.156,2.156,0,0,1,1.332-.232l-.115-.752.115-.291.522-.347h.29l.116-.406-.348-.231-.058.174-.058-.174.058-.175-.986.521.232.058c.1.494-.035.8-.406.928l-.464.115-.406-.174.116-.232-.347-.58c.139.124.274.067.406-.173h.464l1.217-.754q-.081-.255.174-.174l.464.115.29-.115q-.127.382.347.231-.15-.382.406-.231l.406-.289.115-.523a1.7,1.7,0,0,1-1.217.233l-.405.4-.058.174-.058-.232-.463-.173.116-.116-.638-.637-1.217-.348c.1.232,0,.309-.29.232l-.174-.29.29-.638-.058.174,0,.01,0-.01.4-.29-.174.059.174-.174.406.289-.116.348.29.29q.753-.116.986.29l.174.29a1,1,0,0,0,.927.232h.232l1.274-.464h.7l.29.115c-.077-.292-.02-.486.174-.579l1.043-.464-.232.348-.869.231v.463a.347.347,0,0,1,.192-.022,1.179,1.179,0,0,1-.076-.151q-.139-.428.29-.29l.232-.115V31.6l.347-.231.174-.348.29-.116.183.078q-.311-.089-.24.212a.393.393,0,0,1,.231.522l.232.058q-.174.347-.347,0V32.3h.174l.347.116.174-.291-.116-.116v-.752l.7-.174a1.356,1.356,0,0,1-1.217-.291l-.232.116v-.116l.232-.116c.108.2.34.28.7.232l.464-.116.811.58c.1-.325.41-.44.927-.348l.522.406.29.521.29.174.115.406c.209-.085.286-.027.232.175q-.313.2.174.4.5.094.58-.231l.347.116.58-.116.231.116.58-.116a1,1,0,0,1,.928.231h1.39q.2.325.811.232l1.043.581q.151-.255.29.057c.04.115.03.18-.03.2l.667.1.406.4-.406-.29-.695-.115.174.289.174.291.406.174.521.985.116-.232.174.522-.058.29-.406-.231.174.463.406.173-.29.058,1.159.232,1.1-.232V36.7h-.985l-.115-.232.231.116h.986v.4A1.967,1.967,0,0,1,76.1,37.4q-.209-.325-.927-.116l-.869-.521.116-.233-.29-.289L72.621,36a.5.5,0,0,0-.638-.348.457.457,0,0,0,.29.581l.464-.116.488.335a.326.326,0,0,0-.14.013l-.521-.231.4.58a4.449,4.449,0,0,1,1.854,1.507l.29-.117c.068-.164.075-.274.021-.33l.1.041-.231.7.058.174-.174-.058.231.927v.232c.217.131.294.4.232.811q-.29.174.116.348l.2,1.1.031-.289-.116-.23h.232l-.116-.638c.232-.092.31,0,.232.291l.347.174.406.695.115-.232.116,1.044.175-.058v.231c.054.2-.023.259-.232.175l-.232-.637c.193-.116.155-.231-.116-.348v-.231l-.521-.637-.058.29.058.173-.174-.059.116.7h-.348l-.058-.174-.058.637.347.7-.058.174.695.347L76.329,44c-.169.063-.228,0-.174-.173l-.464-.928.348-.175.058.233.116-.347.521,2.143-.232.116c.062-.286,0-.459-.174-.521l-.464-.232-.174.059c.062-.17,0-.228-.174-.175l-.174.406.116.29c-.209-.085-.286-.027-.232.174l.347.753q-.428-.173-.347.174l.116.232-.116.232.116.463-.059.173.638-.115.148.4h.084l.116.7a.445.445,0,0,1-.58.29l-.58.986-.058,1.68-.232-.58-.058.4.116.232-.116.29q.313.128.232-.174h.115l-.115.58-.464.7-.116.81.464.348v.868h-.464l-.059-.231-.29.464-.347.175-.105.14c.058-.206-.022-.273-.242-.2q-.113.339.212.239l-.212.284v.289q-.382-.151-.232.4a1.459,1.459,0,0,0-.347,1.159l-.29.29h-.174v.464c.209-.085.285-.026.232.175l-.116.4h.521l.232.232.927.232.811.347.464.463,1.275.7,1.623.464.231-.116.58.232h1.275l.927.232.521.521-.058.173-.347-.114-1.855.811-1.449,1.043c.116-.287.058-.4-.174-.348l-.347.116.174-.291.174-.289c.178.063.236,0,.174-.173l.7-.522c-.085-.21-.027-.286.174-.233v-.114l-.347-.116-1.68.927v-.232c.209.085.285.028.231-.174l-.347-.174c.1.231,0,.31-.29.231l-.58.348-.174-.058c.062.2-.035.258-.29.174l-.232.231h-.695c-.093.231-.305.31-.637.231.131-.4.054-.556-.232-.463.086.209.027.285-.174.231-.093-.169-.189-.15-.29.058.054.2-.023.258-.232.173l-.058-.231-.231.347-.174-.636.174.058.4-.174.232-.348.406-.638.231.117v-.231h.174c-.116-.294-.058-.41.174-.348l.175.058v-.29h-.753l-.175.464c-.4-.164-.556-.067-.464.289l-.753.406q-.139-.255-.29.058.093.267-.174.174-.521-.231-.116-.463l.406-.175.058-.173.116.114L72.8,61.1c-.062-.2.035-.259.29-.174l.347-.116.174.058-.231-.522-.232.059.059.173c-.17.063-.229,0-.175-.173l-.115-.231.58-1.1-.348.175-.174.29h-.231l-.812-.347a34.493,34.493,0,0,1-4.983,5.794L64.509,66.6l-1.623.464-1.854.115Zm4.346,0,1.043-.464-.116-.348-.58.232q-.347-.117-.231.348h-.232Zm3.187-1.855-.312.209.022.023.348-.232.464-.463-.03-.029Zm-.4.116.029.029-.018-.052Zm-.01-.475a.2.2,0,0,1-.02-.085A.136.136,0,0,0,66.411,64.5Zm.8-.385c.019-.072.088-.1.21-.094a.479.479,0,0,0-.087-.01C67.257,64.013,67.216,64.049,67.214,64.118Zm.315-.078c.016,0,.033.006.05.012l.116-.231h.231c-.006-.021-.012-.041-.016-.058H67.7Zm-1-.023.012-.023-.115-.29Zm.475-.2a.409.409,0,0,0,.038-.16A.706.706,0,0,1,67,63.82Zm-5.1,0h.116l-.231-.232Zm8.924-3.3-2.712,3.057.046.014,2.666-3.014,1.043-1.621-.023-.023Zm-3.963,3.062.022.009c.013-.007.025-.012.037-.017A.31.31,0,0,0,66.862,63.579Zm-.557-.223.373.149-.322-.18Zm.463-.695.1.3.016-.009-.107-.319Zm-.129-.7c0-.017.008-.033.013-.05l-.347-.173ZM66.305,61.734Zm-.614-.917-.023-.011c-.091.028-.152.023-.184-.013C65.514,60.84,65.584,60.847,65.691,60.817Zm2.758-.59.811.463.039-.011-.792-.452-.261-.262Zm1.294.193.039.154v-.231Zm-4.713-.309.45.449.013-.043-.436-.437C65.05,60.09,65.04,60.1,65.03,60.111Zm4.983-.406-.142.238.027.052.115-.232.348-.231Zm-5.1.058c.165.055.232.13.2.223q.127-.14-.2-.281l-.231-1.1Zm5.555.092.009-.033-.116-.29Zm-.687-.092.019.039-.01-.052Zm-1.739-.058.013.016c.025-.091.022-.153-.01-.187A.238.238,0,0,1,68.043,59.705Zm2.2-.4.347.114-.115-.578Zm.347-.464c-.077.23,0,.308.232.23.058-.173.029-.261-.087-.261A.449.449,0,0,0,70.593,58.837Zm1.275-.7.464.7c-.077.154,0,.192.232.116l-.348-.928-.347-.232Zm-8.372.793.027.02.812-.464-.046-.031Zm4.2-.155-.116.116.015.042.1-.1.116-3.13v-.059Zm-4.732-.006c-.005.02-.012.041-.02.065l.2-.1-.024-.017Zm6.818-.167.231.115-.115-.347Zm1.564-.116.261.2-.2-.2h-.059Zm-6.809.145h0Zm-1.72-.042.011.014a.265.265,0,0,1,.045-.02A.342.342,0,0,0,62.818,58.591Zm1.169-.393.022.015.095-.188-.012-.035Zm-1.738-.289.237.285-.237-.344Zm8-.116.347.116-.347-.173a.244.244,0,0,1,0-.173C70.207,57.6,70.208,57.68,70.245,57.793Zm-.7.116.348-.116c.076-.309,0-.425-.232-.347l-.116-.581A1.208,1.208,0,0,0,69.55,57.909Zm-1.274-.231h.231l-.231-.058Zm2.2-.348v-.058l-.116-.638Zm-7.451-.444.436.331-.4-.352Zm5.326.11a3.409,3.409,0,0,1,.039-.478v-.057A3.828,3.828,0,0,0,68.353,57Zm3.979-.131v.116l.347-.116v-.81Zm-2.115-.2h0Zm1.652-.608q-.232.579.231.463l-.116-.463q-.115-.348.348-.232V55.59l-.464-.231v-.231Q71.52,55.822,71.868,56.055Zm-3.129-1.217-.347,1.39v.058l.347-1.391.515-.823c0-.034,0-.068.006-.1Zm4.056.752v.348l.231-.116c.059-.175.03-.261-.086-.261A.517.517,0,0,0,72.8,55.59Zm-7.3.133a.243.243,0,0,0,.054.006.427.427,0,0,1-.054-.023Zm5.563-.481-.231.232.231.231.232-.116c.123-.247.1-.37-.075-.37A.672.672,0,0,0,71.056,55.243Zm-1.3.419.025.044.231-.464L70,55.217ZM65.61,55.59q.015.03.024.054a.349.349,0,0,0-.014-.082Zm5.8-.231c-.077.155,0,.193.231.116v-.347Zm-1.757.112.018-.055a.95.95,0,0,1-.124-.131Zm-3.681-.24c-.034.05-.115.054-.241.012C65.852,55.3,65.933,55.294,65.967,55.231Zm-.01-.22a.478.478,0,0,1,.029.137.578.578,0,0,0-.018-.15Zm-5.7-.213-.039-.019a1.241,1.241,0,0,1-.926.241A1.119,1.119,0,0,0,60.259,54.8Zm11.493-.946-.347.117-.116.346.116.7.579-.232-.115-.232q.1-.709-.064-.709A.131.131,0,0,0,71.752,53.852ZM69.318,54.9l.051.09a1.3,1.3,0,0,1-.051-.155ZM60.48,54.88l.031.015.784-.448-.031-.016Zm9.3-.042.013.019.451-1.352c0-.011-.006-.022-.009-.031ZM57.15,54.6c0,.019,0,.039,0,.058l.212-.106-.039-.01Zm9.144-.043a.317.317,0,0,0,.064.01.437.437,0,0,1-.053-.024Zm-4.77-.028.029.014.213-.106-.04-.01Zm-3.216-.1H59.7l.116.116.811-.464.116-.231-.232-.464-1.159.7a2.145,2.145,0,0,0-.3-.022A.748.748,0,0,0,58.309,54.431Zm8.113,0c.01.021.017.038.023.055a.31.31,0,0,0-.012-.075Zm-4.483-.072c0,.062-.041.093-.116.089Q61.951,54.5,61.938,54.359Zm-5.832.072-.116-.462C55.759,54.356,55.8,54.509,56.106,54.431Zm6.6-.679-.051-.016a.612.612,0,0,1-.754.464A.656.656,0,0,0,62.706,53.753Zm9.836.344.022.1.231-.812Zm-1.877.089.043.014.116-.116v-.058Zm-.3-.1.217.073-.2-.121C70.371,54.051,70.367,54.068,70.362,54.084Zm-12.459,0h0Zm16.862-.114v-.581l-.464-.231q.116-.347-.232-.231v.231l-.115-.115q-.348.115-.232.695c.077.155.271.233.58.233.077-.156.155-.233.232-.233S74.688,53.814,74.765,53.969Zm-8,0H67v-.233Zm.58-.059.009.03.106-.319-.009-.03Zm3.129-1.449a3.888,3.888,0,0,1-.058,1.422,3.024,3.024,0,0,0,.064-1.435Zm-7.615,1.311c.1.011.13-.026.1-.112A.1.1,0,0,1,62.863,53.773Zm9.585-.152.009.048,0-.058Zm-5.573.016c.041.013.078.022.113.029-.032-.012-.067-.028-.1-.045ZM67,53.388h.232a.578.578,0,0,1,.022.194.434.434,0,0,0-.022-.251h-.194Zm5.941-.029h0Zm-.493-.318.1.312.013-.023-.1-.311Zm.579-.463-.347.579.347.116.116-.347q.093-.371-.037-.371A.178.178,0,0,0,73.026,52.578Zm-5.748.445h0c.091,0,.113.063.067.192l.009.029c.047-.154.037-.23-.03-.23A.154.154,0,0,0,67.278,53.023Zm3.547.076v.058a.852.852,0,0,0,.221-.389Zm-9.5,0,.028.01.436-.762-.022-.021Zm.811,0,.027-.007.205-.513V52.23l-.048.054.048.236Zm.618-.022a.442.442,0,0,0-.329-.048.729.729,0,0,1,.329.048Zm8.885-.036h0l.232-.116Zm-13.1-.347.554.332.025-.043-.58-.347Zm14.719.289,0,.019.113-1.236-.005,0Zm-1.391-.058.115-.463V52.4Zm-2.144,0,.01-.016-.083-.027Zm-.175-.347c-.076.231,0,.309.232.231l.347-.7v-.347Zm.116-1.217-.231,1.39.011.007.221-.992a.782.782,0,0,0,.014-.445Zm1.391,1.361a1.6,1.6,0,0,0,0-.608Zm-.829-.048a.256.256,0,0,1,.134-.1l-.016-.048A.394.394,0,0,0,70.227,52.674Zm-12.847-.212h-.058c-.1.166-.306.228-.617.184C57.032,52.71,57.257,52.648,57.381,52.462Zm-1.391-.116.27.135-.27-.193a.924.924,0,0,1-.027-.1A.987.987,0,0,0,55.99,52.346Zm17.931-.067.091.183.012-.093-.069-.139Zm-3.706,0,.1.171-.073-.217Zm-8.662-.336-.231.464.041-.024.19-.382c.012-.058.02-.112.025-.161C61.571,51.869,61.563,51.9,61.553,51.94Zm11.473.174c-.076.232,0,.31.232.232v-.464Zm-13.386.232.869-.753c.062-.2-.034-.259-.29-.174l.058-.174c.061-.286,0-.461-.174-.522l-.464.231-.464-.231v-.1l-.29.1H58.83l.174.058-.29.174-.58-.115-.231.115-.464-.115-.986.406q-.15.533.522.289h.231l.464.116.347-.231.232.115.406-.115.058-.232.232.347.174.059-1.97.463.174.174h1.159l.58-.116Zm2.009-.1.049.015-.029-.029Zm11.029-.13.116-.347h.316l.032-.058H72.8Zm-.241-.011a.19.19,0,0,1-.019-.085A.135.135,0,0,0,72.438,52.1Zm-1.874-.076h0Zm-.9-2.579-.811,1.159v.927l-.116.116q-.232.464.231.347l.348-.579q-.116-.348.231-.232l.464-.811V49.8l.464-.927a2.141,2.141,0,0,1,.231-1.507l-.347-.232q.116.231-.232.116l.348-.927v-.811h.231l.116-.232-.232-.464.116-.348-.116-.347.116-.463-.116-.58-.347.231.232,1.043v.7l-.116-.7a1.138,1.138,0,0,0-.348,1.159l-.927-1.275v-.289l-.231-.581v-.588c-.088.088-.088.265,0,.53h-.116l.116-2.085v-.464l-.116-.347-.116.579-.231.233-.232.81.116,1.507L69.9,46.551l-.048.142q.311-.158.048-.315l-.753-1.565.521.29h-.231l.29.637.115-.231.116.231.232-.579.058.4V45.8c.062.178,0,.236-.174.174l-.174-.058.29.637L70.3,46.2l.058.29-.116.29-.29-.116-.116.347-.036-.181-.307.92.046.411a1.254,1.254,0,0,1,.182-.918l.058.29-.116.231.174.29.116-.347.116.231.464-.7.058.175-.174.752-.037-.014a1.334,1.334,0,0,1-.021.653l-.463.81v.464l-.638.986-.115-.232-.059.29.116.348-.347.231.115-.928.348-.636q.382.15.231-.407l.348-.347.231-1.333-.174.812-.013-.126c-.008.087-.023.188-.045.3h-.116l-.008-.025ZM73.838,52h.231l-.174-.043Zm-17.78-.017h.005a.393.393,0,0,1,.1.017l.034-.007a.354.354,0,0,0-.1-.015A.169.169,0,0,0,56.058,51.98Zm1.256-.232.183-.04-1.106-.053Zm16.954-.073.033.033V51.65Zm-3.56-.6.116.579c.006.021.012.04.016.058a.419.419,0,0,0-.016-.115l-.106-.532Zm3.356.608-.111-.029.115-.4-.11-.385q-.066.084-.005.327v.232c-.039.115-.039.193,0,.231A.136.136,0,0,0,74.065,51.679Zm-.776-.038c-.031-.094.037-.167.2-.222a.354.354,0,0,1-.014-.052C73.269,51.458,73.206,51.549,73.289,51.641Zm.9-.049.017.017.215-.538.116-.927h.174l-.174-.059Zm-18.311-.174.271.135-.271-.193c-.009-.031-.017-.058-.022-.084A.76.76,0,0,0,55.874,51.419Zm17.037.115h.347l-.116-.231Zm-17.152-.115.083-.208c-.006-.079.014-.131.063-.157l.085-.215q.232.116.116-.232h-.927l-.232-.115.116-.464c.077-.542.039-.773-.116-.7L54.6,49.8l-.232.116.464-.928v-.231l-.811.927.116.348-.116.347q-.116.463.347.231l.116-.347ZM71.824,51.2l.1.1-.058-.116Zm1.655.033q.055-.123.359-.048a.65.65,0,0,0-.229-.058A.113.113,0,0,0,73.479,51.234Zm.475-.686-.116.638.116-.58a.954.954,0,0,0,.019-.146C73.969,50.488,73.962,50.518,73.954,50.549Zm-8.692.232.29.406-.28-.56A.285.285,0,0,1,65.262,50.781Zm6.374.232a.368.368,0,0,0-.019.1.3.3,0,0,1,.019-.045l.347-.232Zm.812-2.029-.232,1.507v.231c-.077.31,0,.425.232.348l.347-1.624c.116-.347.079-.52-.109-.52A.664.664,0,0,0,72.448,48.984Zm.579,2.087h.232v-.232Zm-11.821,0h0Zm-5.042,0,.024-.008a.628.628,0,0,0-.106-.015C56.107,51.054,56.134,51.062,56.164,51.071Zm.819-.22c.077.121.155.14.232.056-.075.047-.135.025-.182-.068Zm13.842-.476a.842.842,0,0,1-.01.538.7.7,0,0,0,.022-.551Zm-9.967.464.58-.116h.232l.116-.347-.232-.231a.807.807,0,0,1-.811.231Zm-.734-.22.328.22.036-.014-.326-.218Zm-2.749.112.643.107.027-.005-.664-.111Zm16.63.095.035-.009A.092.092,0,0,0,74.006,50.827Zm.064-.1.07.069.046-.012-.084-.25Zm-14.855-.108.543.108.022-.007-.543-.109Zm5.816-.008h0l0,0Zm-2.086-.347.232.347.116-.347-.116-.347Zm10.2-1.855-.231.7v.812l.231.58.348-1.739.927-1.39.116-1.159.347-.927-.232-.58v-.58L74.881,44v-.346L75,43.19a.877.877,0,0,1-.116-.811l-.116-.232c-.386.078-.5-.077-.347-.463l-.7-.463v1.042l.464,1.043V43.19H74.3l-.116.231v.464l.348.579-.116.464-.464-1.159-.348-.232a2.015,2.015,0,0,1,.116,1.275c-.309.076-.347.194-.116.348l-.115.115v1.39l-.116.116-.232-.232.232-1.158v-.928l.116-.115c.077-.232,0-.309-.232-.232l.347-1.158v-.986h-.115l-.059-.29-.174.58.29-.116.058.522h-.115c.077-.286,0-.382-.232-.29l-.232.985v.7h.116q-.081-.429.174-.522l-.058.175a3.848,3.848,0,0,1-.167,1.1h.051a1.352,1.352,0,0,1-.464,1.158q-.116.348.232.232l-.116.347.116.812.347-.116Zm-4.983,2.087h.347l-.312-.052Zm.58-.522-.232.522.232-.464.347-.232Zm3.013.463.017.03.33-.551-.022-.022Zm-3.94-.463-.143.334.027.014a1.8,1.8,0,0,0,.232-1.5.785.785,0,0,0,0,.517q-.347-.138-.231.29l-.116.464H67.7l.174-.29Zm-5.447.058q-.116.347.231.231l-.116-.58-.58-.464Zm11.241-.174-.115.4.115-.347.464-.348Zm-13.907.4,1.043-.115-.232-.232.116-.116-.232-.464-.464-.463H58.54l-1.39.695-.58-.116-.58.232q-.347-.116-.231.232l.579.232,1.159-.232.232.116-.116.231.232-.115.115.115h.7l.116-.231Zm7.764-.058h0a.055.055,0,0,1,0-.011S67.463,50.2,67.464,50.2Zm3.584-.049c.027,0,.053.008.077.01-.022,0-.045-.012-.068-.019Zm3.66-.009h.058L75,50.028l-.023-.045Zm-4.578-.232.116.232.232-.464-.116-.348Zm-3.114.018-.015.1c-.148-.061-.229-.049-.245.034l.013-.034C66.948,50.1,67.031,50.069,67.015,49.93Zm4.041.1h.232l-.232-.058Zm.464-.869-.232.869.232-.812.231-.232V48.29h.116v-.175a.538.538,0,0,0,.053-.058h-.053l.01-.086-.068.2-.054-.431a4.517,4.517,0,0,0,0,1.127l-.069.035.069.023Zm-4.1.861a1.389,1.389,0,0,1,.04-.4.239.239,0,0,0,.116-.115c.021-.06-.023-.121-.13-.182l.13.182C67.434,49.588,67.382,49.76,67.423,50.02ZM65.03,49.97Zm-.463-.927.463.927-.463-1.054Zm-10.778.869.115-.232-.347-.232ZM69.2,49.506l-.116.29.116-.232.169-.254a.336.336,0,0,0-.088-.016C69.192,49.294,69.165,49.366,69.2,49.506Zm5.679.231.019.038a.49.49,0,0,0,.082-.123A.283.283,0,0,1,74.881,49.738Zm-2.9,0,.03.03.319-.319-.02-.038Zm-4.867-.463-.071.463.245-.637Zm6.953.289.071-.14-.013-.092Zm-22.715,0L51.7,49.1c.076-.309-.039-.386-.348-.231V49.1l-.347.231-.116.232.232-.116Zm19.818-.058.042-.022L71.2,49.4Zm3.448-.029h0Zm-5.775-.014a.3.3,0,0,0,.063.009.436.436,0,0,1-.053-.024Zm.125-.131a.445.445,0,0,1,.024.054.308.308,0,0,0-.014-.082Zm-.695,0-.116-.463C67.927,49.255,67.967,49.41,68.275,49.332Zm4.4-1.217-.347.116-.116.928.005.012.111-.881.347-.116a1.232,1.232,0,0,0-.04-.7A1.438,1.438,0,0,1,72.679,48.115Zm-3.121,1.019L69.766,49l-.041-.127Zm-.127-.033h0v0ZM75,49.043c0,.015.008.031.012.046l.22-.22v-.348l-.053.024.053.266Zm-3.593,0s0,0,0,.008a.068.068,0,0,0,0-.01Zm3.4-.124.022.066.319-.422A.675.675,0,0,0,74.8,48.919Zm-.434-.066.05.016.116-.348Zm-4.588-.1h-.345Q69.719,48.869,69.779,48.753Zm-1.846.052.168-.167A.37.37,0,0,0,67.933,48.805Zm-12.639-.863v.347l.464.464.231-.115c.155.076.194,0,.116-.233l-.463-.231q.086-.261-.152-.261A.818.818,0,0,0,55.295,47.942Zm14.371.521.115.287a.276.276,0,0,0,0-.171l-.116-.29c.114-.035.193-.012.239.071L69.9,48.29a.432.432,0,0,0-.151-.039C69.655,48.251,69.628,48.323,69.666,48.463Zm-.927.058a.8.8,0,0,1,.052.173c.018-.1-.006-.165-.073-.183Zm-12.4-.116c-.077.233,0,.31.232.233.058-.175.029-.262-.087-.262A.492.492,0,0,0,56.338,48.4Zm17.7.058.087.175.05-.014L74.07,48.4ZM67.348,47.13l.115.232q.232.579-.115.811l.115.347v.117h.58l-.231-1.043v-.928h-.348Zm-2.91,1.5-.046-.106-.58-.231Zm6.85-.28.094.19.022-.074-.115-.287A.2.2,0,0,0,71.289,48.347Zm-.116-.174.1.293.018,0-.1-.313Zm-8.518.231.2-.1-.087-.014h-.231l-.348-.116Zm-4.346,0h.231l-.231-.115Zm9.734-.4.116.29-.115-.578C68,47.76,68,47.857,68.043,48Zm.542.27.385-.1-.078-.026Zm-11.551-.212.116.116.231-.116h.464l-.58-.231Zm-5.1-.115.116.231.116-.231v-.347Zm19.358.23.176-.029a.4.4,0,0,0-.075-.008A.123.123,0,0,0,71.292,48.173ZM71.521,48l.042.129.073-.014-.115-.4C71.482,47.759,71.481,47.857,71.521,48Zm4.055.058h.116v-.463l-.05.2.05.2h-.1Zm-8.344,0,.116-.231-.116-1.043-.116.347h-.464v.232l-.116.348q-.116.231.232.115ZM63.4,48.034l.069.023.231-.076-.115-.039Zm-5.783-.555,1.043.579.464-.115.231-.116c-.076.155,0,.193.232.116l.116-.347-.58-.464.116.348v.116a6.451,6.451,0,0,1-1.855-1.971l-.347-.347-.232.116L55.295,47.13l.812.348a.691.691,0,0,0,.695-.116Zm18.543.405-.231.058q.428.15.231-.521h-.231ZM62.77,47.826l.391.131-.484-.261Zm9.329-.7-.1.814a1.4,1.4,0,0,0,.108-.824Zm-7.359.58-.382.163a1.476,1.476,0,0,0,.9-.686l.016-.112Zm3.3,0c.122.049.2.049.23,0a.4.4,0,0,0-.143-.035A.108.108,0,0,0,68.045,47.711Zm7.357-.116-.154.051.038.065.29-.116v0a.14.14,0,0,0-.069-.016A.37.37,0,0,0,75.4,47.595Zm-7.127.116.006-.011Zm3.248,0,.121-.031a.241.241,0,0,0-.035,0A.109.109,0,0,0,71.523,47.71Zm.255-.1.09.045.049-.539A2.839,2.839,0,0,0,71.778,47.607Zm-7.892,0a.379.379,0,0,0,.333-.247c0-.011-.007-.021-.01-.031A.429.429,0,0,1,63.886,47.61Zm7.345-.131-.29.116.347-.116a.492.492,0,0,1,.046-.021A.4.4,0,0,0,71.231,47.479Zm.405.058.077.039-.06-.122Zm-9.156-.115.089.124-.05-.2Zm6.606.058-.116-.464C68.739,47.4,68.778,47.556,69.086,47.479Zm-1.159,0h.116V47.13Zm-12.98,0h.232v-.232Zm17.036-.522c-.018.04-.035.079-.052.12l.021.225.032-.287.049-.12L72,46.885A.352.352,0,0,1,71.983,46.957Zm2.666.058c-.077.232,0,.309.232.232.058-.174.029-.26-.087-.26A.486.486,0,0,0,74.649,47.014Zm.927.236c.043-.04.121-.041.232,0a.387.387,0,0,0-.142-.034A.11.11,0,0,0,75.576,47.25Zm.116-.12.232.116-.116-.348Zm-3.257-.559c.283.131.327.261.129.385l-.116.231.02.018.1-.192q.347-.231-.116-.464Zm-8.219.563c.038-.042.116-.043.234,0a.438.438,0,0,0-.151-.038A.086.086,0,0,0,64.216,47.134Zm.234,0,.116-.347-.013-.014Zm7.07-.116-.348-.116Zm-2.782-.058v-.231l-.116-.406-.463.29.463-.29Zm-.664-.02h0Zm-.015,0h0Zm-.11-.028-.007,0Zm-.022-.01.007,0-.007,0-.289-.811-.232.464-.174-.173.174.173.232-.464Zm1.159-.115.232.115-.116-.579Zm-.9.016a.7.7,0,0,0-.027-.181A.7.7,0,0,1,68.188,46.8ZM57.613,45.74l.58.811.464.232h.116l-1.043-1.274Zm-7.765,1.043.232-.116v-.231ZM71.4,46.551l-.116-1.274c-.232.077-.271.193-.116.347l-.116.58v.232a.349.349,0,0,0-.023.128l-.093-.185v.058l.1.193.014-.014a.091.091,0,0,1-.017-.05l.023.046-.005,0Q71.114,46.7,71.4,46.551Zm-7.22-.1.179.127-.145-.144Zm-.9-.01.646.108.014-.007-.652-.108Zm8.469-1.05v.987a1.954,1.954,0,0,0,.009-1Zm-6.49.869a.279.279,0,0,1,.111.1l-.079-.238Zm-15.3-.175c-.067.133-.019.18.142.142a.465.465,0,0,1-.142-.026.752.752,0,0,0,.223-.451Zm21.994.059h.025l.232-.464Zm-.09,0h.054l-.054-.808A2.326,2.326,0,0,0,71.868,46.146Zm-4.056-.175-.116-.347Q67.347,46.088,67.812,45.971Zm-2.318-.695-.164.7a.733.733,0,0,0,.164-.7l-.985-.115-.58.579.58-.579Zm-1.857.695h0s0,0,0,0Zm8.579-.174.015,0,.217-.756V44.87Zm-8.575-.056,0,0h0Zm3.476-.175.016.009,0-.032Zm-16.577-.014-.007-.022Zm-.012-.039a.5.5,0,0,1-.022-.133A.5.5,0,0,0,50.527,45.513Zm22.25-.059.018.055.056-.167C72.828,45.38,72.8,45.418,72.777,45.454Zm-1.141-.061c.155-.077.155-.156,0-.231l.232-.812-.347-.232v-.231A1.46,1.46,0,0,0,71.636,45.392Zm.58-1.448v.81a.935.935,0,0,0-.346.579,1.409,1.409,0,0,0,.355-1.391Zm-5.853,1.178.116.039h.231l.453.15.012-.035-.58-.231ZM75,44.986l.115.29L75,44.649A1.68,1.68,0,0,0,75,44.986Zm-24.28.29.29-.29.075-.318Zm0,0h0Zm-.093-.017h0Zm22.059-.1.014.043-.008-.062Zm-22.252,0h.347v-.232Zm15.356-.348.205.137c.022-.1-.011-.153-.1-.153A.425.425,0,0,0,65.783,44.813Zm5.158-.521a2.143,2.143,0,0,1,.347.52v-.695l-.059-.058.059.116h-.116L71.115,44Zm-.116-.059.228.456,0-.051-.217-.434Zm1.68.406.058-.175-.005-.04Zm-6.722,0v-.056h-1.97Zm9.218,0,.344-.572A.719.719,0,0,0,75,44.632Zm-5.356-.177.021.01.347-.115Zm-1.718.01h.7l-.231-.579Zm-3.477-.028.059.028.116-.115Zm-2-1.264c.051.061.1.125.147.192l.347.753.869.347.29-.072-.174-.043h-.058c.076-.232.039-.309-.116-.232l.116.232H63.7l-.521-.174.231-.059-.985-1.391-.347-.114Zm3.928,1.1.044.015.069-.209-.069-.023ZM71.4,43.19l.231.58.463.463v-.058l-.463-.464-.231-.581Zm-5.563.754.115.289-.095-.333Zm-14.654.272L51.239,44l.01-.005C51.189,44.022,51.168,44.095,51.188,44.216ZM72.534,44.2l-.086-.783-.042.127.042.337h0a.17.17,0,0,1,.059.117v0Zm-8.18-.216h0Zm6.818-.044.014.028.1-.2-.007-.044Zm-19.238-1.2-.811.967c-.019.089-.041.176-.065.26l.7-1.013c.1.169.2.15.29-.058l-.059-.175Zm14.594,1.223.008-.024v-.232L66.45,43.1l-.029.144.115.464Q66.312,43.844,66.528,43.969Zm4.181-.778.221.775.011-.021-.22-.767Zm-.7-.059-.115.7.005.024.11-.662.348-.231Zm2.551-.868V43.77H72.8l.231-1.623-.231-.116Zm-.232,1.507-.464-.115ZM51.7,43.48a.832.832,0,0,1,0,.232l.133-.312Zm18.89-1.449v.812c.212.07.263.173.152.307l.2.1.058.407.174-.407-.116-.463h.067l-.067-.405-.231-.464ZM51.354,43.655h.232v-.233ZM65.918,43.6l.039-.116-.115-.116Zm-2.028-.027a.071.071,0,0,0-.019-.031Zm11.4-.007h0ZM70.825,39.83q.347.115.116.348l.464.81v.58l.347.464-.116.232.463,1.158.116-.463-.232-.464.116-.232a7.6,7.6,0,0,0-1.158-2.9ZM50.544,42.784l-.29.637.544-.814ZM75.461,43.248ZM75.229,42.2l.232,1.043-.231-1.212C75.2,42.065,75.2,42.123,75.229,42.2Zm-3.593.464.086.364c.006-.059.016-.124.03-.191l-.1-.275A.382.382,0,0,1,71.636,42.669ZM70.462,42.5l-.1.456.116-.464Zm-17.253-.472-.58.928.464-.116.231-.347c.065-.323.049-.483-.048-.483A.154.154,0,0,0,53.209,42.031Zm8.947.849a2.591,2.591,0,0,0-.893-.5A2.772,2.772,0,0,1,62.156,42.88Zm6.754-.141.525.1-.232-.117a.76.76,0,0,0-.147-.016A.323.323,0,0,0,68.91,42.738Zm-5.908.1-.812-.464c-.047,0-.093-.006-.137-.011Zm7.591-2.2.348.7.231,1.159.232.23v-.057l-.232-.231-.231-1.159-.331-.663ZM63.639,42.5l-.021-.016a.387.387,0,0,1-.388.164Q63.547,42.681,63.639,42.5Zm6.548.116.036-.022-.066-.067Zm-4.346,0h0ZM65.61,42.611Zm-13.524-.045.337-.276-.082-.027Zm19.2-.071c.164-.065.273-.076.326-.032l-.221-.6.127.463h-.232Zm-2.318-.116c.037.074.083.112.137.116-.043-.016-.087-.072-.132-.166Zm1.159.059.016.047.332-.221Zm-.941.041a.513.513,0,0,0,.131-.1H69.26A.319.319,0,0,1,69.188,42.478Zm-2.651-.041-.231-.581Zm-15.413-.059-.029.021a.073.073,0,0,0,.052-.081Zm14.185,0h0Zm10.327,0,.006-.058h-.026Zm-23-.058v.058l.347-.232c-.005-.017-.011-.032-.014-.048Zm-.255.055a.578.578,0,0,1,.139-.055l-.08-.026Zm20.768-.461.108.431.008-.025-.105-.42Zm-15.863.369-.072-.021-.014,0A.791.791,0,0,0,57.279,42.284Zm10.533-1.644-.464.7-.116.927.464-.232.231.116q.232-.463-.347-.347c-.154-.309-.077-.426.232-.347l.231.231c-.077-.231,0-.31.232-.231q.116-.464-.116-.348l-.232.117v-.349q.464.117.348-.115l-.232-.231Zm-2.27,1.607h0Zm-.378-.005,0-.005Zm-.018-.036.007.014-.007-.014-.232-.348Zm10.087-.171.244.122-.075-.124a.359.359,0,0,0-.1-.019A.09.09,0,0,0,75.233,42.034Zm-20.691.113.63-.157a1.341,1.341,0,0,0-.232-.024A.424.424,0,0,0,54.542,42.147Zm2.462,0q.111-.111-.145-.23A.6.6,0,0,0,57,42.145ZM60.51,42.089Zm-1.217-.058,1.217.058-1.317-.158Zm2.492,0a.4.4,0,0,0,.038-.159A.741.741,0,0,1,61.785,42.031Zm-2.956,0,.317-.106-.085-.01ZM56.373,42l.14.034.347-.116Zm-.73.006.058.028.232-.077-.116-.039Zm14.719-.03.01.026.106-.316-.01-.029Zm-19.136-.025.008-.021A.071.071,0,0,0,51.226,41.948Zm1.749-.031q.057-.061.235,0a.447.447,0,0,0-.151-.038A.088.088,0,0,0,52.974,41.917Zm7.594,0h.579l-1.572-.248Zm-7.359,0a.943.943,0,0,0,.137-.779A1.18,1.18,0,0,1,53.209,41.915Zm-1.966,0,.1-.037A.128.128,0,0,0,51.243,41.914ZM74.765,41.8h.116a.8.8,0,0,1-.232-.812q-.328-.108-.243.2l-.452-.544v-.23l.231.116v-.463c.077-.232.039-.311-.116-.232l-.347-.116.116.348v.23l-.463-.347-.58-.7q.232-.811-.116-.927l.063-.252-.126-.463q-.392-.139-.284-.677l-.348.7v.695l-.086.086.086-.029q.116.44-.231.29c.085-.208.027-.286-.174-.232l.058.175.174.29.29.173.638.754c.177-.055.235,0,.174.174l.811.927-.231.058-.023-.045c-.008.094.115.11.371.045l.58.58.116-.115Zm-12.333-.447.28.447-.232-.464Zm-.786.439.022.008.037-.017A.4.4,0,0,0,61.647,41.792Zm10.336-.8.464.58q-.116.232.231.116l.221-1.43-.047-.076-.347-.232-.058.174.347.695-.116.29c-.209.085-.285.028-.231-.174l-.232-.405c.209.084.286.026.232-.175l-.232-.116-.058.175-.059-.175.059-.173-.29-.175.086-.029-.086-.029-.116-.464-.58-.811-.695-.579.115.579.812,1.159a.588.588,0,0,0,.231.7c-.077.155.039.193.347.116Zm-11.241.464.632.237-.592-.277Zm6.026.231-.347-.637Zm-1.763-.008.024-.049-.116-.4Zm-13.419-.049h0a0,0,0,0,1,0,0ZM72.8,40.988l.116.58h.115q.2-.6-.113-.6A.5.5,0,0,0,72.8,40.988Zm.681.482a.3.3,0,0,1,.033.021l-.019-.039Zm-14.763-.018.122.03-.412-.319.127-.3-.127.064v.232Zm-6.78,0-.047.022c.055,0,.078-.041.069-.111Zm13.5,0,0,0c-.039-.008-.078-.045-.118-.112l-.27-.077Zm-4.471-.222,1.111.222.022-.008-1.123-.223Zm-9.2.106.347-.58-.347.347h-.116Zm18.6-.058.008.024.108-.431-.007-.031Zm-4.868-.232.085.167.031-.051-.044-.134Zm-.752.036.148.087-.091-.182A.9.9,0,0,0,64.742,41.082Zm-11.664-.009.015-.027h-.029Zm1.869-.027Zm0,0a.139.139,0,0,1,0-.015A.139.139,0,0,0,54.947,41.046Zm-.01-.032a.549.549,0,0,1-.028-.156A.549.549,0,0,0,54.937,41.014Zm10.788-.026-.071.018c.144,0,.167-.14.071-.424Zm.927-.174.047.139.069-.023V40.7a1.129,1.129,0,0,1-.009-.312Zm-13.676.058,0,.007.025-.036Zm16.105,0,0-.054a.332.332,0,0,1-.1-.089A.461.461,0,0,0,69.083,40.868Zm3.944-.343.372.278-.082-.164-.29-.173-.043-.073ZM53.9,40.467l-.174.29.256-.329A.632.632,0,0,1,53.9,40.467Zm-1.8.29.29-.058-.116-.116Zm3.008,0h0Zm-.087-.016h0Zm-1.834-.084.044.015-.029-.031Zm5.972-.01h0Zm11.627-.3.153.283-.121-.332Zm-12.144.28c0-.006,0-.013-.006-.018S58.646,40.615,58.649,40.622Zm-.007-.02Zm1.523-.105.056.029.637-.347Zm-.639.029.331-.084-.1-.032Zm-.9-.031q0-.114.144-.115C58.671,40.379,58.624,40.418,58.622,40.495Zm.726-.038c-.036-.122-.013-.183.072-.183C59.336,40.274,59.311,40.335,59.348,40.457Zm-.381,0,0,0Zm0-.008a.015.015,0,0,0,0-.006A.015.015,0,0,1,58.963,40.444Zm0-.007-.01-.02Zm-.014-.028c-.017-.005-.033-.009-.049-.013C58.913,40.4,58.929,40.4,58.946,40.409Zm-.17-.03h0Zm-5.1-.087.231-.114-.231-.116Zm5.848,0-.013,0Zm-.083-.017h0Zm-5.418-.155a.28.28,0,0,1,.112.1l-.112-.277c.23.1.308,0,.233-.284a.58.58,0,0,0,0,.284.408.408,0,0,0-.151-.038C54.009,39.908,53.982,39.978,54.02,40.119Zm1.274-.811.424.634.04-.055-.445-.721A.238.238,0,0,1,55.295,39.308Zm-1.158,0-.232.463.232.059a.456.456,0,0,1,.29-.58l.007.021.079-.169-.376-.14.347-.869-.706,1.626.126-.063.174-.521Zm-.62.36.022.084a.381.381,0,0,1,.019-.1Zm12.441.045-.115-.232C65.687,39.713,65.726,39.792,65.957,39.713Zm.116-.174.087.174.029-.059-.1-.255A.328.328,0,0,1,66.073,39.54Zm4.172.115.006.032a.713.713,0,0,0,.022-.189A.768.768,0,0,1,70.245,39.655Zm-1-.02a.753.753,0,0,1-.159-.038A.39.39,0,0,0,69.246,39.635Zm-14.98-.009.014-.03A.228.228,0,0,0,54.266,39.626ZM72.1,39.365l.059.232-.059-.289a2.333,2.333,0,0,1-.536-.518A2.955,2.955,0,0,0,72.1,39.365Zm-4.983.175L67,39.423Zm2.2-.058.016.037a.341.341,0,0,0-.007-.055Zm5.215-.231.231.115v-.057l-.231-.116-.044-.074Zm-8.692.115h0Zm-1.97-.115H64.1l-.231-.116Zm5.331-.58.219.547.013-.025-.221-.554Zm-6.4.437.028.027.927-.811-.017-.043Zm-7.505.027h0Zm-.175,0a.381.381,0,0,1,.1-.019l-.084-.021Zm12-.986.232.927-.2-1.2Zm-6.894.871,0,0,0,0S60.22,39.02,60.222,39.02Zm6.083,0q.231-.231,0-.347Zm3.94-.521-.347.464L69.91,39l.336-.448a2.332,2.332,0,0,0,0-.6Zm-15.526.175.46.289-.006.017q.092-.151-.284-.308a.354.354,0,0,0-.1-.02A.092.092,0,0,0,54.72,38.672Zm19.649.245-.009-.014q-.135.041-.184-.014C74.205,38.934,74.269,38.942,74.368,38.917ZM63.523,38.9l.232-.116-.116-.116Zm-9.156,0,.232-.116v-.348Zm11.526-.1.005-.016-.29-.174Zm.063-.364c-.076.232,0,.31.232.232.058-.174.029-.261-.087-.261A.492.492,0,0,0,65.957,38.438Zm2.723,0-.529.212.008.02.58-.232A.376.376,0,0,0,69,38.076.519.519,0,0,1,68.68,38.438Zm-12.343.175a.282.282,0,0,1,.032.02l.016-.049Zm-.535-.131.014.072.162-.054-.046-.062ZM72.8,38.323l.347.115-.347-.174Zm-.986.115.041-.014-.679-.566h-.025Zm-2.144-.232v.232h.347l-.231-.463Zm4.4-.23.218.434.014-.029-.232-.4h0ZM66,38.237l.017.086.1-.166Zm-.428.079.136-.046-.038-.065A.312.312,0,0,1,65.57,38.317Zm3.738-.019.011-.033-.109-.2Zm-8.227-.006a.3.3,0,0,0,.113-.074l-.047-.012A.317.317,0,0,1,61.081,38.291Zm6.441-.2.01-.051-.068-.047Zm-7.012,0h.29l-.207-.042Zm4.768-.021-.016-.038a1.86,1.86,0,0,1-.042-.386A.808.808,0,0,0,65.278,38.071Zm5.735-.058c-.062,0-.092-.042-.089-.116C70.893,37.981,70.922,38.021,71.013,38.012Zm-2.564-.037.035-.016-.231-.153Q68.18,38.047,68.449,37.976ZM73.606,37.976Zm0,0a.408.408,0,0,0,.038-.159A.712.712,0,0,1,73.606,37.976Zm-8.185-.19.014.073h.232l.156.094-.04-.094-.231-.116Zm-4.738.16.059-.029-.232-.058Zm9.554-.039a.775.775,0,0,0-.4-.6Zm-14.494-.014.014-.034c.109.036.185.036.229,0a.416.416,0,0,0-.149-.036A.084.084,0,0,0,55.745,37.893Zm16.9-1.063,1.543,1.029-1.507-1.042C72.666,36.82,72.654,36.825,72.642,36.83Zm-.953,1.013.063.015-.087-.086Zm-3.877.015.231-.058-.005-.017Zm-1.623-.347.232.058-.348.059H66.6l.4.23.116-.289-.347-.174a1.884,1.884,0,0,0-.429-.91l.2.1-.022-.069-.185-.094-.017.034a1.868,1.868,0,0,0-.412-.335l-.053.017-.178.446.115-.231.174.289-.208.1.324-.046.059.231.174-.058Zm-10.2.345c.057-.05.057-.166,0-.345Zm11.242-.286h.231l.109.271.007-.04-.231-.463Zm-.067.14.084.041-.074-.123Zm6.294.027.032.005c.013-.005.025-.012.037-.015A.3.3,0,0,0,73.458,37.737Zm-1.823-.051.016.047.331-.221-.015-.047Zm-8.113,0,.016.041a.3.3,0,0,0,.07-.109A.406.406,0,0,1,63.523,37.686Zm1.854-.116.03.145.086-.261-.071-.018Zm4.521-.522v.232l.58.348-.348-.348c.059-.174.029-.26-.086-.26A.481.481,0,0,0,69.9,37.048Zm-1.1.464-.086.029.029.088.231-.117.039.088q0-.1-.107-.1A.419.419,0,0,0,68.8,37.511Zm3.651-.115.152.152-.148-.54A.6.6,0,0,0,72.448,37.4Zm-11.911.141q-.078-.117-.394-.036l.021.01a1.058,1.058,0,0,1,.2-.023A.253.253,0,0,1,60.536,37.537Zm-3.785,0h0Zm8.486-.02a.176.176,0,0,1,.074-.108l-.049-.012C65.252,37.436,65.244,37.477,65.237,37.516Zm5.8-.024.015.02.178-.088,0-.027Zm-11.574-.328.425.212-.4-.257Zm9.156.116.029.087.068-.473Zm-5.215.058.024.011.092-.185-.017-.023Zm3.478-.29L67,37.28c.059-.174.051-.26-.022-.26A.225.225,0,0,0,66.885,37.048Zm-3.651-1.275,1.275,1.275.695.232-.695-.232-1.275-1.275L61.5,35.077l-.927.464-.116-.347-.347.462-.045-.022c.075.064.148.013.219-.151l.174-.289.116.347.927-.464Zm2.692,1.171.148.221v-.116l-.139-.139Zm1.538-.823-.115.347,1.043.58h.231l-.116-.347.224.112.008-.053-.347-.175a.954.954,0,0,1-.024-.116h-.092v-.7l-.232-.116v-.114l-.347-.233L67,34.73V34.5l-.231-.231Zm-7.88.7.347.231-.231-.463Zm.464.173.014.033.219-.438-.011-.037Zm12.433-.032.087-.086A.332.332,0,0,0,72.479,36.958Zm-13.012-.6.108.537.008-.017-.106-.532Zm5.8.463.2-.029A1.07,1.07,0,0,0,65.262,36.816Zm4-.116.146.087-.087-.087-.145-.145Zm2.839,0h.116l-.232-.232Zm-8.923-.058.01.014a.639.639,0,0,0,.018-.173A.709.709,0,0,1,63.176,36.642Zm11.473,0,0,0s0,0,0-.007S74.65,36.641,74.649,36.642Zm-21.5-.058,1.275-.116.174-.174L54.426,36l-.353.071.294.045q.151.382-.4.232l-.29.115q.15-.347-.29-.231h-.232l-.347.116-.406-.174L52.571,36l.055-.014q-.413-.082-.229.362l.406.115c.049-.08.1-.122.145-.122C53.016,36.347,53.083,36.427,53.151,36.584Zm6.548-.347q-.116.347.347.231l.116-.231-.116-.116Zm11.067.231.042-.005q-.327-.112-.1-.226l-.013-.051C70.54,36.284,70.563,36.378,70.767,36.468ZM66.4,36.284l.093.162-.069-.209Zm7.9.069h0s0-.005-.005-.007Zm-12.546-.917.957.337.231.581-.231-.581-.927-.347Zm12.519.833a.422.422,0,0,1,.026-.145A.142.142,0,0,0,74.275,36.269Zm-7.1-.032.058-.406-.006-.009Zm-3.709-.812.927.812h.232l.287-.192L64.856,36l-.464.232a2.593,2.593,0,0,0-1.555-1.048ZM58.54,35.6l-.231.464.4.174.232-.464.116.116L59,35.02l.812-1.044.115-.695.522-.522q.3.082.174-.231l-.58.29c.062.177,0,.236-.174.174l-.29.115-.347.523v.29l-.348.057q.441.209.058.406l-.058-.231h-.231c.085-.209.027-.285-.174-.231l.058.173.116.464a.815.815,0,0,0-.232.869l-.347-.058.347.058.058-.347Zm15.763.522.383.11a.277.277,0,0,1-.1-.11.718.718,0,0,0-.18-.029A.171.171,0,0,0,74.3,36.121Zm-5.7-.084.219.171-.2-.2Zm6.275.026a.689.689,0,0,1-.055.1c.073-.058.078-.115.015-.17Zm-8.866.058a.313.313,0,0,0,.13.023l-.014-.023-.191-.1A.29.29,0,0,1,66.015,36.121Zm-5.814,0q.011-.311.309-.236l-.116-.347-.046.022.162.324a.426.426,0,0,0-.137-.027C60.254,35.861,60.2,35.948,60.2,36.124Zm6.451,0h.087l-.087-.174-.139-.175ZM66.305,36l.231.116-.115-.348Zm-.407,0h.009L65.9,36Zm8.114,0h.637l-.807-.085Zm.637,0,.041-.166-.041-.059Zm-3.128,0-.928-.232ZM64.8,35.656h.231c-.077.232,0,.311.232.232l-.116-.347-.463-.347-1.043-.928-.116-.347-.811-.7H62.48l-.231-.347-.232-.116-.464.116-.116-.231-.58.347q-.463-.116-.347.231l.116.232.464-.232.463.232c.155-.076.194,0,.116.232l.347.232h.464q.348-.117.232.347l.463.115.347.58c.232-.078.31,0,.232.232h.464v.23a.536.536,0,0,1,.166-.029A.5.5,0,0,1,64.8,35.656Zm4.52.232h.231l-.231-.116Zm-2.782-.521.406.521.26-.1-.376-.59c-.108.038-.171.029-.188-.029Zm-.811.521h.231l-.185-.046Zm-5.8-.116-.016.021.191.1.2-.3Zm-.695.116.693-.319-.056-.027Zm6.721-.347.348.23-.232-.464Zm-8.286.23.014-.058h-.043ZM71.4,35.715l.013.033.1-.206-.023-.016Zm-4.884-.2.132.2.009.031q.068-.233-.1-.233A.3.3,0,0,0,66.52,35.516Zm7.781.14h.263l-.027-.039Zm-1.8-.114.811.114-.811-.114a1.286,1.286,0,0,0-.887-.556Zm-2.9.114h0Zm-11.9-.048.017-.067h.231a.417.417,0,0,0-.151-.04C57.745,35.5,57.713,35.538,57.712,35.609Zm-.446-.184.231-.116-.231-.114ZM74.2,35.4h0Zm-3.083-.087.162.07-.1-.07c-.119-.238-.216-.316-.289-.231a.1.1,0,0,1,.028-.005C70.98,35.072,71.047,35.152,71.115,35.309Zm-4.792-.087.1.146v-.173C66.384,35.205,66.352,35.215,66.323,35.222ZM64.161,34.5l.464.115,1.1.754a.324.324,0,0,0-.29-.29l-.574-.344.69.344.058-.522-.464-.289.116.289-.232.058c.086-.208.027-.285-.174-.231l.116-.231.29-.059-.753-.67v.032l.753.637-.869.175-.347-.232Q63.639,34.267,64.161,34.5Zm1.565.464.417.347-.364-.454Zm-5.9.347.1-.058a.567.567,0,0,1-.049-.034ZM74.245,35.2v0h0Zm-.291,0s0,0,0,0a.016.016,0,0,1-.005-.008ZM70,34.865l.766.329c0-.007.008-.014.013-.021l-.766-.328Zm-12.735.1.347.232q.116-.464.347-.118a.047.047,0,0,1,.016-.009l.332-.221q.115-.464-.116-.348l-.464.232H57.5a.492.492,0,0,0-.145-.03Q57.178,34.7,57.266,34.962Zm16.672.181a.284.284,0,0,1,.017-.123l-.232-.522ZM66.189,34.9l.347.232.059-.174.041.124c0-.019.009-.042.016-.067l-.753-.986-.628-.338c.042.05.039.143-.009.28l.464.291.116.464a.68.68,0,0,1,.234-.059C66.193,34.672,66.231,34.75,66.189,34.9Zm-3.778.2c-.09-.012-.181-.021-.275-.029C62.181,35.123,62.273,35.132,62.411,35.106Zm-.8-.26-.621.206.041.025,1.1-.231a.216.216,0,0,0-.179-.062A1.277,1.277,0,0,0,61.612,34.846Zm-2.492.231h.347v-.231Zm3.014,0a.247.247,0,0,0,0-.23C62.09,34.955,62.091,35.033,62.134,35.076Zm6.258-.113h.115l-.231-.232Zm-8.055,0-.231-.116Zm5.464-.15.1.034.145.086-.2-.2Zm5.453-.045h0ZM67.58,34.73H67.7a.455.455,0,0,0-.464-.348Zm-6.606,0L61.9,34.5l-.579-.231v-.232Zm12.19-.317.1.142.107.123a1.812,1.812,0,0,1-.107-.3A.65.65,0,0,1,73.163,34.413Zm-13,.2.231-.115q.116-.463-.231-.347c.077.231.039.31-.116.231Zm10.083-.347.116.231c.058-.173.05-.26-.022-.26A.232.232,0,0,0,70.245,34.267Zm-9.619.173Zm0,0a.7.7,0,0,1-.029-.183A.7.7,0,0,0,60.626,34.439Zm8.692-.4.58.232q.463.115.231-.347l-.58-.116Zm4.23.116-.464-.231Zm-12.691,0-.01,0Zm-.014-.005h0Zm12.468-.014h0Zm-12.585-.014h0Zm7.549-.372-.174.29.239-.319Zm-.661.22.023.07.185-.093-.07-.022Zm4.961.066h0ZM72.719,34h0ZM58.54,33.571l.232.348L59,33.8l.463-.581v-.231a.8.8,0,0,1-.811.231Zm6.953.232c.31.077.425.038.348-.116l-.348-.232Zm7.07,0h-.291l-.231-.232A.393.393,0,0,0,72.564,33.8ZM72.564,33.8Zm-4.578,0-.116-.348Zm-5.157-.928h.231l.116.463a1.1,1.1,0,0,1,.927.464l.232-.116c-.077-.386-.348-.542-.812-.464l.116-.347-.464-.116v-.231Zm-4.636.812v-.348h-.58q-.232.464.347.348Q58.077,33.918,58.193,33.687Zm12.086.081-.091-.081-.851-.154Zm-2.742-.038.088-.017-.1-.026Zm-2.564-.043a.5.5,0,0,1,.226-.031l-.052-.027L65,33.165H64.8C64.745,33.458,64.8,33.633,64.972,33.687Zm3.849-.191.152-.031-.061-.011Zm1.626-.089c.03.015.058.031.087.048h.231l.319.029-.435-.145Zm-5.186-.185.115.232c.059-.174.051-.26-.022-.26A.229.229,0,0,0,65.262,33.223Zm-.753.137c.082.027.138.023.166-.009a.208.208,0,0,1-.166-.012Zm-.2-.31.145.289-.115-.347Zm-.086.173.149.075-.13-.114Zm4.694,0a3.761,3.761,0,0,1,.9,0,1.878,1.878,0,0,0-.4-.039A3.3,3.3,0,0,0,68.913,33.223ZM64.683,32.934Zm-.116-.347.116.347-.1-.382Zm.58-.058.347.231c-.076.155,0,.194.232.116-.155-.155-.116-.27.116-.347q-.116-.347-.232-.115l-.464-.116Zm.811-.231v.231l.232.116c.062-.247.024-.371-.112-.371A.4.4,0,0,0,65.957,32.3Zm-2.085.347v-.116l-.58-.348-.116.233.347.115c.032-.061.068-.092.112-.092C63.7,32.436,63.778,32.5,63.872,32.644Zm-3.014,0,.232-.116-.116-.115Zm-.695-.464-.347.117.115.231.464-.115q.088-.262-.086-.262A.517.517,0,0,0,60.163,32.18Zm4.056-.347.116.464.231-.348.58.116.231-.463c.155.076.193-.039.116-.347l-.695-.116Zm-.284.282a.507.507,0,0,1,.051.065V31.6s0-.008,0-.013Zm-2.382-.167.232.058-.174.058.347.115-.29-.405.174-.174c.116.271.232.309.347.116h.161l-.1-.463c-.209-.086-.286-.027-.232.174l.058.174-.232-.116Zm-.463.231h.29l.232-.115-.232-.116c-.085.136-.173.159-.262.068A.4.4,0,0,1,61.09,32.18Zm2.7-.175a.839.839,0,0,0-.729-.056,1.9,1.9,0,0,1,.319-.029A.884.884,0,0,1,63.789,32Zm-8.494-.867h.464v.174c.076-.348.019-.56-.175-.638l.116.232h-.231a.419.419,0,0,0-.106-.017C55.25,30.889,55.227,30.972,55.295,31.137Zm.028.173h0ZM90.174,62.177c-.21-.139-.428-.27-.65-.392a27.492,27.492,0,0,0,0-23.453c.221-.122.439-.253.65-.392.094-.062.189-.127.282-.193.265.55.516,1.113.743,1.674.342.843.646,1.715.905,2.589s.474,1.759.647,2.649.3,1.791.388,2.69.13,1.808.13,2.709-.044,1.813-.13,2.71-.217,1.8-.388,2.689-.39,1.781-.647,2.65-.563,1.745-.905,2.589c-.228.561-.478,1.124-.743,1.674C90.364,62.3,90.27,62.24,90.174,62.177ZM38.8,60.7c-.342-.844-.647-1.715-.905-2.589s-.475-1.759-.647-2.65-.3-1.79-.388-2.689-.13-1.809-.13-2.71.043-1.813.13-2.709.216-1.8.388-2.69.39-1.781.647-2.649.563-1.746.905-2.589c.228-.562.478-1.125.743-1.674.091.065.186.13.282.193.21.139.428.271.65.392a27.485,27.485,0,0,0,0,23.453c-.221.121-.44.253-.65.392-.095.062-.189.127-.282.194C39.28,61.82,39.03,61.257,38.8,60.7Zm34.815-5.834c0,.01-.006.022-.011.033l-.019.006ZM58.366,47.595l-1.391-.7h-.869v-.289l.521-.522.463-.116.29.116.406.7.869.638c.043.14.008.211-.1.211A.647.647,0,0,1,58.366,47.595Zm10.256-3.419v-.464q-.5-.22-.29-.637l.347.463.175-.058-.116.7.116.289.231.059-.174.058Zm12.749.289v-.115l.232.115ZM66.537,43.712Zm14.719-.637.116-.116.347.231-.695.116Q80.908,42.959,81.255,43.075Zm-29.9-1.69-.005.01,0,0Zm23.058-.164-.012-.038.128.153ZM58.424,41.162Zm21.557-.985.116-.348c-.155-.155-.116-.27.115-.348l.116.348-.116.58Zm-.58-1.16.347.116-.347.231Zm1.043-.464.7-.463q.231-.116.115.231l-.464.115v.232Zm-5.409-.721a.163.163,0,0,1,.1.042Zm-.212-.091.212.091a.635.635,0,0,0-.212.025ZM40.278,36.336c.347-.623.72-1.239,1.112-1.832a28.335,28.335,0,0,1,1.681-2.288c.607-.743,1.259-1.465,1.94-2.147s1.4-1.334,2.147-1.94a28.336,28.336,0,0,1,2.288-1.681c.592-.392,1.209-.765,1.832-1.111a7.844,7.844,0,0,1,.6.917A27.26,27.26,0,0,0,41.2,36.933,7.892,7.892,0,0,1,40.278,36.336Zm43.943-5.5a27.156,27.156,0,0,0-6.095-4.586,7.775,7.775,0,0,1,.6-.917c.623.346,1.239.72,1.831,1.111a28.337,28.337,0,0,1,2.288,1.681c.743.607,1.465,1.259,2.146,1.94a28.769,28.769,0,0,1,1.94,2.147A28.349,28.349,0,0,1,88.612,34.5c.391.592.765,1.209,1.111,1.832a7.919,7.919,0,0,1-.917.6A27.151,27.151,0,0,0,84.221,30.839ZM73.665,36.816l-.406-.116a.27.27,0,0,0,.027-.2l.553.377Zm-.439-.361a.081.081,0,0,1,.06.04Zm-6.92.013.006-.013.028.031Zm-10.082-.057h0Zm4.287-.522Zm-9.445-.347.7-.812a.944.944,0,0,0,.869-.522l.29-.4-.174.289.174.29.231-.347q.267.093.174-.174c.093-.208.19-.228.29-.058.232.053.29-.061.175-.348l-.232-.058.811-.347c-.169-.094-.15-.19.059-.291q.672-.2.521.232l-.29-.116-.174.406v.174H53.9v.175c.178.1.158.2-.058.29-.286-.078-.382,0-.29.231h-.464c.116.293.058.409-.174.347l-.406.232v.232a.6.6,0,0,0-.258-.058l.374-.292v-.231l-1.159.813.116.23.569-.442a.312.312,0,0,0,.011.153l-1.275.752C50.775,35.6,50.833,35.479,51.065,35.542Zm1.191-.637-.1.078A.1.1,0,0,1,52.255,34.9Zm12.6-.175-.29-.175.3.178ZM65.262,34.092Zm-2.55-2.665-.113-.4.113.049.116.347Zm-.223-.444c.032.01.068.023.107.038l0,.01Zm-9.215-5.449c-.122-.221-.254-.44-.392-.65-.062-.094-.127-.189-.193-.282.55-.265,1.113-.516,1.674-.743.843-.342,1.715-.647,2.589-.905s1.76-.475,2.649-.647,1.791-.3,2.69-.388S64.1,21.79,65,21.79s1.813.043,2.71.13,1.8.216,2.689.388,1.781.39,2.65.647,1.745.563,2.589.905c.562.228,1.125.478,1.674.743-.066.092-.131.186-.194.282-.139.21-.27.428-.391.65A27.485,27.485,0,0,0,53.274,25.535ZM102.16,19.46c-.978-1.185-2.03-2.342-3.124-3.437s-2.264-2.157-3.459-3.141c-1.178-.971-2.416-1.894-3.678-2.745a9.628,9.628,0,0,1,1.074-1.6c1.243.84,2.462,1.746,3.623,2.692a50.886,50.886,0,0,1,7.238,7.239c.948,1.161,1.853,2.38,2.693,3.622a9.6,9.6,0,0,1-1.6,1.073C104.067,21.89,103.138,20.645,102.16,19.46ZM23.475,22.086c.84-1.243,1.745-2.462,2.692-3.622a50.954,50.954,0,0,1,7.239-7.239c1.161-.947,2.38-1.852,3.622-2.692a9.6,9.6,0,0,1,1.073,1.6c-1.269.856-2.514,1.786-3.7,2.763s-2.343,2.03-3.437,3.124-2.146,2.251-3.124,3.437-1.907,2.43-2.763,3.7A9.6,9.6,0,0,1,23.475,22.086Zm51.967-19c-1.285-.283-2.6-.517-3.906-.695s-2.628-.3-3.942-.373-2.643-.087-3.956-.05S61,2.1,59.689,2.238A47.977,47.977,0,0,0,39.726,9.087c-.147-.266-.306-.529-.473-.782-.185-.281-.387-.559-.6-.824,1-.62,2.033-1.21,3.067-1.754,1.44-.757,2.935-1.45,4.442-2.062s3.037-1.145,4.585-1.6,3.116-.84,4.692-1.145S58.612.381,60.2.229,63.4,0,65,0s3.211.076,4.8.229,3.193.383,4.763.688,3.155.69,4.691,1.145,3.091,1,4.586,1.6,3,1.3,4.442,2.062c1.035.544,2.066,1.134,3.066,1.754-.212.266-.412.543-.6.824-.166.253-.326.517-.472.783A47.8,47.8,0,0,0,75.442,3.084ZM25.376,8.321A1.519,1.519,0,0,1,25.064,7.3a3.512,3.512,0,0,1,.064-.633l.28-1.6a2.374,2.374,0,0,1,2.624-2.145q1.928,0,1.928,1.577a3.186,3.186,0,0,1-.056.568l-.28,1.6a2.655,2.655,0,0,1-.833,1.649,2.726,2.726,0,0,1-1.8.535A2.035,2.035,0,0,1,25.376,8.321ZM26.839,5.1,26.568,6.64a2.6,2.6,0,0,0-.032.416q0,.56.672.56a.944.944,0,0,0,.64-.208,1.293,1.293,0,0,0,.337-.768L28.456,5.1a1.92,1.92,0,0,0,.023-.288.576.576,0,0,0-.655-.648A.967.967,0,0,0,26.839,5.1Zm-6.712,3.3a1.239,1.239,0,0,1-.344-.928,2.709,2.709,0,0,1,.049-.488l.023-.128H21.3l-.016.1a.81.81,0,0,0-.015.144q0,.552.8.553t.8-.5a.5.5,0,0,0-.273-.432,2.635,2.635,0,0,0-.66-.28c-.258-.075-.517-.162-.776-.26a1.626,1.626,0,0,1-.661-.464,1.167,1.167,0,0,1-.272-.787q0-2.009,2.584-2.009a2.393,2.393,0,0,1,1.428.356,1.16,1.16,0,0,1,.484.988,1.6,1.6,0,0,1-.06.444.978.978,0,0,1-.124.3l-.064.1H23.048a.644.644,0,0,0,.175-.464q0-.521-.679-.52-.856,0-.856.544a.483.483,0,0,0,.272.432,2.363,2.363,0,0,0,.66.252,7.876,7.876,0,0,1,.78.229,1.518,1.518,0,0,1,.664.452,1.215,1.215,0,0,1,.272.82,1.821,1.821,0,0,1-.608,1.507,2.943,2.943,0,0,1-1.872.492A2.51,2.51,0,0,1,20.127,8.408ZM4.447,7.457A2.426,2.426,0,0,1,4.5,6.992L4.6,6.4h1.44l-.048.265a2.543,2.543,0,0,0-.032.408.55.55,0,0,0,.1.344.636.636,0,0,0,.527.2.873.873,0,0,0,.6-.2,1.263,1.263,0,0,0,.324-.736l.656-3.7H9.6L8.928,6.792a2.471,2.471,0,0,1-.8,1.564,2.716,2.716,0,0,1-1.752.5Q4.447,8.856,4.447,7.457ZM17.16,8.744l1.016-5.76h1.44l-1.008,5.76Zm-2.577,0L13.575,5.592l-.544,3.153H11.583L12.6,2.984h1.488l.993,2.944L15.6,2.984h1.44l-1.008,5.76ZM.36,8.744.3,2.984H1.863l-.024,4.36h.185l1.52-4.36H5.1L2.919,8.744Z" transform="translate(7.2 7.5)"/></g></svg>