<svg xmlns="http://www.w3.org/2000/svg" xmlns:xlink="http://www.w3.org/1999/xlink" width="16.895" height="40" viewBox="0 0 16.895 40"><defs><style>.a{fill:url(#a);}</style><linearGradient id="a" x1="0.5" x2="0.5" y2="1" gradientUnits="objectBoundingBox"><stop offset="0" stop-color="#fc0303"/><stop offset="1" stop-color="#018b2a"/></linearGradient></defs><path class="a" d="M.374,27.548c.5-2.311,1.587-3.923,1.851-5.07.687-2.982-.18-2.342-.553-3.944-.507-2.18.69-6.261.69-6.261S.842,10.8,1.812,9.828a1.457,1.457,0,0,0,0-2.027S.062,4.909.475,3.6,3.09,0,3.09,0,1.555,2.588,1.673,3.828A10.3,10.3,0,0,0,3.347,7.222S4.017,8.5,4.43,8.234a.681.681,0,0,0,.257-.759L4.43,7.358S3.9,7.32,4.155,6.573s.139-1.455.806-1.889S6.655,4.961,6.614,5a2.213,2.213,0,0,1-.3,2.034c-.729.749-.118,1.2-.118,1.2s1.83.283,1.83.325a4.5,4.5,0,0,1,1.889,2.42,5.547,5.547,0,0,1,.315,2.164s0,.021,0,.058l.1-.025A4.155,4.155,0,0,1,15.364,16.2l.4,1.61-1.007.252,1.007-.251,1,4.028a4.151,4.151,0,0,1-8.056,2.009l-1-4.028-.4-1.611a4.158,4.158,0,0,1,2.12-4.691A5.307,5.307,0,0,0,8.916,11.3,4.534,4.534,0,0,0,6.791,9.828s.532,2.647-.589,3.887a3.713,3.713,0,0,0-.966,2.677,6.572,6.572,0,0,0,1.222,3.185c1.022,1.15,0,2.668,0,2.668S3.94,24.369,4.333,26.06s.726,2.9-1.379,7.24A5.131,5.131,0,0,0,4.333,40S-1.511,36.266.374,27.548Zm7.841-10,.5,2.014,6.042-1.507-.5-2.013a3.118,3.118,0,0,0-3.775-2.268q-.127.032-.248.073c-.022.826-.137,1.9-.649.374l-.018-.055A3.118,3.118,0,0,0,8.215,17.553ZM6.6,5.016Zm0,0h0ZM6.6,5.009l.005,0Z" transform="translate(0)"/></svg>