<svg xmlns="http://www.w3.org/2000/svg" xmlns:xlink="http://www.w3.org/1999/xlink" width="84.999" height="84.999" viewBox="0 0 84.999 84.999"><defs><linearGradient id="a" x1="0.821" y1="0.696" x2="0.5" y2="1" gradientUnits="objectBoundingBox"><stop offset="0" stop-color="#922529"/><stop offset="1" stop-color="#008c51"/></linearGradient><filter id="b" x="0" y="0" width="84.999" height="84.999" filterUnits="userSpaceOnUse"><feOffset dy="1" input="SourceAlpha"/><feGaussianBlur stdDeviation="1" result="c"/><feFlood/><feComposite operator="in" in2="c"/><feComposite in="SourceGraphic"/></filter></defs><g transform="matrix(1, 0, 0, 1, 0, 0)" filter="url(#b)"><path d="M24.625,76.4A39.638,39.638,0,1,1,40,79.5,39.381,39.381,0,0,1,24.625,76.4ZM6.5,40A35.5,35.5,0,1,0,42,4.5,35.541,35.541,0,0,0,6.5,40ZM43.16,46.2a3.05,3.05,0,0,1-1.68-.48,3.815,3.815,0,0,1-1.35-1.46,4.733,4.733,0,0,1-.53-2.32,5.086,5.086,0,0,1,.36-1.89,5.381,5.381,0,0,1,1.02-1.64,4.959,4.959,0,0,1,1.561-1.16,4.525,4.525,0,0,1,1.98-.43,4.268,4.268,0,0,1,1.43.2,2.632,2.632,0,0,1,.889.51,3.692,3.692,0,0,1,.551.626l.29-.9h2.6L49.22,46h-2.8l.127-1.1-.027.025a5.077,5.077,0,0,1-.69.53,4.865,4.865,0,0,1-1.12.53A4.345,4.345,0,0,1,43.3,46.2Zm.72-6.86a2.369,2.369,0,0,0-.79.62,2.477,2.477,0,0,0-.45.81,2.672,2.672,0,0,0-.14.83,2.642,2.642,0,0,0,.28,1.25,1.994,1.994,0,0,0,.79.82,2.324,2.324,0,0,0,1.17.29,2.035,2.035,0,0,0,.77-.149,2.6,2.6,0,0,0,.71-.44,2.863,2.863,0,0,0,.6-.73l.26-2.14a1.637,1.637,0,0,0-.38-.75,1.878,1.878,0,0,0-.7-.481,2.861,2.861,0,0,0-2.119.07ZM63.48,46l1.08-8.74h2.8L66.28,46ZM57.8,46l1.08-8.74h2.8L60.6,46Zm-5.68,0,1.92-15.78h2.8L54.92,46Zm-19.5,0,.8-6.6H32.06l.26-2.18h1.36l.46-3.8h2.8l-.46,3.8H38.6l-.26,2.18H36.22l-.8,6.6ZM25.54,46l.863-7.018L20.76,45.8h-.04l-3.832-6.4L16.08,46h-2.8L15.16,30.68h.021l6.173,10.592L30.28,30.68h.041L28.44,46Zm39.7-10.81a1.07,1.07,0,0,1-.5-1.01,1.468,1.468,0,0,1,.44-1.08,1.569,1.569,0,0,1,1.16-.44,1.976,1.976,0,0,1,1,.29,1.069,1.069,0,0,1,.5,1.01,1.477,1.477,0,0,1-.44,1.07,1.548,1.548,0,0,1-1.16.45A1.976,1.976,0,0,1,65.24,35.19Zm-5.68,0a1.069,1.069,0,0,1-.5-1.01,1.468,1.468,0,0,1,.44-1.08,1.569,1.569,0,0,1,1.16-.44,1.976,1.976,0,0,1,1,.29,1.07,1.07,0,0,1,.5,1.01,1.477,1.477,0,0,1-.44,1.07,1.548,1.548,0,0,1-1.16.45A1.976,1.976,0,0,1,59.56,35.19Z" transform="translate(2.5 1.5)" fill="url(#a)"/></g></svg>