<svg version="1" xmlns="http://www.w3.org/2000/svg" width="933.333" height="933.333" viewBox="0 0 700.000000 700.000000"><path d="M234.5 26.8c1.7 1.9 16.4 16.8 32.8 33.3C283.6 76.6 297 90.3 297 90.5c0 .2-1.2.5-2.6.7-2.3.3-7-4.1-34.8-31.9C242 41.5 226.8 27 226 27.1c-.8 0-4.1 1.3-7.3 2.7l-5.8 2.7 19.3 19.4c10.6 10.7 19.2 19.8 19 20.2-.1.5.2.8.6.7.5-.2 6.1 4.9 12.5 11.3 11.3 11.2 11.6 11.6 9.4 12.6-2.2 1-3.8-.3-23.5-20-11.6-11.7-25.8-25.9-31.5-31.6l-10.5-10.4-5.9 3c-3.2 1.6-5.8 3.5-5.8 4.1 0 .7 13.4 14.7 29.9 31.1 27.6 27.7 29.7 30 27.7 31-1.9 1.1-4.8-1.5-32.6-29.4C204.7 57.7 190.6 44 190.2 44c-.4 0-2.7 1.4-5.1 3-2.4 1.7-4.8 3-5.3 3-.4 0-.8.4-.8 1 0 .5 13.3 14.3 29.5 30.6 28.5 28.7 30.7 31.3 25.8 31.4-1.3 0-21.3-20-21.3-21.2 0-.5-.4-.8-.9-.8s-8.9-8.1-18.8-18c-9.8-9.9-18.1-18-18.4-18-.3 0-1.5 2.4-2.7 5.2-1.1 2.9-2.3 6-2.6 6.9-.5 1.1 6.5 8.7 24.9 27.1 23.3 23.3 28.3 29.1 23.9 27.4-.8-.3-1.2-.2-.9.4.3.6.2 1-.3 1-.6 0-4.3-3.4-8.3-7.6-13.1-13.5-40.9-40.9-41.9-41.2-.5-.2-2.3 2.5-4 5.9l-3.2 6.2 7.9 7.9c4.3 4.4 14.4 14.5 22.5 22.6 14.2 14.1 14.7 14.7 12.5 15.8-2 1.2-2.7.8-7.9-4.4-3.1-3.1-5.4-6-5.2-6.4.3-.5.1-.7-.4-.6-.5.2-7.8-6.6-16.2-15-8.4-8.3-15.6-15.2-15.9-15.2-.4 0-2.4 2.5-4.4 5.5l-3.7 5.6 14.8 14.9c8.2 8.2 14.7 15.2 14.4 15.5-.3.3-.1.5.5.5s3.3 2.2 6.1 4.9c4.7 4.7 4.9 5.1 3.2 6.6-1.6 1.4-3.1.1-21.9-18.6l-20.2-20.1-4.4 4.8c-2.5 2.7-4.4 5.2-4.5 5.5 0 .3 8.5 9.1 19 19.7 10.5 10.5 19 19.6 19 20.2 0 .6-.7 1.3-1.6 1.7-1.9.7-11.6-8.5-10.7-10.1.3-.6.2-.7-.2-.3-.5.4-7.3-5.6-15.1-13.4l-14.2-14.2-5.1 4.3c-2.8 2.4-5 4.7-4.9 5.2.2.4 9 9.5 19.6 20.2 10.5 10.6 19.2 19.8 19.2 20.4 0 .5-.6 1.4-1.3 2-1 .9-2.9-.5-8.3-6-3.8-4-6.8-7.6-6.6-8.1.1-.4-.1-.6-.6-.3s-4-2.7-7.9-6.7c-3.9-4-9.7-9.8-12.9-12.9l-5.9-5.8-5.8 4.1-5.8 4.1 19.3 19.4c10.6 10.7 19.5 19.9 19.6 20.4.2.6 1 1 1.7 1 1.8 0 2.7 2.8 1.5 5-.9 1.7-3.7-.7-23.5-20.5-12.4-12.4-22.7-22.5-23-22.5-.2 0-3.2 1.5-6.5 3.3l-6 3.4 24.9 25.1c22.4 22.7 24.7 25.3 23.5 26.9-1.2 1.6-3.6-.5-26.8-23.7-15.6-15.5-26.3-25.4-27.3-25.4-3.1.3-12.8 4.2-12.5 5.1.1.4 6.8 7.4 14.7 15.4 8 8 14.2 14.9 13.8 15.4-.5.4-.3.6.2.2.6-.3 7.4 5.8 15.1 13.6 12.9 12.9 14 14.4 13.1 16.5-1 2.1-1.6 1.7-12.3-9-6.2-6.1-11-11.6-10.7-12.1.3-.6.2-.7-.4-.4-1.3.8-9.6-7.7-8.6-8.8.5-.4.3-.5-.3-.2-.7.4-2.7-1-4.7-3.1-1.9-2-7.9-8.1-13.5-13.6l-10-9.8-3.7 6.3-3.6 6.2L77.5 191c9.1 9.1 16.2 17 15.8 17.5-.4.4-.3.5.3.2s7 5.4 14.2 12.7c10.8 10.8 13 13.6 12.5 15.4-.3 1.2-.8 2.2-1 2.2-.3 0-14-13.5-30.5-30.1-16.5-16.5-30.1-29.9-30.3-29.7-.1.2-1.7 3.1-3.4 6.5L52 192l26 26.1c14.3 14.4 25.7 26.6 25.3 27.2-.3.5-.2.7.4.4.6-.4 3.1 1.4 5.6 3.9 4.1 4 4.5 4.8 3.6 6.8-1 2.2-2.9.5-32-28.7L50 196.6l-3 6.8c-1.7 3.8-3 7-2.8 7.2.2.2 14.5 14.6 31.8 32.1 28.7 29 31.5 32 31 34.6-.5 2.7-.7 2.5-9.8-6.6-5.1-5.1-8.9-9.7-8.5-10.2.5-.4.3-.5-.3-.2-1.4.8-7.7-5.6-6.7-6.8.5-.4.3-.5-.3-.2-1.4.8-7.7-5.6-6.7-6.8.5-.4.3-.5-.3-.2s-8-6.4-16.4-14.9c-9.6-9.6-15.8-15-16.3-14.5-.6.6 1.2 3.4 4.7 7.5 3.5 4 5.5 7 5 7.7-.4.7-.3.9.3.6 1.6-1 9.6 11 17.2 25.5 2.3 4.5 5.4 9.5 6.7 10.9 1.3 1.4 2.1 2.9 1.7 3.4-.5.4-.3.6.2.2.6-.3 6.6 5 13.3 11.7 9.5 9.5 12.2 12.9 12.2 14.9 0 1.5-.3 2.7-.8 2.7-.4 0-6-5.4-12.5-11.9-6.4-6.6-11.7-11.6-11.7-11.3 0 .4.5 2.3 1.1 4.2.5 1.9 1.2 4.2 1.4 5 .3.8 1.2 4.9 2.1 9 1.6 7.5 1.7 7.7 10 16 6.5 6.5 8.4 9.1 8.4 11.2 0 1.6-.2 2.8-.5 2.8s-3.7-3.2-7.5-7c-3.9-3.9-7-6.7-7.1-6.3-.1.4 0 2.6.1 4.8.2 2.2.3 6.6.4 9.7.2 5.7.2 5.8 7.3 12.7 5.5 5.4 7.1 7.7 7.6 10.7l.6 3.7-4.1-3.9c-2.2-2.1-5.6-5.5-7.4-7.4-1.8-1.9-3.4-3.3-3.7-3-.3.3-.8 3.9-1.1 7.9-.4 4.1-.9 7.8-1.1 8.2-.3.3 4.2 5.3 9.9 11 8.7 8.7 10.5 11.1 11.1 14.4l.7 4L95.7 376c-5.8-5.7-11-10.6-11.6-10.8-.6-.2-1.3.9-1.6 2.5-.3 1.5-1.2 4.9-1.9 7.5l-1.4 4.6L97 397.6c15.3 15.3 17.9 18.4 19.3 22.7l1.6 5-12.2-12.3c-6.7-6.8-12.1-12.7-11.9-13.2.1-.5-.1-.7-.6-.4-.4.2-3.9-2.7-7.6-6.5-3.8-3.8-7.2-6.9-7.5-6.9-.3 0-1.8 3-3.2 6.7l-2.7 6.8 10.2 10.2c5.7 5.7 10.1 10.3 9.9 10.3-.2 0 1.6 1.7 3.9 3.8 2.4 2 4.6 4.1 4.9 4.6.4.4 9.9 10.2 21.3 21.6 11.3 11.5 20.6 21.5 20.6 22.4 0 .9.3 1.6.8 1.6.4 0 1.8 1.7 3.2 3.8 1.4 2 2.7 3.9 3 4.2.3.3 2.1 2.5 3.9 5 1.9 2.5-2.2-1.1-9-8s-12.3-12.8-12.1-13.2c.1-.5-.1-.7-.6-.5-.4.1-14.3-13.4-30.9-30.1-16.6-16.6-30.6-30.2-31-30.2-.4 0-2.2 2.7-4 6l-3.2 6L96 450.1c18.2 18.2 33 33.5 33 34s.5.9 1.1.9c1.7 0 11 10.1 10.3 11.2-.4.6-.2.8.3.5 1.2-.7 21.4 18.9 20.5 19.8-.3.3-.1.5.5.5 1.7 0 6.3 5.2 5.6 6.3-.3.5-.1.7.4.4 1.3-.8 13.9 12 13.5 13.6-.2.7 0 .9.4.4 1.1-1 33.4 31.4 32.7 32.7-.4.6-.2.7.2.3.5-.4 12 10.3 25.5 23.7l24.5 24.6 6.3-3.3c3.4-1.7 6.2-3.5 6.2-3.8 0-.4-5.1-5.8-11.4-12-6.3-6.2-11.2-11.8-10.9-12.3.3-.5.2-.7-.3-.3-.5.3-15.1-13.7-32.4-31.1-17.3-17.3-29.5-30-27-28.1 2.5 1.9 4.7 3.7 5 4 .3.3 3.4 2.5 7 4.9 4 2.7 19.5 17.3 40.9 38.6 27.3 27.4 34.7 34.2 36 33.5.9-.5 2.1-1 2.6-1.1.6-.1 2.5-.8 4.4-1.6 1.8-.8 3.7-1.4 4.2-1.4 1.3 0 1.1-1.8-.3-2.7-.7-.4-3.4-3.1-6-5.9-2.6-2.9-4.9-5-5.1-4.8-.2.2-1-.7-1.7-2.1-.7-1.4-1.7-2.5-2.1-2.5-.4 0-2-1.4-3.6-3.1-1.5-1.7-3.6-3.9-4.7-4.8-4.2-3.7-14.5-14.5-14.1-14.9.9-.9 11.5 5.1 12 6.9.4 1 .9 1.8 1.3 1.6 1-.3 20.2 19.2 20.2 20.5 0 .6.3.9.6.5.3-.3 2.6 1.6 5.2 4.2l4.6 4.7 7.5-1.9c4.2-1 7.7-2 7.9-2.2.2-.2-4.7-5.4-10.8-11.5-11.2-11.2-11.2-11.3-7.3-10.6 3.1.6 5.7 2.7 14.3 11.2 5.9 5.8 10.8 10.3 11 10 .3-.2 4.1-.7 8.5-1.1 4.4-.4 8.1-.8 8.3-1 .1-.1-2.9-3.3-6.8-7.1-3.8-3.8-7-7.2-7-7.5 0-.3 1.5-.3 3.3-.1 2.2.3 4.9 2.2 8.8 6.1 8.5 8.5 8.3 8.4 16.7 8.8 4.2.2 9 .5 10.6.7 2.7.4 2.4-.1-4.2-6.7-4-4-7.2-7.6-7.2-8 0-.4 1-.5 2.3-.3 1.2.3 2.5.5 2.9.5 1.1.1 15.8 14.8 15.2 15.3-.2.3.2.5.8.6 4.6.4 9.5 1.6 10.6 2.4.6.6 1.2.8 1.2.5 0-.3 3.1.3 7 1.4 3.8 1 7.2 1.9 7.5 1.9.3 0-4.9-5.4-11.5-12s-11.7-12-11.3-12.1c.4 0 1.7-.2 2.9-.4 1.6-.3 5.5 3.1 16.8 14.4 8.1 8.2 16.1 15.5 17.7 16.1 1.6.7 2.6 1.7 2.2 2.3-.3.6-.1.7.6.3 2.6-1.6 26.7 13.8 38.8 24.9 3.5 3.1 7 5.5 7.9 5.3 1.1-.2-5.8-7.7-20.4-22.3-12.1-12-21.8-22.4-21.5-22.9.3-.5.2-.6-.4-.3-1.3.8-6.6-4.7-5.6-5.8.5-.4.3-.5-.3-.2-1.4.8-4.7-2.6-3.7-3.8.5-.4.3-.6-.2-.2-.6.3-3.7-2.1-6.9-5.3l-5.9-5.9 2.7-.7c2.5-.6 4 .6 17.1 13.8 8 8 14.1 14.9 13.7 15.2-.4.4-.2.6.4.4 1.5-.4 16 14.1 15.6 15.6-.2.6 0 .8.4.4s5.4 4 11.2 9.7c6.6 6.5 10.9 10.2 11.6 9.6.6-.4 3.7-1.8 6.9-3.1l5.8-2.3-11.4-11.3c-6.3-6.3-11.3-11.4-11.2-11.4 0 0-4.4-4.6-9.9-10.3-5.6-5.6-10.4-10.1-10.7-10-.3.1-1.2-.9-1.9-2.2-.7-1.4-1.6-2.5-2-2.5-.7 0-3.3-2.4-6.7-6.1-1.2-1.3-4-4.2-6.2-6.4l-4.1-4 2.5-.8c2.3-.8 4.9 1.6 34.2 31l31.8 31.9 6.8-3.4c6.5-3.3 6.7-3.5 4.7-4.9-1.1-.8-1.8-1.9-1.4-2.4.3-.5.2-.8-.3-.7-.4.2-13.8-12.7-29.6-28.5-26.6-26.6-28.7-29-27-30.2 1.6-1.3 2.6-.6 10 6.7 4.5 4.5 7.9 8.6 7.6 9.1-.3.6-.2.7.4.4.5-.3 6.4 4.9 13.1 11.6 6.6 6.7 16.8 16.9 22.6 22.7l10.6 10.5 4.7-2.5c4.9-2.6 7.8-4.8 7.2-5.5-.2-.2-13.8-13.9-30.2-30.4-27.8-27.9-29.7-30-27.7-31.1 1.9-1 3-.2 11.5 8.1 5.1 5.1 9.1 9.7 8.9 10.1-.3.4.1.8.8.8 1.6 0 27.4 25.9 27 27.2-.1.5.1.7.6.5.4-.3 3.2 1.9 6.1 4.9 3 3 5.7 5.1 6.1 4.7.4-.4 1.8-3.6 3-7.1l2.3-6.3-10.6-10.6c-5.9-5.8-10.4-11-10-11.6.3-.6.2-.7-.4-.4-.5.3-7.6-6.1-15.9-14.4-8.5-8.5-14.2-14.9-13.2-14.9.9 0 1.8-.6 2.1-1.3.2-.6 11.3 9.7 25 23.5 13.6 13.7 24.8 24.8 25.1 24.8.4 0 6.6-11.6 6.6-12.4 0-.3-9.8-10.4-21.9-22.5-20.1-20.3-21.7-22.2-20.1-23.6 1.5-1.4 3-.2 17.6 14.5 8.8 8.8 15.9 16.2 15.7 16.4-.2.1.8.9 2.2 1.6 1.3.7 2.7 2 3 2.9.3.9 1.9 2.6 3.5 3.8l2.8 2.3 3.4-4.8c1.9-2.6 3.7-5.2 4.1-5.8.3-.6-7.9-9.7-19.3-21.1-18.6-18.6-19.8-20-18.1-21.5 1.6-1.4 3.1-.1 21.1 17.9 10.6 10.6 19.7 19.3 20.1 19.3 1.3 0 8.6-9.5 8.6-11.2 0-.9-.3-1.5-.7-1.3-.9.6-16.2-15-15.5-15.8.3-.4.2-.5-.2-.2s-5.3-4-11-9.7c-9.5-9.5-10.1-10.3-8.7-12 1.5-1.6 2.9-.5 20.6 17.2 10.4 10.5 19.3 19 19.6 19 .4 0 2.9-2 5.6-4.4l4.9-4.4-19.1-19.3c-10.6-10.6-19.2-19.7-19.2-20.3.1-4.8 2.5-2.9 21.8 16.4l20 20.1 5-3.3c2.8-1.8 5.3-3.8 5.6-4.5.2-.6-9-10.6-20.5-22.2-19.2-19.3-20.8-21.2-19.7-23.1 1.2-1.9 1.8-1.5 10 6.7 4.8 4.8 8.4 9.1 8.1 9.6-.3.6-.2.7.3.4.6-.3 6.8 5.2 13.8 12.4 7.1 7.1 13.3 12.9 13.8 12.9.6 0 2.2-.9 3.8-2 1.5-1.1 3.9-2.4 5.4-3 1.4-.5 2.6-1.3 2.6-1.8s-9.6-10.5-21.4-22.2c-18.1-18-21.3-21.7-20.3-23 1-1.3 1-1.3-.4-.3-1.3 1.1-2 .9-3.8-1.1-2-2.1-2.1-2.7-1-4.5 1.3-1.9 2.8-.6 26.8 23.5l25.4 25.6 3.6-1.7c2-.9 4.7-1.9 6.1-2.2 1.4-.2 2.9-.8 3.4-1.3 1-1-29.6-33-31.6-33-.4 0-1-.9-1.3-2-.3-1.1-1.2-2-2-2-.7 0-1.5-.5-1.7-1-.2-.6-4.7-5.5-10.2-10.9-8.8-8.9-9.7-10.1-8.7-12 1.1-2 2.1-1.2 15.6 12.5 8 8 14.2 15 13.9 15.6-.4.7-.2.8.4.4.6-.4 7.7 6 16.6 15l15.4 15.6 2.5-3.9c2.8-4.5 4.7-8 4.7-8.7 0-.3-14-14.5-31-31.6-28-28.1-30.9-31.3-29.9-33.2 1-1.9 1.6-1.5 9.1 5.8 11.7 11.6 11.8 11.7 11.8 13.1 0 .8.4 1.2.8.9 1.2-.7 32.4 30.9 31.5 31.9-.5.4-.3.5.3.2.7-.4 2.5.8 4.1 2.6 5.6 6.3 5.8 6.3 8.7 1.1 4.4-7.9 4.4-8.2-2.3-14.9-3.3-3.3-5.7-6.4-5.4-6.9.3-.5.2-.6-.3-.3s-12.4-10.9-26.3-24.8c-23.2-23.3-25.3-25.6-24.7-28.1.7-2.5 2.5-.8 32.9 29.5l32.2 32.2 3.2-6.8 3.2-6.8-7.2-7.2c-57.4-57.4-60.7-60.9-58.1-63.6.4-.3 15.5 14.2 33.6 32.3 18.1 18.2 33.1 33 33.4 33 1.3 0 0-3.1-2.4-5.6-11.1-11.7-20-24.2-28.2-39.7-4.6-8.8-6.7-11.5-19.1-24-11.6-11.7-13.9-14.5-13.9-17 0-3 0-3 2.2-1.1 1.1 1 6.5 6.4 12 11.8l9.8 10-1.6-5.5c-.9-3-2.5-8.9-3.4-13.2-1.9-8.3-2.2-8.8-11.2-17.8-4.7-4.7-5.8-6.4-5.8-9.1v-3.2l7 6.9 7 6.9-.6-10.7-.6-10.8-6.4-6.2c-5.2-5.1-6.4-6.9-6.7-10l-.4-3.9 6.5 6.6c3.6 3.6 6.9 6.6 7.3 6.6.4 0 .7-1 .6-2.3 0-1.2.3-5.1.6-8.7l.8-6.5-9.5-9.4c-5.2-5.2-9.7-10.6-10.1-12-.3-1.4-.9-3.5-1.2-4.5-.3-1.1 4.5 3.1 10.6 9.2C608 295 613 299.5 613 299c0-.6.4-.8 1-.5.5.3.7 0 .4-.8-.3-.8.2-4.3 1.1-7.7l1.6-6.2-12.1-12c-6.9-6.8-11.8-12.4-11.4-13 .4-.7.3-.8-.4-.4-1.7 1-10.4-8.8-12.4-14.1-.9-2.6-1.6-4.8-1.5-4.9.5-.4 8.4 8.5 7.9 9-.3.3.2.6 1.1.6.8 0 1.9.9 2.2 2 .3 1.1 1.1 2 1.6 2 1.2 0 6.9 5.8 6.9 7 0 .6.4 1 .9 1s4.9 4.1 9.9 9l9 9.1 1.6-4.1c.9-2.2 1.6-4.7 1.6-5.5 0-.8.4-1.5.9-1.5 4.1 0-1.2-6.1-32.9-37.9-19-19-36.6-37.5-39.1-41.1-4.4-6.3-5.6-7.9-12.9-16.4-2.7-3.2-2.9-3.6-.6-1.6 7.3 6.5 28.1 28.3 27.8 29.2-.1.5.1.7.6.4.5-.3 11 9.7 23.5 22.2 12.4 12.5 25.9 26 30 30l7.3 7.3 2.2-4.3c1.3-2.4 2.9-5.2 3.7-6.4 1.4-1.9.3-3.2-23.5-26.9-13.7-13.7-24.7-25.2-24.4-25.7.3-.5.2-.7-.3-.6-1.3.4-8.3-6.4-7.7-7.4.3-.5.1-.7-.3-.6-1.4.4-7.3-5.4-6.6-6.5.3-.6.2-.7-.3-.4-1.3.7-21.7-19.7-20.7-20.7.5-.4.3-.6-.3-.4-1.4.4-16.4-14.3-15.8-15.4.3-.5.1-.7-.4-.6-.6.2-22.5-21.2-48.7-47.5-26.2-26.3-48-47.7-48.3-47.5-3.8 1.7-11.2 6.3-11.2 7 0 .4 19.6 20.5 43.6 44.6 49.1 49.3 49.5 49.7 39.9 41.8-3.8-3.2-7.9-6.6-9-7.5-1.1-.9-3.6-2.7-5.5-4.1-5.1-3.6-7.9-6.2-21-19.2-6.5-6.4-11.5-12-11.2-12.3.3-.3 0-.5-.7-.5-1.8 0-8.2-7-7.4-8.2.3-.6.2-.8-.4-.5-.5.3-8.3-6.7-17.3-15.7-16.2-16.2-16.4-16.3-19.4-15.3-1.7.6-4.2 1.6-5.6 2.4-1.4.7-3.1 1.3-3.8 1.3-.8 0-1.2.4-1 1 .2.5 7.1 7.8 15.3 16.2 8.3 8.3 14.9 15.5 14.7 16-.1.5.1.7.6.4.5-.3 2.4 1 4.2 2.9 1.9 1.9 2.9 3.5 2.3 3.5-3.7 0-10.6-4.6-17.5-11.6-4.2-4.4-11.7-11.9-16.6-16.8l-9-8.9-6.4 1.7c-3.5.9-6.9 1.9-7.7 2.2-1 .3 1.9 3.9 9 11.1 7.7 7.8 9.7 10.4 7.9 9.9-1.4-.3-3.1-.6-3.8-.6-.7 0-5.6-4.3-10.9-9.5l-9.7-9.5-5 .6c-2.8.4-5.8.8-6.6 1-.8.1-2.5.3-3.8.3-2 .1-1.4 1 4.3 6.6L373 86h-3.3c-2.8 0-4.5-1.1-9.9-6.4l-6.4-6.4-9.3-.1c-5.1 0-9.8-.4-10.4-.7-.7-.4 1.7 2.3 5.1 5.8l6.4 6.5-2.8.6c-2.5.4-3.8-.5-10.4-6.9-4.5-4.3-8.5-7.4-9.7-7.4-1.1 0-6.5-1.1-11.9-2.5S300.3 66 300 66c-.2 0 4.2 4.7 10 10.5L320.5 87h-3.4c-3.1 0-4.8-1.4-15.9-12.6-10.8-10.9-13.4-13-19.9-15.9-9.7-4.5-22.3-12.2-31.5-19.2-4-3.1-7.5-5.9-7.8-6.2-.3-.3-2.8-2.6-5.5-5.1-3.2-2.9-3.9-3.3-2-1.2zm107.1 88l4.5 4.7-.2-3.5c-.3-7.2-.3-7.1 4.3-6.8l4.3.3.3 14.3.4 14.3-4.4-.3c-2.9-.2-4.3-.8-4.4-1.8-.1-.8-.2-2.2-.3-3.1 0-.8-1.7-3.3-3.7-5.4l-3.5-3.9.2 6.6c.1 3.6-.1 7-.4 7.5-.4.6-2.3 1-4.4.9l-3.7-.1-.3-14.2c-.4-13-.3-14.2 1.4-14.6 3.1-.8 5.2.3 9.9 5.1zm38.9-3.3c1.1.2 2.3.4 2.6.4.5.1.5 2.9 0 6.3-.1.4-1.3.8-2.8 1-2 .2-2.9.9-3 2.3-.5 5.9-.8 7.5-1.6 7.5-.4 0-.3.9.3 2s1.4 1.9 1.8 1.9c2.5-.4 3.2.4 3.2 3.6s-.8 4-3.4 3.6c-.4-.1-3.8-.4-7.5-.7-8.9-.7-9.1-.8-8.8-4.6.2-2.8.7-3.4 3-3.6 1.5-.2 2.7-.8 2.7-1.3s.1-1.2.2-1.7c.1-.4.5-2.8.8-5.4.6-4.5.5-4.7-2.1-5.3-2.3-.5-2.7-1.1-2.4-3.3.2-1.5.4-3.1.4-3.5.1-.8 11.3-.2 16.6.8zm-72.6 3.2c.5 1 .9 2.1.9 2.6 0 .4.3 2.4.8 4.5.4 2 .8 4 .8 4.4.1.3.4 1 .8 1.4.4.4.2 1.4-.5 2.2-.9 1.2-.9 1.4 0 .9 2-1.3 2.8 5.9 1 8.7-2.9 4.4-15.2 7.1-19.1 4.3-1.5-1.1-5.1-11.5-4.3-12.3.2-.2 2.1-.6 4.4-1 4-.6 4-.6 4.7 3 .7 3.8 1.5 4.2 4.5 2.6 1.8-.9 1.8-1.2.1-7.2-.9-3.5-2-8-2.4-10-.6-3.6-.5-3.8 2.6-4.7 4.6-1.3 4.6-1.3 5.7.6zm95.8 1.4c1.5.6 3.9 1.3 5.3 1.6 3.4.6 3.9 1.3 2.9 4.9-1 3.4-.7 3.4-10.1.9-2.2-.5-2.8-.4-2.8.8 0 .9 1.3 1.8 3 2.2 1.7.4 2.8 1.1 2.5 1.6-.4.5 0 .6.8.3 1.6-.6 6 4.3 5.1 5.7-.3.5-.8 2.2-1 3.7-.3 1.5-1.2 3.8-2 5-1.4 2.1-2.2 2.3-6.7 1.9-2.9-.2-7.3-1-9.9-1.8-5.1-1.4-6.2-3.7-3.5-7.1 1.1-1.5 1.6-1.5 5.2-.3 8.4 3 11.1.8 3.4-2.6-5.9-2.7-7.2-5.1-5.8-10.6 1.8-6.6 6.7-8.9 13.6-6.2zm-123.4 11.7c2.1 5.2 2.7 8.5 2.7 14.5 0 5.5-.4 7.7-1.2 7.7-.7.1-3.1.9-5.3 2-2.2 1.1-4.6 1.9-5.3 2-2.6 0-11.7-10.8-13.9-16.7-2.8-7.2-2.8-8.3-.4-8.3 1.1 0 2.3-.5 2.6-1 1.3-2.1 3.7-.9 5.2 2.7.9 2.1 1.6 4.4 1.6 5 0 .7.3 1.3.6 1.3.4 0 1.7 1.8 3 3.9 1.4 2.1 3 3.7 3.6 3.5 1.4-.6.8-9.3-.7-11.2-.6-.6-.8-1.2-.4-1.2.3 0-.3-1.5-1.3-3.3-2-3.7-1.7-5.7.9-5.7 1 0 2.2-.5 2.5-1 1.5-2.4 3.4-.5 5.8 5.8zm157.4-.3c4.3 2.6 6.7 6 5.5 8-.4.5-.7 1.4-.7 2-.1 1.2-1 3.3-4.6 11.2-1.8 4.2-3.4 6.3-4.6 6.4-8.6.5-18.5-4.1-19.4-9.1-.5-2.7 1.2-8.1 2.3-7.4.6.4.8.2.5-.4-.8-1.2 2.7-9.9 5.1-12.6 2.3-2.5 9.9-1.6 15.9 1.9zm-65.7 40c1.4.3 4.3.8 6.5 1.1 5.8.9 22 5.2 26.3 7 2 .9 4.4 1.7 5.3 1.9 6 1.2 36.9 18.6 36.9 20.7 0 .5.7.8 1.5.8.9 0 1.8.7 2.1 1.5.4.8 1.1 1.5 1.8 1.5.6 0 1.8.8 2.7 1.7.8 1 4.1 4 7.2 6.6 3.3 2.9 5.4 5.4 5 6-.3.7-.2.9.2.4 1.8-1.6 17.1 17.4 24.8 30.5 5.5 9.4 10.3 19.2 12.2 24.8.1.3.7 1.8 1.4 3.5.7 1.6 1.4 3.4 1.5 4 .2.5.6 1.7.9 2.5 1.3 3.2 3.7 12.4 4.7 17.8.5 3.2 1.2 6.6 1.4 7.8.9 4.5 1.9 18.3 1.9 25.4 0 26-5.6 50.2-17.1 73.9-21.1 43.6-59.7 75.1-108.2 88.4-3 .9-7.2 1.8-9.4 2.1-2.1.4-4.1.8-4.5 1-2.9 1.7-33.3 2.7-43.6 1.5-14.9-1.8-17-2.1-17.6-2.5-.4-.2-2.4-.6-4.5-1-2.2-.3-8.6-2.1-14.4-4.1-35.7-11.7-67.7-36.2-87.5-66.8-7.1-10.9-11.5-19.3-15.8-30-3.5-8.9-8.1-24.8-9.1-31.5-.3-1.9-.8-4.5-1-5.8-2.3-11.2-2.2-43.7.1-47.5.3-.5.6-3.2.8-6.2.1-2.9.5-5.7.8-6.2.3-.5.8-2.1 1.1-3.6.2-1.4 1.7-6.6 3.2-11.4 1.5-4.8 2.8-9 2.8-9.3.1-.3.6-1.2 1.1-2 .5-.8 1-2.1 1.1-2.8.6-3.5 9.6-20.1 16.6-30.6 10.1-14.9 32.9-38 35.3-35.8.5.4.5.2.2-.4-.7-1.2 10.6-9.7 12.9-9.7.7 0 1.1-.3.9-.7-.2-.4.8-1.3 2.3-2.1 1.5-.8 5.4-2.9 8.7-4.8 3.3-1.8 6.5-3.4 7-3.6.6-.1 2.8-1 5-2 2.2-.9 4.5-1.8 5-1.9.6-.1 1.5-.5 2.1-.8.5-.4 4.2-1.8 8.2-3.1 5.2-1.7 7.4-2.1 8.3-1.3.9.8 1 .8.6 0-.8-1.3.5-1.6 16.8-4.4 8.6-1.4 14.8-1.8 28-1.5 9.4.2 18.1.6 19.5 1zm-209.6 149c7.8 0 13.1.4 13.3 1 .2.8-9.6 6.7-18.4 10.9-1.3.6-2.3 1.6-2.3 2.2 0 .6 2.9 8.8 6.4 18.2 3.5 9.4 6.1 17.4 5.8 17.7-1.1 1-1.9.4-5-3.8-1.7-2.3-4.1-5.4-5.4-6.9-8.9-10.3-12-14.6-11.3-15.9.6-.8.4-1-.5-.4-.8.5-1.8.2-2.5-.9-1.2-1.6-4.9 2.3-19.5 20.8-4.4 5.6-6.9 8-7.5 7.4-.4-.4-.4-1.5 0-2.5.5-1 .9-2 1-2.3 2-6.6 3-9 3.8-9 .6 0 .8-.3.4-.6-.6-.6 5-17.1 7.3-21.5.7-1.3.9-2.1.5-1.7-.7.6-6-1.7-7.5-3.2-.3-.3-3.7-2.1-7.6-4-4-1.9-7-3.9-6.7-4.6.2-.7 4.5-1 12.9-1 6.9.1 12.9-.1 13.3-.4.4-.3 1.2-1.9 1.8-3.5.6-1.7 2.4-6.3 3.9-10.4l2.7-7.4 4.1 10.9 4.1 10.9h12.9zm396-18.1c.3 1.3 1.9 5.9 3.6 10.2l3 7.9 13-.1c8.6 0 13.1.3 13.4 1.1.2.6-2.2 2.4-5.3 4-3.1 1.6-7.9 4.2-10.8 5.8l-5.2 2.8 2.5 7.2c1.4 4 3.4 9.2 4.5 11.6 1.1 2.4 1.8 4.5 1.5 4.8-.2.3.4 2.1 1.4 4.1 2.5 4.9 3.5 9.2 2.2 9.2-.6 0-1.7-.8-2.4-1.8s-3-3.9-5-6.3c-2.1-2.4-6.9-8.4-10.9-13.2-7.1-8.8-7.1-8.8-8.7-6.5-.9 1.3-1.8 2.5-2.2 2.8-.3.3-2.8 3.2-5.5 6.5-2.8 3.3-5.2 6.2-5.5 6.5-.3.3-2.5 3.1-4.9 6.2-7.3 9.6-8 6.8-2-7.7.7-1.7 1.3-3.3 1.4-3.8.2-.4.3-.8.5-1 .1-.1.3-.9.5-1.7.7-3 5.7-15.5 6.8-16.8.6-.7.6-1.2.1-1-1.7.5-22.5-10.5-22.1-11.6.2-.7 4.8-1.2 12.3-1.3 6.5 0 12.4-.2 13-.2 1.2-.1 3.2-4.5 6.5-14.3 2.4-6.9 3.2-7.5 4.3-3.4zm-70.6 182.1c-3.9 3.5-4.5 4.5-3.4 5.4.9.8 1.6.8 2 .2.4-.6 1.9-1.9 3.5-3l2.8-2 2.1 2.4 2.2 2.5-3.5 3.3c-3.4 3.2-3.7 4.7-.8 4.7.7 0 3-1.6 5-3.5 3.5-3.3 6.1-4.1 5.6-1.6-.2.6.2 1 .9.8 2.7-.5 1.8 3.4-1.4 6.2-1.8 1.6-5 4.5-7.1 6.5-2.3 2.1-4.4 3.3-5 2.9-.7-.4-3-2.7-5.2-5.2-2.2-2.4-5.3-5.8-7-7.6-7.4-7.7-7.2-6.9-2.5-11.1 2.3-2.1 5.8-5.3 7.7-7l3.5-3.3 2.7 2.5 2.6 2.5-4.7 4.4zM215 476.2c1.7 1.2 3 2.5 3 3 0 .4-1.6 2.5-3.5 4.7-3.3 3.6-3.4 3.9-1.5 4.4 1.1.3 2 .2 2-.2 0-.7 6.9-4.1 8.3-4.1 1 0 5.7 4.3 5.7 5.2 0 .4-1.9 1.7-4.3 2.8-3.9 1.9-4.3 2.3-4 5.3.3 2.7-.4 4.1-4.5 8.7l-4.9 5.5-3.4-3.3-3.3-3.2 3.2-3.3c3.4-3.5 3.5-5.4.2-7.4-1.6-1.1-2.3-.7-5.1 2.7-2.5 3-3.6 3.7-4.6 2.9-.7-.6-1-1.5-.7-2 .3-.5-.1-.6-.9-.3s-2-.2-2.7-1c-1-1.3-.7-2.2 2.1-5.3 1.8-2.1 3.7-3.7 4.1-3.5.4.1.7-.2.6-.7-.3-.8 9.9-13.1 10.8-13.1.3 0 1.8 1 3.4 2.2zm256 18.2c0 1.2-7 6.2-8.2 5.8-1.2-.3-1 2.6.3 3.4.6.3 2.4-.3 4-1.5 3.6-2.7 4.3-2.6 6.3.3 1.5 2.4 1.4 2.5-2.2 5.5-2.9 2.3-3.4 3.2-2.5 4.2.9.9 2.1.5 5.4-2 5-3.6 5.7-3.7 7.5-1.4 2.1 2.7 1.6 4.6-1.4 6.4-1.5.9-5.1 3.4-8 5.4-5.1 3.7-5.3 3.8-7 1.9-2.1-2.3-11.2-15.3-11.2-16 0-.3-.9-1.5-2-2.6-1.9-2.1-2-2.3-.3-3.9 1-.9 4.9-3.8 8.8-6.3l7-4.8 1.7 2.2c1 1.2 1.8 2.7 1.8 3.4zm-225.7 5.2c3.1 2 5.5 3.9 5.3 4.2-.2.4-.7 2.5-1 4.7-1.1 6.9-2.5 11.1-4.6 13.8-1.1 1.4-2 2.9-2 3.5 0 1.5-3.8 4.4-5 3.7-.5-.3-.8-1.1-.5-1.6.3-.5 0-.7-.7-.4-.7.3-1.9.1-2.7-.4-1.5-.9-1.2-2 1.6-7.1.2-.3-1.1-1.4-2.9-2.4-1.9-1.2-3.3-1.5-3.5-.9-.2.6-1 1.8-1.7 2.8-1.2 1.6-1.5 1.6-4.4.1-1.7-.9-3.3-1.9-3.5-2.3-1.1-1.7 8-13.5 13.3-17.3 3-2.2 5.7-4 6-4 .3 0 3.1 1.6 6.3 3.6zm200.7 7.3c1.5 2.9 1.3 5.4-.5 4.7-.8-.3-1.5-.1-1.5.4s-1.6 1.7-3.6 2.6c-5.2 2.5-2.9 4.1 3 2.1 3.4-1.2 4.6-1.3 4.6-.4s.2.9.8 0c.5-.9 1.1-.9 2.3 0 2.3 1.7 4.1 5.5 3.3 6.9-.4.6-.3.8.4.4 1.7-1 2 2.7.4 5.6-1.3 2.3-15.7 10.7-16.6 9.7-.9-1-2.6-4.9-2.6-5.8 0-.5 2.5-2.1 5.5-3.5 5.4-2.5 7.7-5.5 3.3-4.2-1.3.3-4.2.9-6.6 1.3-3.6.5-4.5.2-6.3-1.8-2.4-2.7-3.9-6.2-3.9-8.8 0-2.6 3.9-6.4 5.8-5.6.9.3 1.3.3.9-.2-.8-.7 6.8-5.2 9-5.3.7 0 1.7.9 2.3 1.9zm-181 3.6c1.7.9 3 2.2 3 3.1 0 .8-.4 1.2-1 .9-.5-.3-.7 0-.4.8.3.8-.1 2.1-.8 2.8-.7.8-1.4 2.1-1.6 2.9-.2.8-1.2 3.4-2.3 5.8-2 4.2-2 4.4-.2 5.8 2.7 2 3.3 1.7 4.9-2.1.8-1.9 1.6-3.5 1.8-3.5 1.5 0 3.5 1.3 3.1 2-.3.5.3.6 1.4.3 1-.3 2.2 0 2.5.5.7 1.1-5.1 14.2-6.2 14.1-.4 0-5-1.9-10.2-4.3-11.3-5.1-11-3.3-3.5-20.1 1.2-2.8 2.7-6.2 3.3-7.8 1.3-3.1 2.2-3.3 6.2-1.2zm153.8 10c6.3 7 12.6 20.5 10.5 22.6-.5.5-2.6 1.2-4.6 1.6-3.2.5-3.7.3-3.7-1.3 0-3.7-1.3-4.5-4.9-3.2-2.7 1.1-3.1 1.6-2.6 3.8 1.1 4.3 1.1 4.5-1.2 4.4-1.2 0-2 .3-1.7.8.3.4-.2.8-1 .8-.9 0-1.9 0-2.3.1-2.6.2-6.1-21.5-4.3-26.6.7-2.1 8.5-5.5 11.7-5.1 1.3.1 3.1 1.1 4.1 2.1zm-120.3 2.2c5.3.9 6.3 2.3 6.9 9.8.5 7.5-1.8 20-3.9 20.8-.6.3-2.6-.1-4.4-.9-3-1.3-3.2-1.6-2.5-4.9.5-2.6.3-3.5-.7-3.5-.8 0-2.4-.3-3.6-.6-1.7-.5-2.2 0-2.8 2.6-.7 3-.9 3.2-4.3 2.7-1.9-.4-3.9-1-4.3-1.4-1.2-1.3 3.2-13.5 6.8-19.1 3.8-5.7 6-7.4 8.3-6.6.8.3 2.9.8 4.5 1.1zm92.9 5.6c-1.1 4.8-1 8.2.3 8 2.5-.5 3.9 3.2 5 13.2.3 2.7.3 4.7-.1 4.4-.4-.4-2.2-.3-4.1.1-3.8.8-3.8.8-5-6.3-.5-3.4-.8-3.7-3.3-3.1-4.5 1.1-4.4.6-2.6 8.6.6 3 .8 2.9-6 3.2-2.2.1-3-.4-3.1-1.9-.5-4.2-1.7-12.2-2.9-18.7-1-5.3-1-6.8-.1-7.2.7-.2 1.8.1 2.5.7.9.8 1.1.9.7.1-.9-1.5 3.5-2.7 4.4-1.2.4.6 1 3.1 1.4 5.5.5 3.8 2.3 6 2.6 3.3.1-.6.2-1.3.4-1.8.1-.4.5-2.4 1-4.5.8-4 2.2-5.1 7.1-5.5 2.4-.2 2.5 0 1.8 3.1z"/><path d="M334 113.9c0 .5.7 1.2 1.6 1.5 1.4.5 1.5.4.4-.9-1.4-1.7-2-1.9-2-.6zM350.2 116c0 1.4.2 1.9.5 1.2.2-.6.2-1.8 0-2.5-.3-.6-.5-.1-.5 1.3zM339.5 119c1 1.1 2 2 2.3 2 .3 0-.3-.9-1.3-2s-2-2-2.3-2c-.3 0 .3.9 1.3 2zM347.6 127.3c.3 1 .9 1.5 1.2 1.2.3-.3 0-1.1-.7-1.8-1-.9-1.1-.8-.5.6zM334.2 131c0 1.4.2 1.9.5 1.2.2-.6.2-1.8 0-2.5-.3-.6-.5-.1-.5 1.3zM350.2 131c0 1.4.2 1.9.5 1.2.2-.6.2-1.8 0-2.5-.3-.6-.5-.1-.5 1.3zM373 115.1c0 .5.5.7 1 .4.6-.3 1-.8 1-1.1 0-.2-.4-.4-1-.4-.5 0-1 .5-1 1.1zM305.6 127.3c.3 1 .9 1.5 1.2 1.2.3-.3 0-1.1-.7-1.8-1-.9-1.1-.8-.5.6zM307.2 132c0 1.4.2 1.9.5 1.2.2-.6.2-1.8 0-2.5-.3-.6-.5-.1-.5 1.3zM294 139c.6 1.1 1.3 2 1.6 2 .2 0 0-.9-.6-2s-1.3-2-1.6-2c-.2 0 0 .9.6 2zM399.7 119.1c.7.7 1.5 1 1.8.7.3-.3-.2-.9-1.2-1.2-1.4-.6-1.5-.5-.6.5zM403 120c0 .6.7 1 1.5 1s1.5-.2 1.5-.4-.7-.6-1.5-1c-.8-.3-1.5-.1-1.5.4zM394.5 121.1c-.4.6-.5 1.2-.2 1.5.2.3.7-.2 1-1.1.7-1.7.1-2-.8-.4zM394 127.4c0 .2.7.7 1.6 1 .8.3 1.2.2.9-.4-.6-1-2.5-1.4-2.5-.6zM394.7 140.1c.7.7 1.5 1 1.8.7.3-.3-.2-.9-1.2-1.2-1.4-.6-1.5-.5-.6.5zM399.8 141.7c.7.3 1.6.2 1.9-.1.4-.3-.2-.6-1.3-.5-1.1 0-1.4.3-.6.6zM275.6 129.3c.3 1 .9 1.5 1.2 1.2.3-.3 0-1.1-.7-1.8-1-.9-1.1-.8-.5.6zM277 132.9c0 .6.4 1.3 1 1.6.6.3.7-.1.4-.9-.7-1.8-1.4-2.1-1.4-.7zM261 135.9c0 .6.4 1.3 1 1.6.6.3.7-.1.4-.9-.7-1.8-1.4-2.1-1.4-.7zM263 139.5c0 .5.5 1.7 1 2.5s1 1 1 .5c0-.6-.5-1.7-1-2.5s-1-1.1-1-.5zM266 143.7c0 .6.8 1.7 1.8 2.4 1.6 1.3 1.6 1.3.2-.6-.8-1.1-1.6-2.2-1.7-2.4-.2-.2-.3 0-.3.6zM427.6 127.9c-.4.5-.2 1.2.3 1.5.5.4 1.2.2 1.5-.3.4-.5.2-1.2-.3-1.5-.5-.4-1.2-.2-1.5.3zM435 130.4c0 .2.8 1 1.8 1.7 1.5 1.3 1.6 1.2.3-.4s-2.1-2.1-2.1-1.3zM427.6 133.6c-.3.8-1 1.2-1.6.9-.5-.3-.7 0-.5.8.3.7-.1 3-1 5-.9 2.1-1.3 4.2-1 4.6.6 1.1 6.5 3.2 6.2 2.3-.2-.9 3.3-10.3 4.5-11.8.6-.8-.2-1.5-2.3-2.3-3.9-1.4-3.6-1.4-4.3.5zM421.3 134.7c.4.3.1 1.3-.6 2.2-1.1 1.4-1 1.4.5.2 1.6-1.2 1.6-3.1.1-3.1-.4 0-.3.3 0 .7zM418.6 142.5c-.9 2.6-.7 3.2.5 1.2.6-1 .9-2.1.6-2.3-.2-.3-.7.2-1.1 1.1zM419.6 147.3c.3 1 .9 1.5 1.2 1.2.3-.3 0-1.1-.7-1.8-1-.9-1.1-.8-.5.6zM336.2 189c4.4 1.3 4.9 1.9 3.7 4.2-.6 1.1-.7 1.8-.1 1.4 1.1-.6 2.5.9 3.5 3.6.9 2.6-2.8 4.4-5.9 2.9-1.5-.6-2.4-.7-2.4-.1s-.5 1-1.1 1c-.5 0-.8-.4-.5-.9.7-1.1-5.3-3.3-6.7-2.4-.9.5-4.5.9-10.9 1.2-1 .1-2.6 1.1-3.7 2.3-1.2 1.2-3.1 2.3-4.3 2.5-10.8 1.4-10.8 1.5-10.8 3.8 0 3.1-2.2 4.7-5.1 3.7-2.8-1.1-9 2.2-8.8 4.6.1 1.5.2 1.5.6-.1.5-2.1 2-2.3 2-.2 0 .8-.4 1.5-.9 1.5-1.6 0-2.3.2-4.3 1.3-1.1.6-2.3 1-2.7.9-.3-.1-1.2.6-2 1.6-1.2 1.6-1.1 1.6.7.3 1.9-1.4 1.9-1.3-.1.8-1.1 1.2-2.9 2.4-4 2.5-1 .2-1.8.6-1.6.9.1.4.2 1.4.2 2.3 0 .8.4 1.3.9.9.5-.3 1.3 0 1.7.6.4.7.3.9-.3.6-.5-.3-2.5 1-4.4 2.9-1.9 2-4.7 4.3-6.4 5.1-1.6.9-3.7 2.4-4.5 3.3-.8.9-2.6 2.3-3.9 3-1.6.8-2 1.4-1.2 2 .8.4 1 1.7.5 3.6-.7 2.7-.7 2.8 1 1.1 2.5-2.4 2.9-2.1 1 .8-2.3 3.5-1.5 4.8 2 3 5.8-3.1 6.8.6 1.8 6.2-1.5 1.6-4.2 4.7-6.1 6.8-2.7 3-3.1 3.9-2 4.7 1.1.8 1.1.9-.2.5-1.1-.4-2.1.3-2.9 1.9-.8 1.3-1.7 2.4-2.2 2.4-.4 0-.8.5-.8 1.1 0 .5.4.8.9.5.5-.3 1.1.9 1.4 2.7.4 2.2 0 3.6-1.1 4.5-1.5 1.1-1.5 1.4-.2 2.2.8.5 1 1 .5 1-.6 0-1.5-.4-2-.9-.6-.5-3.2 1-6.5 3.8-4.1 3.5-5.4 5.2-5.2 6.8.2 1.3.8 2.3 1.4 2.3.6 0 .8-1.1.5-2.6-.4-2.1-.1-2.5 1.4-2.1 1 .3 2.7-.2 3.9-1 3.3-2.4 4.3-1 1.6 2.2-2.3 2.7-2.4 3-.8 3.7 1.6.6 1.6.7 0 .7-1 .1-1.8.6-1.8 1.2 0 .5-.6.7-1.2.3-1-.6-1-.4 0 .8.7.9.9 1.8.4 2-1.5.5-2.5 4.8-1.2 4.8.6 0 .9-.4.5-.9-.3-.5.5-1.7 1.7-2.5 2.1-1.5 2.3-1.5 3 .1.6 1.6.7 1.5.7-.3.1-1.2.9-2.8 1.9-3.5 1.5-1.2 1.5-1.2.5.1-1.5 2-2.6 16.1-1.4 19.1.5 1.3 1 1.8 1 1.1.1-.7 2.2-3.3 4.9-5.8 2.6-2.5 3.7-4.1 2.5-3.4-1.9.9-2.3.8-2.3-.4 0-.8-.6-1.7-1.2-1.9-.8-.3-.5-.6.5-.6 1.1-.1 1.5-.6 1.1-1.3-.4-.6-.3-.9.2-.5 2.1 1.2 5-2.4 5.3-6.7.2-1.7 1.2.1 1.7 2.9.3 1.5.1 2.4-.5 2.1-.5-.4-1.2.3-1.6 1.4-.3 1.1-1.1 2-1.8 2-.8 0-.8.3.1 1.2 1.6 1.6 1.5 3.8-.2 3.8-.8 0-1.8.9-2.1 2-.3 1.1-1.2 2-1.9 2-2.3 0-3.9 2.9-3.8 6.8.2 4.2 5.8 15.8 8.6 17.8 1.1.7 1.7 1.6 1.4 1.9-.3.3-1.6-.3-2.9-1.2-1.3-1-3.6-1.8-5.2-1.7-2.7.1-2.7.1-1.1-2.4 1.3-1.9 1.4-3 .5-4.8-1.1-2.4-3.1-3.3-3.1-1.4 0 .5-.7 1-1.5 1s-1.5.7-1.5 1.5-.4 1.5-1 1.5c-1.3 0-3.2 7-2.8 10.5.1 1.7.8 3 1.3 3 .6 0 2.1 1 3.3 2.1 2 1.9 2.3 3.2 2.5 10.5.1 11.1-.6 13.9-3.8 13.9-1.5 0-2.5.6-2.5 1.4 0 1.7 2.4 3.8 3.3 2.9.4-.3.9.2 1.3 1.1.3.9.9 1.4 1.4 1.1.4-.2.6.6.5 2-.3 2 2.1 5.6 2.8 4.4.1-.2 1.3-1.6 2.6-3.2 1.8-2 2.5-4.1 2.7-7.8.2-2.9.8-6.6 1.3-8.3 1.5-4.5 2.1-8.3 2.8-15.6.3-3.7 1.2-7.3 2.1-8.3 1.4-1.5 1.3-1.7-.4-1.8-1 0-1.3-.3-.7-.6 1-.4 1-1-.2-2.6-1.6-2.3-1.9-3.8-.7-3.5.4.1 1.7-.3 3-1 2.3-1.3 2.6-1 2.2 2.1-.1 1.6.1 1.6 1.9.5 1.2-.7 2.1-1.7 2.2-2.3 0-.5.3-2.2.5-3.7.4-2.6.3-2.7-2.1-1.8-1.8.7-2.5.6-2.5-.3 0-.8-.3-.8-.9.2-.5.8-.8 0-.7-2.5.1-3.5-.2-4-4.3-6.3l-4.4-2.4-1.9 2.3c-1.4 1.7-1.6 2.6-.7 3.6.6.8.8 2.2.4 3.1-.6 1.6-.7 1.6-1.5.2-1.6-2.8.3-8.5 3-9.4 1.1-.3 3-2.1 4.2-3.8 1.2-1.8 2.8-3.8 3.5-4.5 1.2-1.3 1.7-2.7 1.4-4.5 0-.4.4-.7.9-.7.6 0 .8-1.1.4-2.6-.5-1.9-.4-2.5.5-2 .6.4.8 1.3.4 1.9-.4.7.1.6 1.1-.2.9-.8 1.5-2 1.2-2.7-.3-.7-.1-1.6.5-2 .6-.3.8-1.2.5-2-1-2.7 5.7-4.2 9.2-2.1.8.6.6 1.3-.8 2.7-1.1 1.1-2.3 2-2.8 2-.4 0-1.5.9-2.4 2-1.2 1.3-1.4 2.1-.6 2.6.7.5.4 1-.9 1.5-1.5.5-2.2 1.9-2.5 4.6-.3 2.1-.3 4.4 0 5 .7 2.1 2.2.4 2.2-2.5 0-1.9 1.8-4.7 6.1-9.4 5.1-5.7 6.5-6.7 8.5-6.2 1.9.5 2.6.1 3.3-1.7.5-1.4.5-2.5 0-2.7-.5-.2-.6-.8-.3-1.3.3-.6 0-1.6-.6-2.4-.7-.8-.9-1.5-.6-1.5 1 0 4.2 3.2 3.8 3.9-.1.2.5.6 1.3.7 1.2.2 1.4-.1.5-1.1-.9-1.1-.6-1.4 1.1-1.7 3-.4 4.9-3.5 2.9-4.8-1.3-.9-1.3-1.1 0-2 1.3-.8 1.2-1-.3-1-1.6 0-1.6-.2-.2-3 .8-1.6 1.5-3.8 1.5-4.9 0-1.8.3-1.9 2.5-1.1 2.2.8 2.5.7 2.5-1.1 0-1.5.5-1.9 1.5-1.5.8.3 1.5 0 1.5-.7 0-2.4-1.6-3.6-4.8-3.9-2.3-.2-3.2-.7-3.2-2 0-2.5 3.5-4.1 6-2.8 1.4.7 2 .7 2 0 0-.5.7-1 1.5-1s1.5-.5 1.5-1c0-.6.7-1 1.5-1 1.4 0 1.9-1.2 1.6-3.3 0-.4.4-.7 1-.7s.8-.9.4-2c-.5-1.6-.2-2 1.4-2 1.2 0 2.1.7 2.1 1.5 0 1.8 1.2 1.9 2.8.3 1.5-1.5 1.6-3.2.2-2.3-.5.3-1-.1-1-.9 0-.9-.7-1.6-1.6-1.6-1.4 0-1.4-.3-.4-1.5.9-1.1 1.7-1.2 2.3-.6 1.1 1.1 6.2-2.3 6.2-4 0-.5.6-1.4 1.4-1.9 1.2-.7 1.2-1.1.2-2.3-1.6-2 .4-3.3 2.5-1.6.8.7 1.4.8 1.2.3-.1-.5.1-2.5.5-4.4.6-2.8 1-3.2 1.7-1.9 1.3 2.3 5.6 1.6 8-1.3 1.7-2.1 1.9-2.1 2-.4 0 1.6.2 1.7 1.6.5 1-.8 1.2-1.5.5-1.7-1.7-.6-.2-2.2 2-2.2 1 0 1.9.7 1.9 1.5 0 .9.9 1.5 2.5 1.5 1.4 0 2.5-.4 2.5-.8s1.5-.8 3.3-.8c1.7-.1 3.7-.2 4.2-.4 2.6-.7 4.5.1 4.5 1.9 0 1.3.9 2.1 3 2.6 1.6.4 3.3.4 3.8.1.5-.3 2.6 0 4.8.6 2.1.6 4.5 1 5.3.9.8-.1 1 .2.6 1-.6.9-.1 1 1.9.5 1.4-.3 2.6-.4 2.6-.1 0 1.1-3.4 4.4-4.2 3.9-.4-.3-.7.5-.6 1.8.1 1.5.8 2.4 2 2.4 1 0 1.8-.4 1.8-.8s2.1-.6 4.7-.4c5.7.4 9.1-.3 7.2-1.5-.8-.4-1-1.2-.5-1.6.4-.4 1.3 0 2 1 .7.9 2.3 1.7 3.5 1.7 1.1 0 2.1.4 2.1.9 0 .6 1.3 1.8 2.9 2.7 1.7 1 2.7 2.2 2.4 2.7-.3.6-.1.7.4.4.6-.4 2.5.7 4.2 2.4 1.7 1.6 3.9 2.8 4.8 2.7.9-.2 1.7.5 1.9 1.5.1 1 1.2 2.6 2.3 3.6 1.2 1 2.1 2.8 2.1 4 0 1.1.5 2 1.1 1.8 1.6-.3 5.1 6.4 4.6 8.9-.3 1.6.1 2.1 1.2 1.9.9-.1 1.5-1 1.3-1.9-.3-1.4.9-2.1 3.1-1.7.4 0 .7-.4.7-.9 0-.6.9-1 2-1s2 .4 2 .9c0 1.7 3.4 2.2 4.9.6 1.2-1.2 1.3-1.5.1-1.5-1.7 0-.4-1.3 1.6-1.6 1.1-.2 1.4.3 1.1 1.6-.3 1.3.1 2.1 1.4 2.5 1 .4 1.9 1.1 1.9 1.6 0 .6.5.7 1.2.3.7-.4.8-.3.4.5-.6.9-1.1.9-2.1.1-.9-.7-1.6-.6-2.5.5-.7.9-1 1.8-.6 2.2.3.3.6.1.6-.5 0-2 3.2-1.3 3.7.8.3 1.1 1 2 1.5 2s.6-.5.3-1c-2.2-3.5 4.9-2.6 8.9 1.2 4.5 4.1 1.8-1.8-3.2-7.4-2.4-2.6-2.6-2.6-3.9-1-1.3 1.6-1.4 1.5-.9-.6.2-1.3.2-2.1-.1-1.8-.3.3-1.2-.2-2.1-1-.8-.9-2.5-1.4-3.7-1.2-1.3.3-2.7-.4-3.8-1.8-2.1-2.8-.8-3.8 2.8-2.4 1.5.6 3.7.8 4.9.5 1.3-.4 1.6-.3.9.2-.9.6-.3 1.6 2 3.4 4.4 3.5 6.8 4.3 6 2.1-.3-.9-1.2-2.2-2-2.8-.7-.7-1.2-1.7-1.1-2.3.2-.6-.8-1.7-2.2-2.4-1.4-.7-4.3-4-6.6-7.4-2.3-3.5-4.4-6-4.7-5.6-.4.3-.7-.6-.7-2 0-1.5-.4-2.7-1-2.7-.5 0-1-.7-1-1.5 0-.9-.8-1.9-1.7-2.2-1-.4-2.8-1.7-4-3-1.3-1.2-4-2.5-6.1-2.9-4.1-.7-6.2-2-6.2-3.8 0-.6.7-.2 1.5.8.8 1.1 1.5 1.5 1.5.8 0-.6-1.7-2.3-3.7-3.8-2.1-1.4-3-2.4-2.1-2.1 1 .4 2 .2 2.4-.4.3-.6 1.1-.8 1.8-.6 1.6.7 7.9-2.1 7.2-3.1-.3-.5-1.8-.7-3.5-.4-2.2.3-2.8.8-2.5 2.1.5 1.4.4 1.4-.5 0-.6-1-2.2-1.5-4.3-1.4-1.8.1-4.2-.5-5.2-1.4-1.2-1-1.6-1.1-1.2-.3.7 1.2.4 1.2-1.5.2-3.1-1.6-3.9-2.5-1.6-1.7 1 .4 1.6.3 1.3-.2-.3-.5-1.5-1.1-2.6-1.4-1.2-.3-1.8-.1-1.4.5.3.5-.3.4-1.4-.3-2.3-1.4-2-2.9.6-2.9 1.5 0 1.5-.2.2-1s-1.2-1 .3-1c1 0 1.5-.4 1.2-1-.3-.6.1-.7.9-.4 2.1.8 4.5-4.1 2.8-5.8-.8-.8-.9-.6-.6.9.3 1.2 0 2.4-.7 2.8-.7.5-1 .4-.5-.3.8-1.3-.4-6.7-1.3-5.5-.3.4-1.7 1.7-3.1 2.8l-2.5 2 2.4-2.8c1.4-1.5 2.1-2.7 1.7-2.7-.9 0-5.1 5.1-5.1 6.1 0 .4-1.1 2-2.5 3.6-1.4 1.5-2.5 3.1-2.5 3.5 0 .3-.4 1-.9 1.5-.6.5-.6.2-.1-.6.8-1.4.8-1.4-3.8.4-1.5.6-7.3-6.2-6.3-7.2.3-.4.6-.1.6.5 0 .7.5 1.2 1 1.2.7 0 .7-.6 0-1.9-.8-1.6-.6-2.2.7-3.1 1.3-.8 1.4-1 .2-.7-1.2.4-1.4-.1-1-2.7.4-3.1.5-3.1 1.2-.6.7 2.3.8 2.3.6.2-.1-1.2-.5-2.3-.9-2.2-.5 0-1.7-.9-2.9-2.1-1.5-1.5-1.9-2.8-1.4-5 .5-2.1.2-3.1-.9-3.5-2.3-.9-4.2.7-2.2 1.8.9.5 1.6 1.4 1.6 1.9 0 .6-.7.3-1.6-.5-1.6-1.6-5.6-2.2-5.2-.9.6 2.3-1.6 5.2-4.3 5.8-1.6.4-2.7 1.1-2.3 1.6.3.5 0 .9-.5.9-.6 0-1.1-.4-1.1-.8 0-1.4-5.1-1.2-5.6.2s-3.9 1.1-6-.5c-.6-.5-1.4-.7-1.7-.4-.4.3-.5.2-.2-.2.7-.8-2.5-4.3-3.9-4.3-.6 0-2.4-.7-3.9-1.5s-3.5-1.1-4.4-.8c-1 .4-1.4.2-1-.4.9-1.5-4-5.3-6.7-5.2-1.7.1-1.7.2.6.9zm10.3 6c.3.5.2 1-.4 1-.5 0-1.3-.5-1.6-1-.3-.6-.2-1 .4-1 .5 0 1.3.4 1.6 1zm2.5 4c0 .5-.5 1-1.1 1-.5 0-.7-.5-.4-1 .3-.6.8-1 1.1-1 .2 0 .4.4.4 1zm33.6.6c-.5 1.3-.1 1.5 2.1 1 2.1-.5 2.4-.4 1.3.4-1.3.9-.7 1.4 1.3 1.1.4 0 .7.5.7 1.1 0 2.5-1.9 4.1-4.9 4.3-3.3.2-3.2.7-1.6-7 .3-1.4.8-2.5 1.1-2.5.3 0 .3.7 0 1.6zm-56.6 3.9c0 2.7-.7 3-3 1.5-1.3-.9-1.2-1.2.4-2.5 2.6-1.9 2.6-1.9 2.6 1zm41.5-1.6c1 1.7-1.2 2.1-2.5.6-1-1.2-1-1.5.3-1.5.9 0 1.8.4 2.2.9zm9.2.7c-.3.3-1.2.4-1.9.1-.8-.3-.5-.6.6-.6 1.1-.1 1.7.2 1.3.5zm-16 1c-.3.3-1.2.4-1.9.1-.8-.3-.5-.6.6-.6 1.1-.1 1.7.2 1.3.5zm-30.2 1.4c.3.5-.1 1-.9 1-.9 0-1.6-.5-1.6-1 0-.6.4-1 .9-1 .6 0 1.3.4 1.6 1zm23 2c.3.5-.3 1-1.4 1-1.2 0-2.1-.5-2.1-1 0-.6.6-1 1.4-1 .8 0 1.8.4 2.1 1zm-9.5.4c0 .3-.4.8-1 1.1-.5.3-1 .1-1-.4 0-.6.5-1.1 1-1.1.6 0 1 .2 1 .4zm35.2 2.1c.6 1.4.8 2.8.4 3.3-.9.8-3.6-2.6-3.6-4.5 0-2.2 2-1.4 3.2 1.2zm6.3.5c.3.5.2 1-.4 1-.5 0-1.3-.5-1.6-1-.3-.6-.2-1 .4-1 .5 0 1.3.4 1.6 1zm-79.5 1c0 .5-.5 1-1.1 1-.5 0-.7-.5-.4-1 .3-.6.8-1 1.1-1 .2 0 .4.4.4 1zm70 0c0 .5-.4 1-1 1-.5 0-1-.5-1-1 0-.6.5-1 1-1 .6 0 1 .4 1 1zm-44 3c0-1 .3-1 1.6.1 1 .8 1.3 2.1.9 3.6-.3 1.5-.1 2.3.7 2.3 2.5 0-2.8 2.7-6.7 3.4-4.5.9-4-.3.8-2 2.2-.8 3.1-1.7 2.9-2.9-.2-1 .1-1.4.7-1 .6.3 1.1.1 1.1-.4 0-.6-.9-1.1-1.9-1.1-1 0-2.2-.7-2.5-1.6-.5-1.4-.4-1.5.9-.4 1.2 1 1.5 1 1.5 0zm-32 4c0 .5-.2 1-.4 1-.3 0-.8-.5-1.1-1-.3-.6-.1-1 .4-1 .6 0 1.1.4 1.1 1zm55-.6c0 .3-.4.8-1 1.1-.5.3-1 .1-1-.4 0-.6.5-1.1 1-1.1.6 0 1 .2 1 .4zm-16.3 2.8c-.3.8-.6.5-.6-.6-.1-1.1.2-1.7.5-1.3.3.3.4 1.2.1 1.9zm6.3-.6c0 .2-.9.4-2.1.4-1.1 0-1.8-.4-1.4-1 .5-.8 3.5-.3 3.5.6zm23 1.4c0 .5-.5 1-1.1 1-.5 0-.7-.5-.4-1 .3-.6.8-1 1.1-1 .2 0 .4.4.4 1zm-79.4 1.5c-2.5 1.9-3.6 1.9-3.6 0 0-1 1-1.5 2.8-1.5 2.6.1 2.6.1.8 1.5zM389 224c0 .5-.5 1-1.1 1-.5 0-.7-.5-.4-1 .3-.6.8-1 1.1-1 .2 0 .4.4.4 1zm-96 1c0 .5-.5 1-1.1 1-.5 0-.7-.5-.4-1 .3-.6.8-1 1.1-1 .2 0 .4.4.4 1zm105 2c0 .5-.5 1-1.1 1-.5 0-.7-.5-.4-1 .3-.6.8-1 1.1-1 .2 0 .4.4.4 1zm4.5 5c-.3.5-1.1 1-1.6 1-.6 0-.7-.5-.4-1 .3-.6 1.1-1 1.6-1 .6 0 .7.4.4 1zm-110.2 6c-1.3 1-2.3 2.2-2.3 2.7 0 1.2-4.6 3.4-5.4 2.6-1-1-.7-2.5.3-1.8.5.3 1.8-.5 2.8-1.8 2-2.6 5.5-4.8 6.3-4 .3.2-.5 1.3-1.7 2.3zm-21.4 2.1c-.9.5-1.5.4-1.8-.2-.2-.6.3-1.5 1-2 .9-.5 1.5-.4 1.8.2.2.6-.3 1.5-1 2zm139.1-1.6c1.7-.3 2.1-.2 1.2.7-1.3 1.3-6.5.2-5.6-1.3.5-.8.8-.8 1.3 0 .4.6 1.8.9 3.1.6zm-107 1.1c0 .3-.7 1.2-1.5 2-1.6 1.7-1.8 1.4-.9-1 .6-1.5 2.4-2.3 2.4-1zm7.9 1.1c-3.8 4.8-6.4 6-7.8 3.5-.7-1.3-.3-2 1.7-3.2 1.4-.9 3.7-1.7 5-1.8 2.2-.2 2.3 0 1.1 1.5zm3.5.8c-.7 1.6-3.4 2.8-3.4 1.4s2.3-3.8 3.2-3.3c.4.3.5 1.1.2 1.9zm77.2-1c-2.1 1.6-3.2 1.3-2.1-.4.3-.6 1.4-1.1 2.3-1.1 1.5.1 1.5.2-.2 1.5zm-72.6.5c0 .5.7.7 1.5.4.8-.4 1.5-.2 1.5.4 0 1.9-2.7 2-3.8.1-.8-1.2-.8-1.9-.2-1.9.5 0 1 .4 1 1zm-21 3c0 .5-.4 1-.9 1-.6 0-1.3-.5-1.6-1-.3-.6.1-1 .9-1 .9 0 1.6.4 1.6 1zm2.6 2.2c-1.6.9-1.6 1.1-.1 2.8 1.5 1.7 1.5 1.9-.4 2.5-2 .6-2.5 1.6-2.2 4.2.1.7-.3 1.3-.9 1.3-.6 0-.9.4-.6.9.4.5.1 1.1-.6 1.3-.7.3-1.3 1.5-1.3 2.8 0 1.3-.6 2.5-1.3 2.8-1.1.3-1.2 0-.3-1.7.7-1.2.8-2.1.2-2.1-.9 0 1.7-8 3-9 .3-.3 1-1.6 1.4-3 1-3.4 2.5-5.1 3.7-4.4.6.4.4 1.1-.6 1.6zm-26.1 3.8c.3.5.1 1-.4 1-.6 0-1.1-.5-1.1-1 0-.6.2-1 .4-1 .3 0 .8.4 1.1 1zm4 3.1c-.4.5-1.3.9-2.2.9-1.3 0-1.3-.3-.3-1.5 1.3-1.5 3.5-1.1 2.5.6zm147.8 2.9c.3 1.1.2 1.8-.3 1.5-.4-.3-1-1.4-1.3-2.5-.3-1.1-.2-1.8.3-1.5.4.3 1 1.4 1.3 2.5zm-137.3-.5c0 .9-4.4 4.9-5.7 5.1-.6.1-1.1-.7-1-1.7.1-1.1.9-1.9 1.9-1.9 1 0 1.8-.5 1.8-1 0-.6.7-1 1.5-1s1.5.2 1.5.5zm-10 2.5c0 .5-.5 1-1.1 1-.5 0-.7-.5-.4-1 .3-.6.8-1 1.1-1 .2 0 .4.4.4 1zm11.8 1.7c-.1 1.6-1.2 3.9-2.5 5.2-1.8 1.8-2.1 2.7-1.2 3.8.9 1 1.5 1 2.5.2 1.1-.9 1.4-.8 1.4.5 0 1.1-.9 1.6-2.6 1.6-1.4 0-2.3-.4-1.9-1 .3-.6.1-1-.5-1s-1.3.7-1.7 1.6c-.4 1.2-.8 1.3-1.4.3-.6-1-1.1-.6-1.8 1.4-.6 1.5-1.5 2.7-2.1 2.7-.5 0-1 .7-1 1.6 0 .8-.4 1.3-.9.9-.5-.3-1.2.3-1.6 1.4-.3 1-1.5 2.1-2.5 2.4-1.1.3-2 1.2-2 2.1 0 .9-.5 1.6-1.1 1.6-.5 0-.7-.5-.4-1 .3-.6.2-1-.3-1s-1.5 1.1-2.2 2.5c-.7 1.4-1.7 2.5-2.1 2.5-1.4 0 .4-4.2 2.2-5.3 1.1-.7 1.9-1.9 2-2.7 0-1 .3-.9.8.4.6 1.7 1 1.4 3.1-2 3.1-4.9 10.1-14.4 10.8-14.4.2 0 .2.7-.1 1.4-.4 1-.1 1.3.9.9.7-.3 1.4-1.4 1.4-2.4s.7-1.9 1.5-1.9 1.5-.8 1.5-1.8c0-1.7.8-3.2 1.7-3.2.1 0 .2 1.2.1 2.7zm10.3.6c-.8.8-1.4.7-2.3-.2-1-1.1-1-1.3 0-.7.6.4 1.2.2 1.2-.4 0-.6.5-.8 1.1-.4.8.4.8.9 0 1.7zM268 267c0 .5-.5 1-1.1 1-.5 0-.7-.5-.4-1 .3-.6.8-1 1.1-1 .2 0 .4.4.4 1zm9.2 4.2c-.7.7-1.2.8-1.2.2 0-.6.3-1.4.7-1.7.3-.4.9-.5 1.2-.2.2.3-.1 1.1-.7 1.7zm13.5 2.2c1-.3.5.2-1.2 1.2-3.6 2.1-4 2-4.1-.5-.1-1.6.2-1.8 1.7-1.1.9.6 2.6.7 3.6.4zm-16.7 1.1c0 .8-.4 1.5-1 1.5-.5 0-.7-.7-.4-1.5.4-.8.8-1.5 1-1.5.2 0 .4.7.4 1.5zm10 1.6c0 .5-1 .9-2.1.9-1.8 0-1.9-.2-.9-1.5 1.2-1.5 3-1.2 3 .6zm-1.2 5.3c-.1 1.4-.6 2.2-1 2-1.3-.8-6.9 5.7-7.2 8.2-.3 3-1.5 4.2-2.5 2.6-.5-.8-1.6-.9-3.8-.3-3.1.9-4.3.6-4.3-1.1 0-.5.5-.6 1.1-.2.7.4 1 .1.7-.7-.3-.8-1.1-1.3-1.7-1.1-.7.1-1-.1-.7-.6.3-.5 1.8-.7 3.4-.4 1.6.2 3.3-.1 3.6-.7.4-.6.2-1.1-.3-1.1-.6 0-1.1-.5-1.1-1.1 0-.6.7-.9 1.5-.5.8.3 1.5.1 1.5-.4 0-.6.6-1 1.4-1 .7 0 3.1-1.3 5.2-2.9 2.1-1.6 4-3 4.1-3 .2-.1.2 1 .1 2.3zm5.4.4c-.7.2-1.2 1.2-1.2 2.3 0 1-.4 1.9-.9 1.9s-1.8.3-2.8.6c-1.3.5-1.2.2.5-1 1.2-1 2.2-2.6 2.2-3.6 0-1.4.5-1.8 1.7-1.3 1.1.4 1.2.8.5 1.1zM274 283c0 .5-.5 1-1.1 1-.5 0-.7-.5-.4-1 .3-.6.8-1 1.1-1 .2 0 .4.4.4 1zm-22.5 3c-.3.5-1.1 1-1.6 1-.6 0-.7-.5-.4-1 .3-.6 1.1-1 1.6-1 .6 0 .7.4.4 1zm10.8 1c-.4 1.5-1.4 2-3.7 2l-3.1-.1 2.4-1.9c3-2.6 5.1-2.6 4.4 0zm-10.9 3.6c.4 1 .1 1.4-.6 1.2-1.5-.5-2.3-2.8-1-2.8.5 0 1.3.7 1.6 1.6zm9.2 1.9c-.2.7.1 1.8.7 2.4.8.8.7 1.1-.6 1.1-.9 0-1.7.6-1.7 1.4 0 .8-.4 1.7-.9 2-.5.4-.7-.2-.5-1.1.2-1 0-2.5-.5-3.3-.9-1.3-1.2-1.2-2.5.5-.9 1.2-1.5 1.5-1.6.7 0-.7-.4-1-1-.7-.5.3-.7 0-.4-.8.3-.9 1.8-1.4 3.7-1.3 1.8 0 3.2-.4 3.2-.9 0-.6-.4-.9-.8-.7-.5.1-.6-.2-.2-.7.8-1.4 3.7-.1 3.1 1.4zm-12.2 8c-1.9 2.9-2.9 3.4-1.4.6 1.4-2.6 1.3-3.8-.2-2.3-.7.7-1.6 1.2-2.2 1.2-.5 0 .2-1 1.5-2.3 3.1-2.9 4.7-.9 2.3 2.8zm30-3c-.4.8-1 1.2-1.5.9-1.4-.8-1-2.4.6-2.4.9 0 1.2.6.9 1.5zm-16.9.4c.3.5.1 1.2-.5 1.6-.5.3-1-.1-1-.9 0-1.8.6-2.1 1.5-.7zm-6.5 2.6c0 .9-.6 1.2-1.5.9-1.1-.5-1.7.3-2.1 2.6-.4 2-1 2.7-1.4 1.9-.9-1.4-3 1.9-3 4.6 0 .9-.4 1.4-.9 1-1.6-.9-.3-4.8 2.1-6.7 1.3-.9 2.4-2.2 2.4-2.7.1-.6.2-1.6.3-2.1.2-1.6 4.1-1.2 4.1.5zm-2 28.9c-.8.8-1.3.7-2-.4-1.2-2-.1-3.3 1.6-1.9 1.1.9 1.2 1.5.4 2.3zm0 43.6c0 1.1-.7 2-1.5 2-1.7 0-1.8-.2-.9-2.4.9-2.3 2.4-2 2.4.4zm-2.3 8.6c.8 2.2-1.9 3.8-3.3 1.9-.6-.8-1.7-1.5-2.3-1.5-2.3 0-.2-1.6 2.4-1.8 1.6-.1 2.8.4 3.2 1.4z"/><path d="M374 196.6c0 .8.5 1.2 1 .9.6-.3 1-1 1-1.6 0-.5-.4-.9-1-.9-.5 0-1 .7-1 1.6zM391 216c.6 1.1 1.3 2 1.6 2 .2 0 0-.9-.6-2s-1.3-2-1.6-2c-.2 0 0 .9.6 2zM268.5 230.2c.5 1.2.2 1.8-.8 1.8-.8 0-1.7 1-2 2.2-.6 2-.4 2 2.1-.5 2.1-2.2 2.4-2.9 1.4-3.9-1.1-1.1-1.2-1-.7.4zM439 275.9c0 .9.5 2.2 1.2 2.9.8.8.8 1.5-.2 2.7-1 1.2-.9 2 .4 4.1l1.7 2.5-2.4-1.5c-1.3-.9-2.7-1.3-3.2-.9-.4.5-.5 0-.2-.9.9-2.5-.7-3-3-1-2.5 2.2-3.3 5.4-2 7.7.6 1.2.6 1.6-.1 1.1-.6-.4-1 .2-.9 1.4.3 4.9 6.6 1.8 6.8-3.4 0-2.4-.4-3.1 5.2 9.4 1.5 3.6 3.2 7.3 3.8 8.2.5 1 .5 1.8.1 1.8-.5 0-1.7-1.9-2.8-4.3-1-2.3-3-5.4-4.3-6.9l-2.5-2.7-1.8 2.2c-1.2 1.4-1.7 3-1.3 4.6.3 1.5-.1 5.1-.9 8.1s-1.6 9.2-1.7 13.8c-.2 6.4-.7 8.6-2.1 9.9-1.1 1-1.8 1.2-1.8.4 0-1.1-2.8-1-6.2.4-1.4.5-1.5 1-.5 2 .7.7 1.5 1.1 1.8.9.3-.2 2.2.8 4.2 2.1 2.9 2 3.7 3.3 4.3 7 .4 2.9.2 5-.5 5.9-.6.7-1.1 2.7-1 4.2.1 1.6-.6 4.7-1.6 6.9s-1.7 4.4-1.6 4.9c.1.4-.4 1.4-1 2.2-.9 1.1-.7 1.4 1 1.4 1.2 0 2-.4 1.7-.9-.3-.4.1-1.7.9-2.7.8-1 1.5-2.7 1.5-3.7s.4-1.5 1-1.2c.5.3.7 0 .4-.8-.3-.8.2-1.4 1.1-1.4 1 0 1.7 1.3 2.1 3.9.9 5.1 2.8 5 2.1-.2-.3-2.2-.2-4.2.1-4.4 1.2-.7 1.3 7.5.2 8.9-.7.9-.6 1.6.5 2.5.8.7 1.5 1.1 1.6.9.7-3.4.5-24.9-.3-26.3-.8-1.5-.7-1.8.5-1.3 2.2.8 2.6 0 1.6-3.9-.5-1.8-1.3-4.9-1.7-6.7-.5-1.7-.5-4.3-.2-5.7l.7-2.5 1.1 2.7c.6 1.6 1.5 2.8 1.9 2.9.5 0 1.5.2 2.4.4 1.3.2 1.6-.6 1.6-4.4 0-10.2.8-18 1.6-16.5.5.9.6 3.1.2 5.1-.3 2-.2 3.3.3 2.9.5-.3.9.1.9.9s-.5 1.1-1 .8c-.6-.3-.7 1.9-.4 5.9.4 4.2.2 6.9-.6 7.7-.8.8-.5 1.1 1.2 1.1 2.1 0 2.2-.3 1.5-4.3-.9-5.4-.9-5.2.5-11.5 1.2-5.8.6-8.1-4.6-16.4-3-4.9-4.1-11.3-2-12.1.9-.3 2.1.1 2.7.9.7.8 1.7 1.4 2.2 1.4.6 0 .4-.8-.3-1.7-.8-1 0-.7 1.8.7 1.8 1.3 2.9 2.8 2.6 3.3-.3.6-.1.7.4.4.6-.4 1.6 0 2.3.8 1.1 1.3 1 1.4-.6.8-1.3-.5-.8.6 1.6 3.5 1.9 2.3 4.3 4.2 5.3 4.2 2.7 0 3.4-3 1.1-4.9-1-.9-3.1-3.5-4.7-5.9-2.7-4.2-4.4-5.6-3.3-2.6.3.9.2 1.2-.5.9-.5-.4-.7-1.5-.4-2.6.6-1.9-3.6-6.9-5.8-6.9-.6 0-2.2-1-3.5-2.3l-2.5-2.2 1.2 2.2c.6 1.2 2 2.5 3.2 2.8 1.1.4 1.8.9 1.5 1.2-.3.3-2.1-.5-3.9-1.7-2.6-1.8-3.4-3-3.3-5.2.1-1.5.4-2.8.9-2.8 1.6 0 .6-1.8-1.3-2.3-1.4-.4-2 0-2 1.2zm5 13.8c-.8.3-2 1-2.6 1.5-.8.5-1.4.3-1.8-.7-.4-1.2.2-1.5 2.7-1.4 1.8 0 2.5.3 1.7.6zm8.7 3.5c-.3.8-.6.5-.6-.6-.1-1.1.2-1.7.5-1.3.3.3.4 1.2.1 1.9zm8.9 9.9c.3.6.1 1.5-.5 2s-.9.6-.6.3c.3-.4 0-1.3-.6-2.1-.8-.9-.8-1.3-.1-1.3.6 0 1.4.5 1.8 1.1zm-24.4 23.4c-.2 1.4-.8 2.5-1.3 2.5-1.2 0-1.1-.7.1-3.1 1.4-2.6 1.8-2.4 1.2.6zm.8 10c.6 1.9 1 4.3.8 5.2-.3 1-.8-.2-1.2-2.6-.8-4.4-.9-4.4-2.2-2-1 1.7-1.3 1.9-1.4.7 0-2.2 1-4.8 2-4.8.5 0 1.4 1.6 2 3.5zm.6 14.1c-.3.9-.6 2.2-.6 3 0 .8-.7 1.4-1.5 1.4-1.8 0-1.8-.1-.5-3.4.5-1.4 1.5-2.6 2.1-2.6.6 0 .8.7.5 1.6zm.1 7.3c0 1.1-.5 1.8-.9 1.5-.4-.3-.5-1.1-.1-1.9.7-2.1 1.2-1.9 1 .4zM464.6 280.2c1 1.4 2.1 2.4 2.3 2.2.3-.3-.6-1.5-1.8-2.7l-2.4-2.2 1.9 2.7zM458.1 282.5c1.5.8 2.9 2.1 3.2 2.8.3.8 1.9 1.9 3.6 2.5 2.5.9 3.1.8 3.1-.3 0-1.8-1.7-2.9-2.2-1.4-.2.7-1.9-.1-4-2-2-1.7-4.2-3.1-4.9-3.1-.8.1-.2.7 1.2 1.5zM263.1 314.9c-.1.8-.4 1.1-.8.8-1-1-6.3 4.4-6.3 6.4 0 1-.5 2-1 2.2-.6.3-.5.4.2.3.7-.1 1.5-1.1 1.7-2.2.3-1.9 5.1-7 5.1-5.5 0 .5-.7 1.4-1.5 2.1-1.7 1.4-2.1 4.5-.5 3.5s4.2-6.5 3.6-7.8c-.3-.8-.5-.7-.5.2zM334.2 315.7c-.6.2-1 .8-.7 1.3.3.5-.4 1.2-1.6 1.5-2.9 1-.3 2.6 2.8 1.8 1.8-.4 2.3-.1 2.4 1.6.1 1.2.2 2.6.3 3.2 0 .5 1.3 1.7 2.7 2.6 3.3 2 7.9 1.1 7.9-1.6 0-1 .7-2.2 1.6-2.5 1.7-.6 6.7 2.2 5.9 3.4-.2.4.4 1.6 1.3 2.6 1 1 2.2 2.8 2.6 3.9 1.3 3.1 2-.1.7-3.5-.7-2.2-.7-3 .2-3 .7-.1.6-.5-.4-1.3-.8-.7-1.8-2-2.2-3-.3-.9-1.3-1.7-2.1-1.7s-1.6-.5-1.8-1.1c-.2-.7-3.5-1.3-7.8-1.4-10.6-.5-11-.5-11-1.5 0-.4.6-1.1 1.3-1.3.6-.3.8-.5.2-.5-.5 0-1.6.2-2.3.5zm11 5.3c.4 2.8.1 3.3-1.6 3.6-2.9.4-3.7-.5-2.6-2.7 1.1-2 3.9-2.6 4.2-.9zM267.2 324.3c-.7.8-.8 1.7-.4 2.1.8.8.9 1.4 1.1 5.3.1 1.8.4 2.4.9 1.5.9-1.3.8-8.9 0-9.8-.3-.2-1 .2-1.6.9zM233.7 331.7c-1.1 6.1-.8 9 .8 9.7 1.1.4 1.5-.1 1.5-1.7 0-1.3.7-3.2 1.5-4.3 1.4-1.8 1.4-1.7 1.5 1.6.1 2.9.2 3.2 1.1 1.7.6-1 .8-2.5.5-3.4-.3-.8-.3-2 .1-2.6 1.1-1.8 1.2-3.6.2-4.3-.5-.3-1.2.3-1.6 1.3-.8 2.2-5.3 6.6-5.3 5.2 0-.6.5-2 1.1-3.1.7-1.3.7-2.4.1-3-.6-.6-1.1.5-1.5 2.9zM398.6 349.5c-1 2.8-.7 3.7 1 3.1 1.4-.5 1.5-.4.4.9-1.7 2.1.4 4.5 3.9 4.5s5.1-1.7 5.1-5.2c0-2.6.2-2.8 2.1-1.8 2.8 1.6 5.8 6.8 5.1 9.2-.2 1.1-1.6 2.5-2.9 3.1l-2.4 1.1 3.3 1.7c4.3 2.3 4.6 2.3 4.6-.4 0-1.2.3-3.8.5-5.7.7-4.9-.6-6.7-6.8-9.5-5.7-2.7-10-3.2-11.1-1.4-.5.8-.9.8-1.4-.1-.5-.8-.9-.7-1.4.5zm6.2 2c-.1 1.4-.8 2.5-1.5 2.5-1.4 0-1.6-1-.7-3.4 1-2.5 2.4-1.9 2.2.9z"/><path d="M420.4 368.2c-2.2 4.2-3.5 8.8-2.4 8.8.4 0 1.1-1.5 1.4-3.4.4-1.8 1.5-4.4 2.6-5.6 2.3-2.6 2.4-3 1-3-.5 0-1.7 1.4-2.6 3.2zM358.7 368.6c-.2.2-1.9.5-3.7.7-3.9.5-6.4 3.2-4.1 4.6.7.5 3.9.7 7 .4 6.7-.5 9.8.9 10.9 5.1.7 2.7 1.2 3 4.5 2.9 4.2-.1 6.6-2.3 6.2-5.7-.1-1.2-.3-2.7-.4-3.4-.2-2.1-7.2-4.6-13.8-4.8-3.4-.1-6.4 0-6.6.2zm8.3 3.1c0 1-.6 1.3-1.6.9-.9-.3-3.4-.6-5.7-.7l-4.2-.1 3.5-1.2c4.1-1.5 8-.9 8 1.1zm8.5.8c1.6 1.7 1.6 3.2 0 4.5-2.1 1.8-4.5.5-4.5-2.5 0-1.7-.5-2.5-1.7-2.5-1.4 0-1.5-.2-.4-.9 1.5-1 5.1-.3 6.6 1.4zM425 376.4c0 3.6 1.5 4 1.7.5.1-1.6-.2-2.9-.7-2.9-.6 0-1 1.1-1 2.4zM417.1 379.6c0 1.1.3 1.4.6.6.3-.7.2-1.6-.1-1.9-.3-.4-.6.2-.5 1.3zM315.5 389.9c1.1.4 2.3.7 2.6.5.4-.2 1.2.3 1.9 1.1s1.9 1.5 2.6 1.5c.8 0 1.4.3 1.4.8 0 .8 6.9 4.4 11.8 6 1.8.6 3.2.6 3.2.1s-.6-.9-1.3-.9c-.7 0-4.7-2-8.9-4.6-4.2-2.5-9.4-4.7-11.5-5-2.8-.3-3.3-.2-1.8.5zM316.5 393.9c-.6 1.1 1.1 4.5 3.8 7.3 2.1 2.3 2.2.6.1-3.8-1.9-3.9-3-4.9-3.9-3.5zM348 404.9c0 .3 1.4 1.2 3 1.8 1.7.6 3 .8 3 .4 0-.3-1.3-1.2-3-1.8-1.6-.6-3-.8-3-.4zM291.3 431.7c-1.7.6 5.3 13.9 10.2 19.2 5.9 6.5 10.8 11 12.7 11.7.9.3 2.5 2.3 3.4 4.4 1.2 2.7 2.7 4.3 4.7 5 4 1.3 4.7 1.3 4.7-.5 0-.8.7-1.5 1.7-1.5 1.5 0 1.5.1 0 1.8-1 1-1.7 2.2-1.7 2.5 0 1.3 2.8.7 5.1-1.2 1.3-1 3.3-2 4.4-2.2 1.1-.3 2-.9 2-1.6 0-5.5 4.5 2.5 4.7 8.4.1 1.8.5 3.3.9 3.3 1.3 0 2.9-3.6 2.1-4.5-.4-.5.1-.5 1.1-.2.9.4 1.7.5 1.7.4.1-.1.3-2.7.6-5.7s1.2-6 1.9-6.6c.8-.6 1-1.5.5-2.3-1.1-1.9-4.4 5.2-3.5 7.8.7 2.3-3 5-4.7 3.3-1.4-1.4-.5-5.8 1-5.4.8.1 1.1-.2.7-.8-.3-.5-.1-1 .5-1s.8-1 .4-2.5c-.4-1.6-.2-2.5.6-2.5.6 0 .8.5.4 1.2-.5.9-.2.9.9-.1.9-.7 1.7-1.8 1.7-2.4 0-.5 1-1.9 2.3-3 2-1.8 2-1.9.2-1.3-10.9 4.2-12.4 4.5-18.8 3.6-7.6-1.1-10.8-2.2-12.6-4.4-.7-.9-1.8-1.6-2.4-1.6-1.2 0-8-4.5-10.8-7-3-2.8-5.9-5-6.5-5-.4 0-1.7-1.1-3-2.5s-2.8-2.5-3.4-2.5c-.6 0-.8-.5-.5-1 .3-.6.2-1-.4-1-.5 0-1.1-.6-1.3-1.3-.2-.8-.8-1.2-1.5-1zm14 15.9c-.6 1.7-2.3.9-2.3-1.1 0-.8.6-1.2 1.4-.9.8.3 1.2 1.2.9 2zm4.9 3.3c-.5.3-1.1 1.4-1.3 2.4-.4 1.6-.6 1.6-2.4.4-1.6-1.2-1.7-1.8-.7-3 .7-.9 2.1-1.3 3.3-1 1.1.3 1.6.9 1.1 1.2zm7.2 3.9c2.7.5 6.6 3.2 6.6 4.6 0 .6-1.3 1.1-3 1.1-2.3 0-3-.5-3-1.9 0-1.5-.2-1.6-1.5-.6-1.3 1.1-1.9 1-3.4-.6-1.6-1.7-1.6-2-.2-3.1.9-.6 1.8-.8 2.1-.5.3.4 1.4.8 2.4 1zm13.6 6.1c0 .5-1.3 1.1-3 1.3-1.6.3-3 .1-3-.4 0-.4.9-.8 2-.8s2-.5 2-1.1c0-.5.5-.7 1-.4.6.3 1 1 1 1.4zm3.5 0c.3.5.1 1.2-.4 1.5-.5.3-1.1-.1-1.5-.9-.6-1.6.9-2.1 1.9-.6zm6.5 1c0 .5-1 1.1-2.3 1.3-1.5.3-2.4 0-2.4-.9 0-.7 1.1-1.3 2.4-1.3 1.3 0 2.3.4 2.3.9zM362 446.1c-1.7 1.3-1.8 1.7-.5 1 3.3-1.7 5.1-3.1 4-3.1-.5 0-2.1 1-3.5 2.1zM140.7 314c-1.7 4.9-1.9 5-6 5.1-2.3.1-5.4 0-6.9-.1-1.6-.1-2.8.3-2.8.9 0 .6.7 1.1 1.5 1.1 1.4 0 9.5 4.8 9.5 5.6 0 .2-4.9 13.6-6.6 17.9-.7 1.8-.6 1.8.7.5.8-.8 2.1-2.5 2.9-3.6.8-1.2 3.4-4.4 5.7-7.3l4.1-5.1 3.4 4.3c1.8 2.3 4.1 5.1 5 6.2.9 1.1 2.6 3.1 3.7 4.5l2 2.5-1.9-5.3c-1.1-2.8-1.7-5.2-1.2-5.2.4 0 .2-.4-.4-.8-1.1-.7-3.4-6.6-3.4-8.8 0-.7 1.6-1.8 3.5-2.5s3.5-1.7 3.5-2.1c0-.4.6-.8 1.4-.8.8 0 1.8-.5 2.1-1.1.5-.7-1.4-1-6-.8-5.6.2-7-.1-8.1-1.6-.8-1-1.4-2.6-1.4-3.5 0-.9-.6-2.4-1.3-3.3-1.1-1.6-1.4-1.2-3 3.3zM556.4 311.5c-.3 1.4-.9 2.5-1.3 2.5s-.7 1-.8 2.1c-.1 1.2-.4 2.4-.7 2.6-.3.3-3.7.5-7.6.4-3.9 0-6.9.3-6.6.7.3.5 3 1.9 5.9 3.2l5.4 2.4-.9 3.5c-.6 2-1.4 4-1.9 4.6-.5.5-.9 1.6-.9 2.5 0 .8-.7 2.8-1.5 4.4-.8 1.5-1.5 3.3-1.5 3.9 0 1.1 2.2-1.3 8.8-9.6 2.5-3.2 4.8-5.4 5.2-5 .4.4 3.3 4.1 6.5 8.1s6 7.1 6.2 6.8c.3-.3.1-1.1-.3-1.8-.5-.7-1.8-4-3-7.3s-2.5-6.7-2.8-7.6c-.5-1.2.3-2.3 2.8-3.9 2-1.2 4.1-1.8 4.7-1.4.7.4.9.3.6-.3-.8-1.2 2-2.6 3.4-1.7.5.3.9 0 .9-.5 0-.7-3-1.1-7.9-1.1h-7.9l-1.7-5c-.9-2.8-1.8-5-2.1-5-.2 0-.6 1.1-1 2.5zM482.8 479.5c-2.1 1.9-3.4 3.5-3 3.5.5 0 2.3-1.6 4.2-3.5 4.4-4.5 3.6-4.5-1.2 0zM479 486.5c1.3 1.4 2.6 2.5 2.8 2.5.3 0-.5-1.1-1.8-2.5s-2.6-2.5-2.8-2.5c-.3 0 .5 1.1 1.8 2.5zM489.6 487.8l-1.9 2.7 2.4-2.2c1.2-1.2 2.1-2.4 1.8-2.7-.2-.2-1.3.8-2.3 2.2zM499.9 492.7c-1.3 1.6-1.2 1.7.4.4.9-.7 1.7-1.5 1.7-1.7 0-.8-.8-.3-2.1 1.3zM486.6 495.5c.4.8 1.1 1.5 1.6 1.5.6 0 .5-.6-.2-1.5-.7-.8-1.4-1.5-1.6-1.5-.2 0-.1.7.2 1.5zM490.6 499.5c.4.8 1.1 1.5 1.6 1.5.6 0 .5-.6-.2-1.5-.7-.8-1.4-1.5-1.6-1.5-.2 0-.1.7.2 1.5zM207.5 484c-.3.6.1.7.9.4 1.8-.7 2.1-1.4.7-1.4-.6 0-1.3.4-1.6 1zM204 488c-.8.5-1 1-.5 1 .6 0 1.7-.5 2.5-1s1.1-1 .5-1c-.5 0-1.7.5-2.5 1zM207.8 489.7c.7.3 1.6.2 1.9-.1.4-.3-.2-.6-1.3-.5-1.1 0-1.4.3-.6.6zM201.5 491.1c-.4.6-.5 1.2-.2 1.5.2.3.7-.2 1-1.1.7-1.7.1-2-.8-.4zM211 491.9c0 1 2.9 3.6 3.4 3 .1-.2-.6-1.2-1.6-2.2-1-.9-1.8-1.3-1.8-.8zM211.5 504c-.3.5-.1 1 .4 1 .6 0 1.1-.5 1.1-1 0-.6-.2-1-.4-1-.3 0-.8.4-1.1 1zM464.9 494.7c-1.3 1.6-1.2 1.7.4.4 1.6-1.3 2.1-2.1 1.3-2.1-.2 0-1 .8-1.7 1.7zM458.5 498.9c-.3.5-.2 1.2.3 1.5.5.3.9-.1.9-.9 0-1.7-.3-1.9-1.2-.6zM455.5 500.9c-.3.5-.2 1.2.3 1.5.5.3.9-.1.9-.9 0-1.7-.3-1.9-1.2-.6zM458.2 505.6c1 1 2 1.6 2.2 1.3.3-.3-.5-1.1-1.7-1.8-2.1-1.3-2.1-1.2-.5.5zM464 508.1c-2.2 1.8-2.2 1.9-.3 1 1.2-.6 2.5-1.6 2.8-2.1.9-1.5.3-1.2-2.5 1.1zM468.5 518c-.3.6.1.7.9.4 1.8-.7 2.1-1.4.7-1.4-.6 0-1.3.4-1.6 1zM239 501c0 .5.5 1 1.1 1 .5 0 .7-.5.4-1-.3-.6-.8-1-1.1-1-.2 0-.4.4-.4 1zM234.4 503.5c-1 .8-1.4 1.5-.8 1.5.6 0 1.7-.7 2.4-1.5 1.6-1.9.9-1.9-1.6 0zM236.5 508c-1.8 2-1.8 2.1.1 3.5 2.6 2 3.1 1.9 3.8-.8 1.3-5.1-.5-6.4-3.9-2.7zM242.6 516.6c-.4 1-1.2 1.4-2.4.9-1.4-.5-1.5-.4-.4.7 1 1 1.6.8 3.4-1 1.2-1.2 1.7-2.2 1.1-2.2-.6 0-1.4.7-1.7 1.6zM432.6 514.6c-.5 1.4-.4 1.5.9.4 1.7-1.4 1.9-2 .6-2-.5 0-1.2.7-1.5 1.6zM444.6 519.8c-.3.5.1.9.9.9s1.2-.4.9-.9c-.3-.4-.7-.8-.9-.8-.2 0-.6.4-.9.8zM450 524c0 .5.5 1 1.1 1 .5 0 .7-.5.4-1-.3-.6-.8-1-1.1-1-.2 0-.4.4-.4 1zM449.9 528.7c-1.3 1.6-1.2 1.7.4.4 1.6-1.3 2.1-2.1 1.3-2.1-.2 0-1 .8-1.7 1.7zM261.6 515.5c-.9 2.6-.7 3.2.5 1.2.6-1 .9-2.1.6-2.3-.2-.3-.7.2-1.1 1.1zM259 521c-.6 1.1-.8 2-.6 2 .3 0 1-.9 1.6-2 .6-1.1.8-2 .6-2-.3 0-1 .9-1.6 2zM254.5 532.1c-.4.6-.5 1.2-.2 1.5.2.3.7-.2 1-1.1.7-1.7.1-2-.8-.4zM269.5 533.1c-.4.6-.5 1.2-.2 1.5.2.3.7-.2 1-1.1.7-1.7.1-2-.8-.4zM257.7 535.1c.7.7 1.5 1 1.8.7.3-.3-.2-.9-1.2-1.2-1.4-.6-1.5-.5-.6.5zM414 522.4c0 .2.8 1 1.8 1.7 1.5 1.3 1.6 1.2.3-.4s-2.1-2.1-2.1-1.3zM418.2 527.6c1 1 2 1.6 2.2 1.3.3-.3-.5-1.1-1.7-1.8-2.1-1.3-2.1-1.2-.5.5zM405.5 528c.3.5.8 1 1.1 1 .2 0 .4-.5.4-1 0-.6-.5-1-1.1-1-.5 0-.7.4-.4 1zM410.9 527.2c0 .2-.2 1.6-.3 3.2-.2 3.3 1.3 4.2 4.3 2.6 2.1-1 2.1-1.2.4-3.5-1.5-2-4-3.3-4.4-2.3zM421.8 533.1c-.3.7.4 2.3 1.5 3.4l2 2-1-2c-.6-1.1-1.2-2.7-1.5-3.4-.4-1.3-.5-1.3-1 0zM410 538c-1.8 1.2-.2 1.2 2.5 0 1.3-.6 1.5-.9.5-.9-.8 0-2.2.4-3 .9zM407 539.5c0 .5.5 1.7 1 2.5s1 1 1 .5c0-.6-.5-1.7-1-2.5s-1-1.1-1-.5zM298 526.4c0 .2.8 1 1.8 1.7 1.5 1.3 1.6 1.2.3-.4s-2.1-2.1-2.1-1.3zM292.5 533c-.9 1.6-1.4 3-1.3 3.1.2 0 1.5.3 3.1.5 2.5.4 2.7.2 2.7-3.1 0-4.4-2.3-4.7-4.5-.5zM286.6 534.2l-1.8 3.3 2.1-2.5c1.8-2.2 2.6-4 1.8-4-.1 0-1.1 1.5-2.1 3.2zM284.3 539.5c-.3.9-.3 1.8-.1 2.1.3.3.8-.4 1.1-1.6.6-2.3-.1-2.7-1-.5zM293.8 540.7c.7.3 1.6.2 1.9-.1.4-.3-.2-.6-1.3-.5-1.1 0-1.4.3-.6.6zM299.6 543.5c.4.8.8 1.5 1 1.5.2 0 .4-.7.4-1.5s-.4-1.5-1-1.5c-.5 0-.7.7-.4 1.5zM386.1 531.6c0 1.1.3 1.4.6.6.3-.7.2-1.6-.1-1.9-.3-.4-.6.2-.5 1.3zM384.5 537.1c-.4.6-.5 1.2-.2 1.5.2.3.7-.2 1-1.1.7-1.7.1-2-.8-.4zM391.4 546.4c.1.8.5 1.8.8 2.2.4.3.5-.1.4-1-.1-.8-.5-1.8-.8-2.2-.4-.3-.5.1-.4 1zM375.4 548.6c.1.8.4 1.5.7 1.6.2.2.3.1.2-.1-.2-.2.2-.9.7-1.6.7-.8.5-1.2-.4-1.2-.8 0-1.3.6-1.2 1.3zM460.3 29.9l-5.2 4.7L469.4 49c7.9 8 14.2 14.8 13.9 15.3-.2.4 0 .6.5.5 1.4-.4 16.1 14.5 15.5 15.7-.4.5-.3.7.1.3 1.1-.9 4.6 2.3 3.9 3.5-.3.6-.2.7.4.4 1.2-.7 7.9 6.3 7.5 7.7-.2.6-.1.8.3.4.9-.9 12.5 10.4 11.8 11.5-.2.4 0 .6.5.5.5-.2 28.5 27.3 62.2 61.1l61.2 61.5 4.9-5.1 4.9-5.1-95.8-96-95.7-96.1-5.2 4.8zM476.1 28.6c3.2 3.9 73.9 74.4 74.5 74.4.4 0-.2-1-1.3-2.3-5.4-5.8-22.3-35.8-22.3-39.4 0-.5-3.8-4.7-8.4-9.4-7.7-7.8-9.7-9.2-21.8-15.2-12.5-6.1-20.4-9.7-21.5-9.7-.3 0 .1.7.8 1.6zM445.2 42.2l-5.3 4.2L466 72.5c14.3 14.3 25.7 26.5 25.3 27-.4.4-.3.5.3.2 1.3-.8 24.7 22.7 23.7 23.8-.5.4-.3.5.3.2 1.2-.7 9.7 7.5 8.9 8.6-.3.4-.2.5.2.2 1-.8 19.3 17.7 18.6 18.8-.3.6-.2.7.3.4 1.1-.6 26.7 24.6 25.9 25.6-.3.4-.2.5.2.2 1-.8 26.2 24.8 25.6 26-.4.5-.3.7.2.3 1-.9 18.6 16.3 17.9 17.4-.3.5-.1.7.3.6 1.4-.4 17.3 15.5 16.6 16.6-.3.5-.1.6.5.2.6-.3 1.9.5 3 1.9l2 2.5 4.4-5.8 4.5-5.8-12.3-12.4c-6.8-6.8-12-12.8-11.7-13.3.3-.6.1-.7-.4-.4-.6.4-8.5-6.9-17.6-16.1-9.1-9.2-26.9-27-39.6-39.6-12.7-12.6-22.7-23.4-22.4-23.9.3-.6.2-.7-.3-.4-.6.3-20.7-19.2-44.9-43.4C471.4 57.8 451.3 38 451 38.1c-.3 0-2.9 1.9-5.8 4.1zM577 129.4c0 1 79.2 80.7 79.7 80.2.4-.4-9.1-21.3-13.5-29.6-3.4-6.4-21.3-26-23.8-26-.6 0-6.3-2.6-12.6-5.8-11.9-6-22.2-12.5-27-17-1.6-1.4-2.8-2.2-2.8-1.8zM56.3 426.9l-4.1 5.9 25.3 25.3c13.9 14 25.1 25.8 24.8 26.3-.4.5-.2.6.4.3 1.2-.8 16.5 14.8 15.5 15.8-.4.5-.2.6.4.2 1.2-.7 12.6 10.7 11.6 11.8-.4.3-.2.5.4.3 1.4-.4 20.5 18.7 19.6 19.6-.4.4-.2.6.4.4 1.5-.5 76.5 75.2 75.8 76.4-.4.7-.2.8.4.4.7-.4 5.3 3.6 11.3 9.6 9.8 10 11.7 11.1 14.4 8.5.6-.7 2.7-2.3 4.6-3.6l3.6-2.4-44.4-44.4c-24.4-24.5-44.3-44.9-44.3-45.4s-.4-.9-.9-.9c-1.5 0-54.6-53.9-54.3-55.1.1-.6-.1-.8-.6-.5-.5.3-5.2-3.9-10.5-9.2-5.2-5.3-17.6-17.7-27.4-27.5l-17.9-17.8-4.1 6zM44.1 442.1l-4.4 5 19.9 20c11 11 29.9 30 42.1 42.1 12.2 12.2 21.9 22.6 21.6 23.2-.3.6-.2.8.2.3 1.1-1 28.5 26.4 27.8 27.8-.4.5-.2.7.2.3.5-.5 19.3 17.7 41.8 40.2 22.5 22.6 41.2 41 41.6 41 .3-.1 2.8-2.1 5.5-4.6l4.8-4.4-7.8-7.9c-4.4-4.3-10-10.1-12.6-12.9-2.7-2.8-4.8-5-4.8-4.8 0 .1-16.8-16.6-37.2-37.1-20.5-20.6-37.2-37.9-37-38.4.1-.6-.1-.8-.6-.5-.4.2-22.1-20.9-48.2-47S49.3 437 49 437c-.3.1-2.5 2.3-4.9 5.1zM46 460.5c0 .9 5 11.6 11.1 23.9 8.3 16.8 13.3 22.2 24.3 26.5 7.5 3 21.5 10.1 24.6 12.5.8.7 2.9 2.1 4.5 3.1 3 1.8 3 1.8 1.2-.2-.9-1.1-1.4-2.3-1-2.7.5-.4.3-.6-.3-.4-.6.2-15.4-14-32.8-31.4S46 460.3 46 460.5zM155.3 571.5c4.9 6.9 11.7 19.1 11.7 21 0 .8.3 1.5.8 1.5.4 0 2 3.3 3.5 7.3 3 7.7 8.8 14.9 15.9 19.3 6.6 4.2 38.2 19.6 36.8 18-1.5-1.6-64.6-64.8-68.1-68.1l-4.1-4 3.5 5z"/></svg>