<svg xmlns="http://www.w3.org/2000/svg" xmlns:xlink="http://www.w3.org/1999/xlink" width="130" height="130" viewBox="0 0 130 130"><defs><style>.a{fill:url(#a);}.b{filter:url(#b);}</style><linearGradient id="a" x1="0.231" y1="0.234" x2="0.783" y2="0.761" gradientUnits="objectBoundingBox"><stop offset="0" stop-color="#dd7253"/><stop offset="1" stop-color="#f9b254"/></linearGradient><filter id="b" x="0" y="0" width="130" height="130" filterUnits="userSpaceOnUse"><feOffset dy="3" input="SourceAlpha"/><feGaussianBlur stdDeviation="2.5" result="c"/><feFlood flood-opacity="0.102"/><feComposite operator="in" in2="c"/><feComposite in="SourceGraphic"/></filter></defs><g class="b" transform="matrix(1, 0, 0, 1, 0, 0)"><path class="a" d="M69.5,108.585l-5.551-5.565q-.563.08-1.128.148l4.588,4.6h0a30.219,30.219,0,0,0-4.939-1.265l-3.051-3.058c-.411.018-.823.031-1.237.039l2.8,2.806v0h0a30.95,30.95,0,0,0-3.577-.208h-.306L54.419,103.4q-.693-.043-1.382-.106l2.82,2.826a30.333,30.333,0,0,0-3.329.35h0L48.767,102.7q-.806-.153-1.6-.331l4.285,4.3c-.986.2-1.975.445-2.939.74h0L42,100.882q-1.32-.466-2.616-1.013a46.088,46.088,0,0,1,17.94-88.555q.657,0,1.311.018c-.485-.015-.971-.023-1.455-.023l-.522,0L54.312,8.96a30.884,30.884,0,0,0,3.088.155c.243,0,.49,0,.736-.009l2.3,2.31q.7.046,1.387.113L59.358,9.053a30.641,30.641,0,0,0,3.29-.39l3.478,3.487q.811.157,1.616.343L63.716,8.457c.977-.206,1.956-.465,2.911-.769l6.326,6.342q1.049.379,2.083.809L67.581,7.367c.881-.313,1.759-.672,2.612-1.069L82.952,19.09l.14.094A46.368,46.368,0,0,1,95.541,31.633c.053.078.106.157.157.235L108.45,44.652c-.387.86-.737,1.749-1.041,2.641h0l-7.477-7.5q.429,1.035.8,2.085L107.1,48.26a30.337,30.337,0,0,0-.738,2.948l-4.1-4.109q.185.8.339,1.617l3.568,3.577a31.008,31.008,0,0,0-.347,3.337h0l-2.61-2.616q.066.693.11,1.388l2.464,2.471c0,.091,0,.187,0,.287a31.108,31.108,0,0,0,.211,3.609l-2.585-2.591q-.011.621-.037,1.241L106.2,62.26a30.45,30.45,0,0,0,1.271,4.96L103.1,62.833q-.066.567-.147,1.131l5.347,5.36a30.548,30.548,0,0,0,6.7,9.7c-.064.17-.128.338-.194.508L102.395,67.093q-.112.522-.236,1.041l12.286,12.317q-.526,1.3-1.111,2.573l-11.967-12q-.15.485-.311.967l11.87,11.9q-.593,1.239-1.238,2.446L100.063,74.685q-.134.329-.273.657c-.034.081-.068.163-.1.244l11.552,11.581q-.618,1.115-1.281,2.2l-.154.047h0L98.515,78.1q-.213.423-.435.841l10.76,10.787c-.887.3-1.774.655-2.635,1.044L96.746,81.29q-.242.4-.49.787l9.08,9.1c-.805.4-1.606.833-2.379,1.3l-8.187-8.207q-.266.37-.54.736l7.943,7.963c-.733.475-1.456.991-2.15,1.531h0L92.6,87.063q-.292.347-.59.687l7.306,7.325c-.665.551-1.316,1.138-1.935,1.747l-7.142-7.16-.326.328-.312.31,7.147,7.165c-.6.624-1.178,1.283-1.723,1.958h0l-7.333-7.351q-.34.3-.686.59l7.459,7.478c-.531.7-1.039,1.431-1.507,2.175h0l-8-8.022q-.365.274-.735.54l8.254,8.275c-.459.779-.888,1.589-1.276,2.408l-9.173-9.2q-.39.248-.787.489l9.56,9.584c-.378.869-.72,1.767-1.015,2.668h0L78.89,98.143q-.417.221-.841.435l11.324,11.353q-1.15.7-2.333,1.349L75.54,99.751l-.275.118q-.311.131-.624.258l11.571,11.6c-.808.427-1.624.836-2.452,1.229L71.954,101.12q-.481.162-.964.311l11.9,11.928q-1.274.579-2.58,1.1L68.1,102.226q-.518.124-1.039.236L79.39,114.818c-.162.062-.322.122-.485.183A30.483,30.483,0,0,0,69.5,108.585ZM62.306,93.443l-1.147.192a.28.28,0,0,0-.194.1.285.285,0,0,0-.029.213l.8,4.793a.289.289,0,0,0,.1.193.218.218,0,0,0,.115.036h.019a.538.538,0,0,0,.08-.006l1.146-.193a.23.23,0,0,0,.222-.31l-.283-1.694.977-.163a.471.471,0,0,1,.059-.005.2.2,0,0,1,.13.042.272.272,0,0,1,.09.175l.24,1.442a.291.291,0,0,0,.1.194.232.232,0,0,0,.134.036.549.549,0,0,0,.081-.007l1.138-.19a.289.289,0,0,0,.193-.1.281.281,0,0,0,.028-.213l-.347-2.085a1.031,1.031,0,0,0-.367-.672.905.905,0,0,0-.572-.19c-.044,0-.091,0-.139.007l.466-1.849c.022-.086.015-.145-.022-.182a.16.16,0,0,0-.117-.041.426.426,0,0,0-.064.005L64,93.16a.434.434,0,0,0-.22.094.371.371,0,0,0-.109.212l-.475,1.85-.3.049-.283-1.7a.289.289,0,0,0-.1-.193.234.234,0,0,0-.134-.036A.507.507,0,0,0,62.306,93.443ZM46.084,96.307l1.281.346-.274,1.013a.269.269,0,0,0,.015.218.325.325,0,0,0,.2.119l1.093.3a.468.468,0,0,0,.1.016h.016a.217.217,0,0,0,.1-.024.289.289,0,0,0,.115-.183l.516-1.912a2.263,2.263,0,0,0,.067-.518,6.106,6.106,0,0,0-.036-.717l-.186-1.813A.351.351,0,0,0,49,92.932a.429.429,0,0,0-.212-.12l-1.947-.526a.579.579,0,0,0-.145-.021.346.346,0,0,0-.107.015.36.36,0,0,0-.183.144L45.334,93.9a5.524,5.524,0,0,0-.391.6,2.3,2.3,0,0,0-.2.481l-.515,1.911a.278.278,0,0,0,.008.216.274.274,0,0,0,.182.115l1.065.287a.45.45,0,0,0,.112.017.207.207,0,0,0,.1-.024.289.289,0,0,0,.115-.184l.274-1.012ZM69.5,91.643l-1.912.638a.449.449,0,0,0-.212.134.344.344,0,0,0-.072.221l-.082,1.821a5.775,5.775,0,0,0,.006.718,2.181,2.181,0,0,0,.1.512l.626,1.878a.289.289,0,0,0,.126.176.186.186,0,0,0,.075.019h.013a.393.393,0,0,0,.127-.023l1.046-.349a.23.23,0,0,0,.171-.34l-.332-1,1.259-.419.332,1a.265.265,0,0,0,.133.173.208.208,0,0,0,.088.017.469.469,0,0,0,.141-.026l1.074-.358a.231.231,0,0,0,.171-.341l-.626-1.878a2.259,2.259,0,0,0-.231-.468,5.88,5.88,0,0,0-.426-.578l-1.157-1.408a.325.325,0,0,0-.276-.144A.517.517,0,0,0,69.5,91.643ZM40.858,90a.287.287,0,0,0-.14.164l-1.959,4.446a.231.231,0,0,0,.139.355L42.39,96.5a.382.382,0,0,0,.135.037h.013a.2.2,0,0,0,.067-.012.283.283,0,0,0,.141-.163L43.7,94.2a.231.231,0,0,0-.137-.355l-1-.438a.373.373,0,0,0-.148-.037.2.2,0,0,0-.067.012.283.283,0,0,0-.141.163l-.49,1.112-.941-.415,1.5-3.4a.283.283,0,0,0,.024-.215.277.277,0,0,0-.162-.14l-1.064-.469a.377.377,0,0,0-.148-.037A.2.2,0,0,0,40.858,90Zm34.449,2.975a.3.3,0,0,1,.128.145.244.244,0,0,1,.026.158.172.172,0,0,1-.1.123l-1.8.91a.289.289,0,0,0-.155.15.284.284,0,0,0,.036.212l.4.782a.281.281,0,0,0,.149.156.13.13,0,0,0,.046.008h.011a.349.349,0,0,0,.157-.045l2.114-1.068a1.746,1.746,0,0,0,.859-.817,1.2,1.2,0,0,0-.069-1.061l-.355-.7a1.125,1.125,0,0,0-.694-.658,1.376,1.376,0,0,0-.307-.034,1.914,1.914,0,0,0-.606.109l-1.065.37a.221.221,0,0,1-.087.019.2.2,0,0,1-.08-.018.257.257,0,0,1-.121-.124.245.245,0,0,1-.026-.166.185.185,0,0,1,.105-.125l1.559-.787a.275.275,0,0,0,.155-.151.281.281,0,0,0-.036-.212l-.4-.8a.282.282,0,0,0-.15-.156.186.186,0,0,0-.056-.008.352.352,0,0,0-.157.044l-1.874.948a1.734,1.734,0,0,0-.863.818,1.2,1.2,0,0,0,.073,1.059l.355.7a1.124,1.124,0,0,0,.689.659,1.336,1.336,0,0,0,.309.036,1.9,1.9,0,0,0,.6-.108l1.076-.367a.234.234,0,0,1,.091-.02A.172.172,0,0,1,75.308,92.976Zm-38.971-.97-.562.886a.267.267,0,0,0-.05.212.321.321,0,0,0,.153.172l.955.607a.348.348,0,0,0,.161.06H37a.167.167,0,0,0,.038,0A.281.281,0,0,0,37.2,93.8l1.061-1.67a2.194,2.194,0,0,0,.219-.474,6.149,6.149,0,0,0,.178-.695l.362-1.786a.362.362,0,0,0-.016-.233.432.432,0,0,0-.167-.176l-1.7-1.082a.443.443,0,0,0-.236-.08.352.352,0,0,0-.22.084l-1.463,1.087a5.911,5.911,0,0,0-.553.456,2.256,2.256,0,0,0-.338.4L33.268,91.3a.284.284,0,0,0-.057.208.28.28,0,0,0,.14.165l.93.591a.333.333,0,0,0,.171.06.174.174,0,0,0,.038,0,.287.287,0,0,0,.164-.14l.563-.886ZM79.113,86.38l-2.858,1.982a.23.23,0,0,0-.068.375l2.768,3.993a.28.28,0,0,0,.17.132l.021,0h.01a.309.309,0,0,0,.175-.067l2.859-1.982a.231.231,0,0,0,.067-.376l-.5-.721a.279.279,0,0,0-.169-.132l-.031,0a.315.315,0,0,0-.175.067l-1.7,1.179-.367-.53,1.2-.833a.23.23,0,0,0,.068-.374l-.457-.66a.285.285,0,0,0-.17-.133l-.03,0a.311.311,0,0,0-.175.068l-1.2.833-.328-.475,1.7-1.178a.232.232,0,0,0,.067-.376l-.5-.721a.276.276,0,0,0-.169-.132.114.114,0,0,0-.031,0A.32.32,0,0,0,79.113,86.38ZM31.6,87.723a.225.225,0,0,1,.092.169.276.276,0,0,1-.078.18l-.965,1.1a.231.231,0,0,0,.024.381l.868.762a.308.308,0,0,0,.177.087h.02a.278.278,0,0,0,.184-.113L33.313,88.7a1.033,1.033,0,0,0,.289-.709.947.947,0,0,0-.309-.666l1.728-.807c.078-.037.121-.082.127-.133a.2.2,0,0,0-.088-.162l-.867-.761a.443.443,0,0,0-.213-.112.321.321,0,0,0-.042,0,.414.414,0,0,0-.191.054l-1.732.8-.225-.2,1.138-1.3a.23.23,0,0,0-.024-.381l-.873-.767a.294.294,0,0,0-.185-.088h-.012a.286.286,0,0,0-.184.113l-3.206,3.649a.231.231,0,0,0,.024.382l.873.767a.3.3,0,0,0,.187.088h.011a.287.287,0,0,0,.184-.113l1.133-1.291Zm51.246-4.65L80.284,85.43a.281.281,0,0,0-.109.186.277.277,0,0,0,.093.194l3.291,3.574a.284.284,0,0,0,.184.109h.01a.289.289,0,0,0,.187-.094l2.56-2.355a.233.233,0,0,0,.015-.382l-.594-.644a.285.285,0,0,0-.186-.109h-.006A.287.287,0,0,0,85.54,86l-1.523,1.4-.437-.474,1.076-.99a.285.285,0,0,0,.108-.187.281.281,0,0,0-.093-.194l-.544-.59a.28.28,0,0,0-.186-.109h-.005a.286.286,0,0,0-.189.094l-1.076.99-.392-.425,1.522-1.4a.285.285,0,0,0,.109-.185.281.281,0,0,0-.093-.2l-.594-.646a.289.289,0,0,0-.187-.108H83.03A.3.3,0,0,0,82.842,83.073ZM26.231,57.4A31.093,31.093,0,1,0,57.325,26.309,31.129,31.129,0,0,0,26.231,57.4Zm74.25,6.313.377-.216-2.488-6.718,4.042-2.122-.1-.416H97.43L96.122,50.71l-.206-.558-.207.558L94.4,54.243H89.52l-.1.416,4.042,2.122L90.971,63.5l.378.216,4.566-5.607Zm-77.181,0,.378-.216L21.19,56.781l4.042-2.122-.1-.416H20.25L18.941,50.71l-.207-.558-.206.558-1.309,3.533h-4.88l-.1.416,4.042,2.122L13.791,63.5l.377.216,4.566-5.607Zm47.966-45.2a1.071,1.071,0,0,0-.518.31,1.809,1.809,0,0,0-.334.538l-.982,2.362a1.845,1.845,0,0,0-.147.617,1.055,1.055,0,0,0,.148.581,1.955,1.955,0,0,0,.543.563A5.021,5.021,0,0,0,71,24.034a4.928,4.928,0,0,0,1.106.338,2.585,2.585,0,0,0,.392.032,1.527,1.527,0,0,0,.385-.046,1.055,1.055,0,0,0,.517-.305,1.851,1.851,0,0,0,.334-.539l.982-2.361a1.876,1.876,0,0,0,.147-.617,1.079,1.079,0,0,0-.147-.585,1.9,1.9,0,0,0-.537-.564,5.977,5.977,0,0,0-2.128-.885,2.561,2.561,0,0,0-.389-.032A1.512,1.512,0,0,0,71.266,18.517Zm-30.186.566-1.106.445a.289.289,0,0,0-.167.137.282.282,0,0,0,.017.214l.739,1.837c.042.107.085.2.123.278a1.357,1.357,0,0,0,.126.2c.047.062.1.126.158.191s.132.145.211.226l1.368,1.431a.347.347,0,0,0,.208.126l.047,0a.526.526,0,0,0,.192-.041L44.8,23.4a.475.475,0,0,0,.2-.136.352.352,0,0,0,.063-.236l0-1.978c0-.132,0-.23,0-.31a2.406,2.406,0,0,0-.018-.247,1.409,1.409,0,0,0-.05-.234c-.022-.076-.056-.17-.1-.286l-.739-1.837a.287.287,0,0,0-.136-.167.2.2,0,0,0-.075-.014.369.369,0,0,0-.139.032l-1.093.439a.279.279,0,0,0-.167.136.275.275,0,0,0,.018.214l.769,1.913a.818.818,0,0,1,.041.145,1.324,1.324,0,0,1,.018.163l.067,1.112a.214.214,0,0,1-.012.113.13.13,0,0,1-.073.058l-.076.031a.158.158,0,0,1-.062.014.089.089,0,0,1-.032-.005.211.211,0,0,1-.086-.074l-.718-.842a1.023,1.023,0,0,1-.1-.13.746.746,0,0,1-.069-.133l-.772-1.921a.261.261,0,0,0-.146-.163.248.248,0,0,0-.074-.012A.423.423,0,0,0,41.08,19.083Zm23.374,1.4a.281.281,0,0,0-.112.184l-.214.851a.231.231,0,0,0,.2.328l2.3.578a2.346,2.346,0,0,0,.566.076,1.435,1.435,0,0,0,.618-.13,1.2,1.2,0,0,0,.643-.847l.192-.763a1.119,1.119,0,0,0-.094-.952,1.664,1.664,0,0,0-.738-.541l-1.046-.418a.205.205,0,0,1-.128-.109.262.262,0,0,1-.01-.173.245.245,0,0,1,.09-.144.171.171,0,0,1,.1-.033.285.285,0,0,1,.059.008l1.694.427a.5.5,0,0,0,.107.014.208.208,0,0,0,.109-.027.28.28,0,0,0,.112-.184l.218-.866a.287.287,0,0,0-.012-.215.281.281,0,0,0-.184-.112l-2.036-.512a2.351,2.351,0,0,0-.571-.077,1.429,1.429,0,0,0-.618.13,1.2,1.2,0,0,0-.638.849l-.192.763a1.126,1.126,0,0,0,.089.95,1.635,1.635,0,0,0,.734.54l1.052.427a.2.2,0,0,1,.125.1.3.3,0,0,1,0,.194.25.25,0,0,1-.085.138.163.163,0,0,1-.1.033.222.222,0,0,1-.058-.008l-1.956-.491a.457.457,0,0,0-.108-.015A.2.2,0,0,0,64.453,20.478Zm-17.18-.9-1.057.255a.277.277,0,0,0-.184.11.286.286,0,0,0-.014.216l.284,1.18a1.985,1.985,0,0,0,.239.587,1.025,1.025,0,0,0,.439.388,1.774,1.774,0,0,0,.722.146h.058a4.452,4.452,0,0,0,1.014-.143,4.361,4.361,0,0,0,1.031-.364,1.76,1.76,0,0,0,.58-.46,1.068,1.068,0,0,0,.22-.545,1.912,1.912,0,0,0-.052-.632l-.868-3.608a.28.28,0,0,0-.111-.185.211.211,0,0,0-.112-.028.46.46,0,0,0-.1.014l-1.144.276a.231.231,0,0,0-.2.325l.8,3.316a.378.378,0,0,1-.024.265q-.061.119-.374.194a1.29,1.29,0,0,1-.285.041.306.306,0,0,1-.165-.037.363.363,0,0,1-.149-.222l-.214-.89a.288.288,0,0,0-.111-.185.21.21,0,0,0-.111-.028A.474.474,0,0,0,47.273,19.582Zm12.425.277a.28.28,0,0,0-.086.2l-.1.887a.287.287,0,0,0,.041.212.291.291,0,0,0,.2.086l3.173.357a.476.476,0,0,0,.059,0,.242.242,0,0,0,.153-.043.29.29,0,0,0,.086-.2l.1-.886a.281.281,0,0,0-.041-.212.287.287,0,0,0-.2-.087l-.723-.081.282-2.5.723.081a.452.452,0,0,0,.058,0,.245.245,0,0,0,.154-.043.279.279,0,0,0,.086-.2l.1-.9a.283.283,0,0,0-.04-.212.289.289,0,0,0-.2-.086l-3.173-.357a.453.453,0,0,0-.058,0,.245.245,0,0,0-.154.044.283.283,0,0,0-.086.2l-.1.9a.278.278,0,0,0,.04.212.284.284,0,0,0,.2.086l.737.083-.282,2.5-.738-.084c-.021,0-.041,0-.058,0A.236.236,0,0,0,59.7,19.859Zm-4.927-4.008-.78.023a.281.281,0,0,0-.2.07.285.285,0,0,0-.057.207l.144,4.856a.281.281,0,0,0,.069.2.267.267,0,0,0,.189.059h.02l1.123-.032a.29.29,0,0,0,.2-.07.283.283,0,0,0,.058-.209l-.074-2.472L56.792,20l.027.922a.279.279,0,0,0,.07.2.264.264,0,0,0,.189.058H57.1l1.124-.033a.281.281,0,0,0,.2-.069.286.286,0,0,0,.058-.209l-.144-4.855a.29.29,0,0,0-.07-.205.275.275,0,0,0-.191-.058h-.017l-1.125.033a.23.23,0,0,0-.261.277l.048,1.6-1.5-1.621a.608.608,0,0,0-.2-.151.576.576,0,0,0-.217-.038ZM.145,78.781,0,78.386c.562-.581,1.106-1.191,1.62-1.814l36.4,36.491c-.665.552-1.316,1.139-1.934,1.748Zm26.7,31.736-2.025-2.03a30.412,30.412,0,0,0-4.029-7.727l13.344,13.378A60.841,60.841,0,0,1,26.849,110.516ZM2.187,75.863c.536-.691,1.05-1.416,1.528-2.155l37.162,37.256c-.732.475-1.455.99-2.149,1.532Zm39.474,34.609L4.206,72.923c.466-.773.9-1.575,1.3-2.386l16.7,16.744a46.537,46.537,0,0,0,5.122,5.135l16.712,16.754c-.806.4-1.606.833-2.379,1.3h0ZM32.308,96.13a45.911,45.911,0,0,0,7.641,3.973l7.594,7.613c-.887.3-1.774.655-2.636,1.044ZM62.476,98.2l-.666-3.993.074-.012.328,1.966,1.6-.267.523-2.11.081-.013L63.9,95.883l.3-.05a1.841,1.841,0,0,1,.3-.027.847.847,0,0,1,.4.085.664.664,0,0,1,.314.518l.218,1.3-.074.013-.218-1.3a.587.587,0,0,0-.29-.468.827.827,0,0,0-.359-.07,1.689,1.689,0,0,0-.28.025l-1.989.332.325,1.952-.074.012h0ZM47.992,97.49l.337-1.245L45.5,95.483l-.337,1.246-.072-.02.416-1.541a2.07,2.07,0,0,1,.134-.365,2.111,2.111,0,0,1,.179-.305l.784-1.062a1.511,1.511,0,0,1,.273-.292.33.33,0,0,1,.214-.068.644.644,0,0,1,.17.025l.709.191a.4.4,0,0,1,.3.229,1.846,1.846,0,0,1,.091.4l.182,1.314a2.317,2.317,0,0,1,0,.354,2.073,2.073,0,0,1-.068.382l-.417,1.542Zm-1.084-4.271a1.634,1.634,0,0,0-.242.265l-.784,1.061a2.4,2.4,0,0,0-.167.289,1.923,1.923,0,0,0-.13.354l-.061.224,2.824.761.06-.224a2.073,2.073,0,0,0,.066-.37,2.6,2.6,0,0,0,0-.335l-.182-1.314a1.925,1.925,0,0,0-.08-.36.34.34,0,0,0-.256-.2l-.71-.193a.585.585,0,0,0-.144-.021A.29.29,0,0,0,46.908,93.218ZM68.573,96.93l-.5-1.515a2.182,2.182,0,0,1-.09-.377,2.3,2.3,0,0,1-.019-.354l.067-1.318a1.591,1.591,0,0,1,.067-.394.418.418,0,0,1,.3-.248l.7-.232a.594.594,0,0,1,.185-.034h.021a.309.309,0,0,1,.17.058,1.852,1.852,0,0,1,.3.281l.877,1a2.3,2.3,0,0,1,.2.294,2.1,2.1,0,0,1,.154.356l.5,1.515-.071.024-.408-1.224-2.775.924.409,1.224-.071.023Zm.536-4.367-.7.232a.357.357,0,0,0-.257.224,1.635,1.635,0,0,0-.056.354l-.067,1.319a2.41,2.41,0,0,0,.02.334,2.02,2.02,0,0,0,.086.366l.074.22,2.775-.924-.074-.22a1.982,1.982,0,0,0-.15-.346,2.367,2.367,0,0,0-.185-.278l-.877-1a1.845,1.845,0,0,0-.266-.255.288.288,0,0,0-.176-.058A.482.482,0,0,0,69.109,92.563ZM39.67,94.569,41.3,90.864l.068.03-1.6,3.637,2.388,1.052.595-1.352.069.031L42.2,95.681h0Zm7.976.746-1.136-.306L47.147,94a.288.288,0,0,1,.087-.077.107.107,0,0,1,.052-.013h.005a.1.1,0,0,1,.026,0l.18.049a.107.107,0,0,1,.068.049.273.273,0,0,1,.037.111l.043,1.192h0Zm26.609-.524-.034-.067,1.667-.842a.787.787,0,0,0,.406-.419.645.645,0,0,0-.039-.531l-.2-.388a.71.71,0,0,0-.329-.375.517.517,0,0,0-.158-.032h-.032a.7.7,0,0,0-.187.026l-1.557.426a.727.727,0,0,1-.194.029.55.55,0,0,1-.159-.022.567.567,0,0,1-.3-.321l-.278-.55a.637.637,0,0,1-.034-.533.79.79,0,0,1,.41-.42l1.485-.751.034.067-1.486.751a.714.714,0,0,0-.37.38.564.564,0,0,0,.029.473l.277.549a.5.5,0,0,0,.259.28.454.454,0,0,0,.14.022.565.565,0,0,0,.167-.027l1.558-.426a.777.777,0,0,1,.2-.029.668.668,0,0,1,.214.035.775.775,0,0,1,.374.416l.2.389a.72.72,0,0,1,.045.587.849.849,0,0,1-.446.464l-1.666.842ZM68.787,93.54a.282.282,0,0,1,.03-.113.119.119,0,0,1,.065-.054l.178-.058a.11.11,0,0,1,.037-.006H69.1a.1.1,0,0,1,.041.01.3.3,0,0,1,.091.072l.695.969-1.116.373Zm-62.6-3.732L4.58,88.192A61.249,61.249,0,0,1,.971,80.887L13.9,93.846A30.3,30.3,0,0,0,6.192,89.807Zm30.5,3.186.691-1.089L34.91,90.337l-.691,1.089-.063-.041.856-1.348a2.109,2.109,0,0,1,.236-.308,2.055,2.055,0,0,1,.263-.238l1.063-.781a1.543,1.543,0,0,1,.347-.2.288.288,0,0,1,.111-.021.513.513,0,0,1,.27.094l.62.393a.4.4,0,0,1,.218.308,1.82,1.82,0,0,1-.032.4L37.89,91a2.4,2.4,0,0,1-.1.339,2.06,2.06,0,0,1-.179.343l-.856,1.348Zm.238-4.4a1.542,1.542,0,0,0-.311.18l-1.064.78a2.482,2.482,0,0,0-.246.226,2.012,2.012,0,0,0-.23.3l-.123.2,2.467,1.568.125-.2a1.922,1.922,0,0,0,.173-.336,2.376,2.376,0,0,0,.1-.317l.219-1.309a1.793,1.793,0,0,0,.029-.368.337.337,0,0,0-.183-.272l-.62-.394a.435.435,0,0,0-.229-.078A.267.267,0,0,0,36.925,88.592ZM79.4,91.931,77.089,88.6l2.076-1.439.042.062-2.014,1.4,1.073,1.547,1.516-1.051.042.062-1.516,1.051,1.106,1.595,2.015-1.4.042.062L79.4,91.931h0ZM37,90.814l-.993-.631.909-.773a.271.271,0,0,1,.105-.048l.019,0h.007a.111.111,0,0,1,.057.018l.158.1a.118.118,0,0,1,.05.068.287.287,0,0,1,0,.116l-.313,1.151ZM31.576,89.45l-.055-.049.87-.991a.588.588,0,0,0,.179-.522,1.079,1.079,0,0,0-.369-.523l-1.516-1.331L29.38,87.521l-.057-.05L32,84.429l.057.049-1.317,1.5,1.222,1.073,1.965-.929.062.054-1.965.93.23.2a1.125,1.125,0,0,1,.4.58.669.669,0,0,1-.2.572l-.871.991Zm52.309-.917-2.742-2.978L83,83.844l.05.055-1.8,1.66,1.274,1.384L83.88,85.7l.051.055L82.574,87l1.316,1.429,1.8-1.661.051.056-1.859,1.711ZM56.2,84.783l.122-.49-.491-1.778h-.245V82.27H55.4l-.185.184.246.246v.184h-.184l-.613.122-.981.736h-.306l-.184-.368-.245-.122H52.7l-.92-.246-.368-1.042-.552-.674h-.245l-1.166-.92-.184-.428h-.184v-.185l-.368-.184-.185-.368-.428-.184v-.368l-.184-.184h-.307v-.491h-.184l-.552-1.41-.613-.858.184-.062.306.123.185-.368.061.307-.122.245.367.184-.122.307.491.061.307.613L48.226,77v.368h.491v.367h.368v.246h.184l.307.122.429.613h.306v.246h.184l.184-.061.428.551.491.123.8.552v.184H52.7l.613.246h.245l.49.245.246-.122,1.348.245,2.084-.735L59.2,78.714l1.472-.981-.246.368-1.226.736-.8.8v.184h-.184l-.122.367h-.185v.368h-.429v.122l.185.061-.246.122.122.123-.245.245v.184h-.49l.246-.122v-.245h-.122l-.246.245.122.122v.429l.184-.061.184.061-.491.245.122.307-.429-.122-.184.184v.92l.245.061-.061.184.92-.429-.245-.858.245-.122-.122-.123.245-.245.246-.674h.245v.367h.246v.185l-.184-.061-.43.184-.122.736.122.245-.122.122-.061,1.165-.491-.367-.061.674-.307.429ZM53.13,83.251h.491l.122-.368-.49-.122Zm.246-.981.122-.246-.245-.245Zm-1.716,0h.367l-.122-.246Zm4.291-.123.245-.122L55.95,81.9Zm-3.311,0,.368-.122v-.245l-.122.122h-.246Zm3.924-.245v-.245H56.44Zm-4.537,0h.246l-.368-.245Zm2.943-.613v.122h.368l.122.368.122-.122-.122-.123.367-.122.123-.367-.368.122h-.245l-.368-.122Zm-.246.368h.368l-.122-.246Zm-.613-.491h.246v.245H54.6l.122-.367-.613-.123Zm-.491.245v-.245l.368.122v-.368l-.246-.122-.367.368-.246-.122-.367.122.122.245.49-.122Zm-1.226-.491.122.368.122-.491h.368l-.613-.368h-.246v-.122l-.245-.367-.122.122-.491-.122v-.246l-.246.368-.122-.368h.245l-.245-.122-.245.246v.122H50.31v.367l.246-.122h.122v.368H50.8V80.8h.367v-.245l.491-.246-.123.246V80.8h-.122l.122.246.613-.123Zm-3.31-1.594.245.246v.246h.246l.367.122v-.246H49.7v-.122h.368v.246l.245-.123-.491-.368V79.2l.246.122h.122v-.245l-.736-.122Zm-.491-.98v.122h.245l.123.613.367-.613-.122-.122-.245.122.122-.246-.246-.122Zm-.368,0,.245.122v-.491ZM18.5,82.286,5.912,69.667c.387-.86.737-1.75,1.042-2.642l7.586,7.6A46.054,46.054,0,0,0,18.5,82.286ZM7.265,66.059A30.03,30.03,0,0,0,8,63.111l4.3,4.313a46.025,46.025,0,0,0,1.464,5.155h0Zm49.789,4.685.061-.245.613.368H58.1l.306.306-.184.061Zm-5.027-.552v-.306h-.184l-.307-.307-.583-1.409h.154l.246.49.122-.122.307.307.122.429h.245v.306l.246.613-.184.185Zm2.758-.552-.735-.122-1.41-.8v-.184h-.306l-.429-.306v-.185H51.72l-.8-.122V68.1l-.122-.3.306-.123,1.349.368,1.472.981,1.655.736-.061.245ZM38.234,68.66l-.307-.306-.122-.736-.429-.552h-.368L36.7,66.76v-.429h.185l.613-.122L37.8,65.9l.122-.859L37.8,64.8l.122-.368L37.8,62.04l-.613-.429-.185-.306h-.245L36.455,61l.122-.613-.122-.368.49-1.1V57.443l-.49.367-.122.981-.184.184-.307-.184-.122-1.1.245-.613v-.736l-.061-.184.429.674-.49.981.245.061v-.245h.246v-.307l.184.061.429-.429v-.367l.185-.184.184.061v.919h-.246v.307l.368.491-.368.061v.307l.981-.614-.061-.428.184.552.367.367v.491l-.122.307h-.245V59.4l-.031.061H38.3v.184l.428.184.185-.061.017.035.044-.22.491.491.469.17.144-.048.674.122v.245h-.184l-.307.307-.122,2.084-.122.122-.122,1.348-.368.981v.8l-.552-.368h-.613l-.184.061.184-.061h.613l.429.429-.058.187.181.181-.122.122v.858l-.184.184-.245-.123-.185.093.061.031.123-.123.184.185-.061.184-.122-.122-.307.307-.184.428Zm-.061-.306.184.184-.184-.449Zm.184.184.223-.784-.04-.013ZM37.8,67.373l.166.221-.166-.4Zm.926-.212.115.029.307-.123Zm-.374-.094.1.024-.153-.1Zm-.307,0,.075-.074-.491-.134ZM38.3,66.7l.367.245.368-.122v-.736H38.3Zm-1.165.04-.062.082.214-.107-.03-.015Zm.674-.286h.245v.185l.018.025.105-.21v-.368h-.123l-.122.123H37.8Zm-.381-.106.043.014-.031-.031Zm1.729-1.855-.368.613.491.122.246-.368v-.49Zm-1.1.551.491.185Zm0-.735v.735l.105-.841Zm.491.552h.245v-.245Zm-.378-.715.011-.081-.062-.184-.02-.021Zm.252-.063.065.043.367-.368Zm-.364-.386.024.1.16-.159Zm.613-.307.246-.061-.061-.03Zm.613-.122h.185l.078-.131ZM37.927,63.2l.246-.122L38.009,63Zm.49-.061.245-.122L38.54,62.9Zm1.189-.122.037-.061-.184-.185Zm-.7-.122.122-.123-.246-.122Zm.8-.246-.245-.245-.148-.049ZM38.3,62.591l.043-.026-.012-.058Zm.715-.265.128-.025-.046-.016Zm-1.021-.654h.061l.123-.122-.031-.031Zm-.613-.122L37.5,61.3h-.2Zm2.39-.184.123.122v-.245l.039-.148Zm-.245.061-.736-.122Zm-1.962-.005V61.3H37.5Zm.675-.117-.185.061.041.041.2-.1-.093-.092Zm.725-.2.01.079.306-.123h-.184Zm-.481-.167-.306.184.016.05.351-.234-.107-.322Zm1.129.1.036-.161-.134-.067ZM36.7,60.753l.113.042-.113-.227Zm2.208-.062h.184l.05-.117Zm-.674-.122.006-.014-.093-.023Zm.184-.061.007.054.238-.238-.021-.041Zm.8-.113.056-.131-.245-.246ZM37.8,60.385l.012.005.233-.067Zm-.859-.061-.246-.061Zm1.573-.2.082.082-.061-.122Zm-.47-.471.09.27.033-.147-.082-.2Zm-.491-.613.122.491v-.367l-.082-.246Zm-.49-.245v.061h.246Zm0,0,.184-.184.351.049.016-.049-.552-.061Zm13.855,9.38V68.1l.03.072Zm11.219-1.717h-.735l-.307.123-.122-.675.122-.122-.184-.184-.184.061.122-.246-.92-.552-.122.122-1.839.123-.553-.307.122-.429h.246l.061-.245h.735l.614-.245h.858l.122.122.246-.122.368.122.367-.246,1.778.92.122.735-.122.307.245.061-.245.061-.307.613-.367.123Zm-1.287-1.961.491.122.122.245v.614l.122.245h.49l.368-.368v-.613H62.2v-.245l-.981-.246Zm-2.207.122h1.593l.246.122h.246v-.368l-.614-.245h-.49l-.614.245h-.367Zm11.525.061.8-1.533.184.184v.614h-.122l-.061-.307-.429.552-.368,1.594.061.184L70.05,65.9l.122.368-.245.122ZM71.521,65.9l-.122-.8.367-.185-.061-.184-.429.122v-.245h.246V64.43l.061-.306-.061-.061.674-1.349h-.061l-.061.184-.061-.184.184-.306.067.133.042-.379-.17-.306.047-.076-.169-.17.122-.122L72.5,61v-.613l-.123-.859v-.245l-.306-.307-.429-.122-.184-.368-.368-.122-.429.061v-.306h-.306v-.123l.49-.367h.614l.122-.122.367.367.307-.306L72.5,57.2l-.123-.246.246-.858-.122-.552-.246-.061.368-.123-.122-.122V54.5l.49-1.716-.123-.123.246-.245-.122-.736v-.612l.184-.185.306-.184v-.185l.491.307.184.552.306-.184.122.613.614,1.226.367.368.123.858-.246.859.122.245-.245.736v.245l.245,1.227h-.122l-.061-.185-.368.123-.429-.429.1.245h0l.02.049-.24-.172v-.035l-.122-.087v-.491l-.184-.184-.184.061v1.226l.49,1.716-.245.736L74.1,61.366l.122.122v.981l-.245.735.122.122v1.716l-.246-.122-.052-.087-.07-.035-.368-.613-.222-1.39-.513.1-.061.735L72.5,62.96l.48-.28-.48.1-.062.736-.061-.674v.735l-.367.613-.368,1.471.245.491Zm.184-1.409h.184l-.2-.05Zm-.031-.093.092-.092-.184-.184Zm1.93-.092.062.061.184-.184V63.2l-.122-.245.246-.736V61.61l-.123-.122v-.613l.246-.981v-.981L73.6,56.951V55.91h.307l.674.674-.8-.92-.307.184-.122.614.245.858h-.122l-.061-.184-.428,1.287.184.061.491-.98.061.428-.123.246.369.735v1.41H73.6v.184L73.36,61v.552l.429-.245.061.552-.122.245.122.245-.122.307-.246.061.246.859-.061.307h-.1Zm-1.593-.491-.043.235.288-.48Zm-.123-.184h.246v-.368Zm1.639-.106.077-.078-.094-.094Zm-1.148-.69.736-.429.068.154.018-.011-.107-.192Zm.246-.859-.185.429.279-.465Zm.461.364-.032-.058h-.368Zm.03-.364.058-.029-.058-.155Zm-.122-1.226.077.234-.077-.663Zm-.123-.613-.122.735.246-.859-.123-.122Zm1.227-.123-.082.817.2-.817v-.368Zm-.614-.552.246-.122-.123-.368Zm-.32-.693.014-.042h-.184Zm1.67-1.514.49-.122-.49-.246Zm-62.854,8.56L8.2,62.027a30.814,30.814,0,0,0,.347-3.339l2.85,2.857c.128,1.427.324,2.864.584,4.271v0ZM69.5,63.511l-.184.061v-.185H69.13l-.306-.184.428-.184.552-.429v-.859l-.8-1.042-.552-.122v.8l-.061.061.061.184-.674.429h-.736l-.552-.8.253.084-.192-.268.192.115-.068-.115h-.184v-.552l.122-.306-.184-.122.429.061-.122.306.674-.367.307.061.061-.061.858.245,1.1.613.184-.061.184.307.307.184V62.1l.122.122-.246.614.123.122-.185.184H70.05v.245l.368.185-.185.307Zm-1.962-1.594h.246l.245-.2Zm-.061-.368.246-.92-.123-.367.122-.122-.361.206.116.039-.368.368v.306l.246.061-.307.062.246.122.184-.061ZM66.862,61l.184.185-.184-.429.064-.159-.064.036V61Zm39.129-.229h0Zm-94.7-.6-2.71-2.717c0-.091,0-.188,0-.288a31.125,31.125,0,0,0-.211-3.61L11.219,56.4c-.006.319-.01.646-.01.974,0,.926.028,1.863.083,2.785v0ZM39.4,59.648l.061-.184h-.185v-.184l-.245-.368v-.367l-.061.306L38.3,57.565v-.491l.613-.859v0l.306-.429.552.246v-.368l.246-.061v-.491l.552-.674.491-.368-.061.184-.185.307-.552.429-.122.367.122.307-.367.184-.123.246.552.429.246-.122.307.306v.736l.245.245-.307.061-.184-.184.184.184.674.061-.708.055.1.068-.123.041.061.02h.246l1.042-.122-.123.307v.858l-.184.185-.061-.061-.49.367-.184-.306-.92-.122-.122.306.428.429h.491l.245-.122v.122l-.627.09.321.094-.8.062Zm.428.062.2.058-.379-.242Zm.981-.981-.307.184.062.185h.8l-.061-.368-.245.122v-.122l.552-.246-.674.246-.123-.031Zm-1.533.061.2.246L39.3,58.61Zm.736-.061-.122-.307ZM39.03,58.3v.246l.122-.368.061-.246Zm-.613-1.042.245.368.368-.122-.122-.491-.368-.245Zm.735-.307.246.246-.246-.429Zm.674.061.015-.061h-.03Zm-.8-.8v.246l.306.306.329-.219-.023-.087.122-.123-.184-.184-.368-.245.552.428-.184.062-.368-.368Zm57.01.41-.02.01-.02-.01-2.573,3.16,1.4-3.776L92.52,54.8h2.755l.745-2.012.745,2.012H99.52l-2.307,1.21,1.4,3.776Zm-77,0-.02.01L19,56.626l-2.573,3.16,1.4-3.776L15.521,54.8h2.754l.745-2.012.746,2.012H22.52l-2.306,1.21,1.4,3.776Zm56.527,1.429.491-.062-.613-.061.28-.035.088-.087V57.2l-.122-.122V54.868l.245-.614-.184-.8.061.061-.123-.246-.245-.122-1.655-3.984L73.6,49.6v.245l-.122.429h-.245v.368h-.184l-.675-.184.123-.245-.123-.368.123-.367-.123-.246h.246l-.061-.307-.185.061.246-.367.306-.429.368-.245.306.122-.122.49h.429l.552.428.185.307.588.1-.221-.221-.245.122L74.1,48.246V48l.061-.307.8.675v.184h.184l.8.428.245.675L76,49.063l-.365-.5-.437-.134-.066-.105-.058-.018-.266-.427-.082-.058.054.013-.012-.019-.086-.061.02.049-.24-.172-.037-.061-.085-.061-.367-.613v-.429l.98.307-.2.022.321.1-.552.061-.184-.061.327.817.409.1.068.11.055.014.242.387.677.226.675.552v.022l.122.1v.246L78.39,51.42l.365.259-.005.031.128.092-.122.674L78.2,52.6l-.11-.125-.013,0L76.3,50.453l.735.614.05.062.022.018-.072-.08.368.245-.386-.578-.043.026L75.568,49.6l.612.612-.8-.674h-.122l.919.8-.03-.01.153.132-.185-.061-.98-.613-.429.307.245,1.226L76.3,53.764l.122.612-.122.369v.245l-.246.858v1.1l.246.859-.123.307Zm.2-.164.164-.021,0-.059Zm.164-1.063.074.257-.074-1.361Zm-.122-1.1v1.226l.076.077-.07-1.309Zm.122,0,.122-.122.036-.433Zm-.122-.49.092.276.031-.031L76,54.662Zm.219-.916.026-.31-.1-.2Zm-1.077-2.394.733,1.345-.8-1.607Zm3.231.528.018.023.056-.04Zm-.09-.11.06-.043-.067-.074-.008.005-.8-.891Zm.067-.16.041.049h.049l.135-.1v-.087Zm-.677-.778.043.029.571.675h.165v-.184L76.9,49.962l-.447-.348.1.595.061-.307.429.307.035.07.026-.009v.061l.061.122-.024.074.147.049-.146.087.392.28.246.368.184.306h-.246l-.306-.306Zm1.024.519v-.184h-.122v-.123h-.1Zm-2.452-3.065.054.074.068.049.621.847.36.257.051.071.071.051.981,1.373v-.148L76.928,49.75,76.67,49.6l-.064-.087-.059-.035-.594-.81-.3-.094Zm.675,1.533.138-.046-.322-.138ZM74.1,49.351l.367.734-.122-.49.184-.184.123.122h.245l-.613-.491Zm2.043.592.041.082v-.246Zm-3.637.082h.245v-.246H72.5Zm3.371-.246.073-.03-.134-.215-.394-.088.148.149.246-.061Zm.061-.061.057.014.188-.076Zm-3.065-.674h.246V48.8h-.246Zm3-.491h0ZM59.137,57.319l.062-.184-.429-.307v-.245l-.368-.368.246-.122-1.166-.674-.245.491-.061-.491v.552l-.061.061-.061.184V56.4h-.184l-.368.245h-.49l-.8-.552-.122-1.165-.8.122-.368-.122-.123.122-.184-.184.859-.368-.061-.429h.8v.49h.429v.122h.122l.123.035v-.035l1.226.123.245-.246.92.246v.367h.552l.184.307v.245l.061.185.307-.185.122.491h-.245V56.4h.184v.122h-.184v.184l.245.368-.061.184h.184v.184l-.184.428Zm-2.823-.811.065.014.074-.049Zm-.487-1.151-.122.123v.306h.674l.307-.122.122-.307-.245-.061v-.367h-.185l-.184.061v-.184l-.184.367h-.368Zm1.778-.1.062-.023-.674-.306Zm-2.758-.513.062.01V54.74Zm0-.185.246-.122v-.246H54.6ZM74.893,57.5l-.086-.062.393.246Zm-.122-.123-.086-.061.392.246Zm-32.552.062v-1.1l-.246-.367.307-.429h.184l.062-.246.061.552-.246.49.246.613-.123.553Zm32.491-.062-.005-.012.1.073Zm-36.66-1.042L38.3,55.6l.428-.429.368.122.307-.735.491-.122-.123-.429.246-1.042h.245v.184h.122l.122-.429-.245-.061V51.8l-.245.368v.245l-.061.429-.061-.613h-.246l.246.061v.858l-.185-.061H39.4v.184l-.368.367-.122.8.613-.429.184-.674.061.429-.552.8-.122.092.061-.031-.429.429h-.306l-.552,1.1-.184-1.042v-.245L37.8,52.66l.429-.919.036.184.148-.368.674-.8-.429.307.364-.429h-.241v-.429l.123-.307-.368.061v.246l-.105.175.105-.053v-.184h.184l-.49.859-.194-.29-.236.473.184.061.674-.49-.49,1.042-.368.368-.246.8-.245-.061.245-.552-.981.674.122.368-.367.061V53.15l.245-.245-.122-.307.49-.122v-.245h-.429v-.122l.429-.123V51.5h.225l-.225-.061.429-.552h.184V50.7l.246-.429h-.429l-.859.736-.061-.491-.491.185.061.307.307-.123-.246.429.123.306h-.368v-.306l-.245-.491,1.961-1.594.307-.429-.061.184.122.123.184-.307.429-.122-.122-.8.306.185-.551-.429.367-.184H38.3v-.307l-.185.552-.061-.552.368-.184.245-.589v.221h.122v-.246l.307.123.464-.361-.882.235.049-.12h.185V46.04l.736-.855v0l.031-.031-.022.026.5-.3h-.2l-.276.275.766-.888h.185v-.184l.49-.491.061-.551.061.551-.026.091.076-.025-.05-.555v-.246l-.061-.307-.49.123-.368.368-.735.122.156-.235-.278.112.245-.368.185-.061-.123-.123.368-.367-.061-.307-.184.368h-.246v.245H39.46l.147-.245h-.27l.365-.455-.058-.1.368-.49-.307.307-.429-.185.675-.552.184.061.306-.428.085.127.16-.373.859-.368,1.287-1.165.122-.368-.245-.49,1.1-.675.306-.491,1.227-.49.041.041.191-.267-.048-.019V35.5l.429-.428L47,34.821v.246h.245l.061-.368.123.368.306-1.042-.061-.185,1.1-.122.981-.368.246.123.428-.307.185-.429.122.122.245-.245h1.472l.613-.245h.613l.92.306-.245.061v.246h.367v-.246h.184l.306.122V33.1H55.4l1.041-.429-.49-1.042h-.368V31.2l-.061-.184.429.307v.184h.367v.306l.307.061h.491l.8.43v.184h.2l-.257-.368-.981-.368L55.031,30.53H54.54v-.122l.859.122.491.49,1.1.613.858.245,1.226,1.1.614.122.367-.368h1.349l.428-.245.246-.675.429-.428.735-.122.185-.184-.061-.184.245.122h.245l.307.184v.49l-.245.614,1.226.735-.122,1.042-.491.306.919,1.533h.614l.674-.429.306-.428h.185v-.184l.367-.735.8-.8h.245l.675.675.122.551h-.246v.184l-.735.613v.184h-.185l-.245.246.736-.981-.307.185-.735.98,1.716.885v-.21h-.184l-.245-.246-1.165-.368.131-.175-.009-.009.061-.061-.052.07.175.175h.368l1.41.8-.436.054.251.13h1.471l1.226-.245v.122l-.735.367-.122-.122-.245.246-.368.246h-.613l-.172.122h.661l1.778-.8.061-.306.061.428-2.084.859.859.552.184.49,1.471.491,1.287,1.165.185.307.306.184V41.5l-.122-.429-.491-.307-.184-.306-.859-.736-1.9-.8v-.246l-.307-.306-.92-.368v-.237l-.245.175,1.1.429.245.735.8.122,1.1.491,1.042.92.184.307.307.184V41.5l1.1,1.961-.061.184L76,43.526l1.263,1.022-.159-.286-1.287-.92-.613-.981-.246-.858,1.165,2.022,1.288.92.245.49-.245-.122-.123-.221V45h.184l.429.307.122.552.245.061L77.9,46.1v-.245h-.429l-.735-.736-1.227-.613-.92-.122.307.613h.184v.368h.429l.246-.123,1.1.491.92.735.858,1.287v.307l-.735-.552v-.185H77.59l-.92-.367-.061.367L76,46.469l-.674-.429.245-.061V45.61h-.306l-.368-.245-.061.49.368.061-.429.428h-.246l-.551-.306v-.184h-.185l-.368-.122-.184.367h-.552l-.307.307.368.245-.368.246-.245-.368v-.246l.122-.245-.245-.061v-.307l-.491-.8-.246-.061.062-.185-.246.123-.061-.185.122-.245L70.172,43.1l.122-.246H70.05l-.061-.307-.061.246h-.246v.184l-.367-.245.122-.122-.184-.184-.306-.061.061-.184-.552-.307-.185-.306h-.245l-.491-.491h-.429l.123-.307-.307-.184h-.245l-.49-.122-.613.245H63.981l-.123-.122-.367.368-.429-.185v-.184h-.185l-.122-.245h.307v-.185l.184.061h.185v-.429L63.8,39.6v-.245h-.306l-.246.245-.122-.122-.184-.061.122-.307-.552.122-.368-.122-.368-.245h-.858l-.49.122-.674-.429-.122-.245.184-.307-.859-.122-.306.061-.062.184h-.245l-.245.122-.122-.245-.246.245-.123-.122h-.184V38.5h-.184l-.368-.246-.368.123.062-.184v-.306h-.185l-.245-.122-.552.306.49.122-.552.553-.184-.185.245-.368-.184-.061-.185.368h-.368v.246l.246.061-.735.306-.061-.245-.491.245-.184-.184v-.307h-.245l.122.307-.245.122-.062-.184-.061.8v.245l-.061.184-.245-.491-.429.184-.122.429.306-.122.061.307-.306.428-.185-.061.123.368-.368.122-.184.307h-.185v.184l-.306.184-.185-.367-.49.184v.429h.184l.306-.122-.122.552.184-.062.307.185-.368.245v.184h-.49v-.49h-.307l-.122-.123-.429.429.368.184L50,43.526l-.246-.122.061.429-.307.307-.428.184v.184h-.307l-.307.184.061.184-.735-.368-.674.368v.245h-.184L47,45.3l.184.306.246-.122.122.246.49-.123.428.246.123.674-.184-.061h-.428v.184l.122.246-.184.184-.123-.122h-.552v-.184h-.122l-.122.98-.491.736.307.184L47,48.614V48.8h-.184l-.123.246.429.307-.245.674-.859.122v.245H46.2l.122.246-.246-.123-.245.123-.185-.184.122-.122v-.184H45.59l-.184-.061-.122.674h.245v.184l-.367.674-.8-.245L42.1,53.887v.245l-.123.92h-.245v-.245h-.246v-.184l.246-.368v-.735l.245-.429.614-.184-.184-.185-.122.123-.184-.061.613-.8.49-.122.061-.368h.429v-.306h-.122l-.061.184-.062-.184.123-.122-.184-.185-.246.123-.49-.246-.49.246-.185-.062-.245.491.245.061-.184.368-.122-.122-.185.184.246.246v.367h-.246v.307h-.306l-.122.368H40.87v.674l-.184.061v.245l-.429.307-.8,1.165h-.368l-.307.307-.551,1.041Zm-.122-.919.122-.031-.122-.032Zm.735-.552.053-.027-.053-.587Zm.246-1.349-.246.735.654-1.349Zm-.246.429.122-.246-.245-.122Zm1.472-.122h.245v-.368Zm-1.961-1.349-.123.613.123.613.49-1.471v-.368Zm.612.859h.123v-.368Zm-.108-.375.108-.054.675-1.288ZM40.87,52.6l.122.246.367-.246-.245-.245Zm-1.349.246h.245V52.6Zm-.491,0,.245-.123v-.245Zm0-1.472v.368l-.246.368.123.367.367-.859.246-.245.122.122h.246v-.367l-.368-.246Zm-1.778.245-.184.061.368.184v-.246h.184l-.367-.1Zm2.881-1.471v.245h.184l.061.307-.122,1.1.368-1.41h.246v.429l-.123.429.368-.184-.122-.368.122-.368v-.184H40.87v-.613h-.184l-.246-.122-.822.475.577-.23h.368l.184.184v.184H40.44ZM37.62,51.618l-.184-.306Zm6.07-1.1.245.614.122-.246.246-.245-.122-.246Zm-5.947.491.25-.362,0-.006Zm2.269-.185.122.122-.122-.306ZM42.1,50.76l.367-.246V50.27Zm-2.636-.122.674-.552V49.9H39.95l-.49.246.118-.237-.3.175-.239.54.3-.356Zm3.494-.736.122.368h.246l.246-.245-.123-.49.123-.368.245-.246h.368l-.123-.245.246-.368.122.246.122-.49.49.245-.122-.245.122-.246v-.491h-.122l-.246.368-.245.122h-.368v.246l-.981.368-.613,1.1-.245-.246h-.491v.368h.245V49.9l-.367-.122-.123.368h.246l.122.122.246-.245.122.245.368-.368Zm-4.709-.044.05.351V49.84Zm6.793.044.246.246.245-.368-.245-.122Zm-7.357.061.046-.014-.018-.094Zm1.349-.184h.245v-.245H39.03l.122-.122v-.246h-.245l-.246.368.246.122.122-.122Zm2.329-.245h.246v-.246H41.36Zm-3.323-.294-.171.172H38.3v-.246Zm2.956.049.122-.245.245.122-.245-.246.122-.245.122-.122-.122-.246-.736.368-.367.368v.245l.491-.122Zm1.348-.368v.123h.368l.122-.246v-.245h-.122Zm-.735,0,.122.123.491-.613v-.246l.368-.245.122-.246V47.45h-.246l-.122.367H42.1v.246H41.85Zm-2.943,0,.491-.122v-.49l-.368.368V48.8h-.122Zm6.131-.245.491.122-.246-.367Zm.858-.735-.367.613.367.122.246-.613Zm-5.885.735v-.184h-.073Zm2.575-.245.613-.123-.122-.491-.122.246h-.122Zm.735-.368.123.245.245-.122-.122-.368Zm-3.469.126.036-.126h-.061Zm1.63,0,.368-.122-.246-.122Zm-.613-.122h.307l.38-.212Zm-.777-.122.041.122v-.368Zm5.8,0,.491-.123-.123-.245-.122.122v-.122l-.246-.122Zm-1.961,0,.245-.123-.245-.122Zm-.736-.246v.122l.491-.122.246-.368v-.245h.367l.123-.245v-.246h.245l.245-.246-.122-.122.246-.367h.122V45.61l.246.123-.246.367.246-.122h.122V45.61l.49-.245L45.528,45H45.9l.122-.245v-.246h.246l.245-.245-.122-.122.122-.491v-.367h-.122l-.245.245.122.246-.246.491-.368-.122-.122.49V45h-.367l.122-.245v-.246l-.491.368-.613.859.245.367-.245-.245-.368.367v.246h-.245l-.368.858h-.246Zm-1.594-.061.054.161.068-.039-.122-.306Zm2.7-.061v.122l.368-.122L44.3,47.45Zm-2.7-.92-.428.552-.614.491h.061l.614-.491.367-.49.122-.369h-.061Zm-2.084.92.491.122-.445-.167Zm6.131-.368.245.122v-.367Zm-4.905.122h.123v-.367H40.5Zm1.121-.008.105-.053.035-.122h-.035ZM38.54,47.2h.306l.49-.122Zm7.6-.122h.245l-.245-.122Zm-1.1,0h.246v-.245Zm-.368-.49.123.123-.368.245h.491l.246-.122.122-.122-.122-.123v-.246h-.246Zm.859-.368-.122.614h.613l-.122-.122.735-.369v-.122l-.49.122-.614-.367Zm-2.575.491.122.122.246-.122.122-.246v-.246h-.122Zm-3.433-.062.122.123-.055-.166Zm36.782.062h.245l-.122-.369Zm-35.433,0h0Zm-.246-.491v.184l.11-.257Zm36.046.122.246-.122h.122v-.245l-.613-.368Zm-30.038-.122.246-.122-.246-.122ZM40.9,46.04l.276.184.015-.046-.2-.2Zm-.582-.061-.306.184v.061l.49-.367-.039-.119Zm.8,0,.085.172.037-.111v-.245l.015-.046Zm34.7,0,.367.122v-.122l-.367-.245Zm-34.207.061V46.1l.49-.367-.035-.035Zm2.207-.306-.245.122.245.122.368-.368v-.368Zm2.207,0v.122h.613l-.122-.614Zm-.491,0v.122H45.9l.122-.246-.246-.122Zm-2.207.061.046-.23-.046-.015Zm30.754-.076.021.014h.122l-.021-.055Zm-33.083.014.155-.413-.032-.016Zm36.414-.123h.368l-.491-.368Zm-4.291,0,.057-.028-.057-.34Zm-32.765-.089.059.058-.031-.092Zm32.856.043.153-.076v-.153Zm-31.326-.046-.153-.153h-.061ZM39.75,45.5l.015-.076-.121-.242h0ZM73.4,45.271l.326.217-.307-.246ZM41.459,45.4l.085.084.122-.122h-.185Zm.391-.162.368.123v-.491H42.1Zm-.491.062.122-.184H41.36Zm3.065-.184v-.245H44.3ZM73.524,45H73.6v-.184l-.04-.021.04.082ZM44.057,45h0Zm-3.923-.307.054.164.068-.041-.058-.173Zm36.046-.061v.123h.368v-.368h-.122Zm-3.677.123h.367l-.367-.246Zm-25.748-.736H47l-.368.736.49-.123.246-.49L47,44.016l.122-.122L47,43.771h.491l.245-.246-.367-.245.49-.122-.122-.246.122-.491L48.1,42.3v.122h.245l-.122-.245.368-.122-.123-.123v-.245H48.1v-.368l.49-.122-.246-.368-.122.123-.368.245v.246l-.245.735-.368.245v.246l-.122.735L47,43.281Zm-4.414.736h.122v-.368Zm31.51-.062.019.049.349-.233-.017-.05Zm-1.839-.061h.245v-.245Zm-27.464,0,.49-.122-.245-.245Zm-4.322-.01.521-.174-.061-.184Zm3.831-.174.123.122-.082-.245Zm29.356.044.069-.105H73.36Zm1.87-.143.039.038.122-.245-.016-.034Zm-1.065-.085.245.122.122-.122h-.061l-.184.061-.051-.2Zm-2.33,0h.246v-.368Zm-28.2,0h.245v-.246H43.69Zm-1.717-.122.491-.123h-.184Zm33.319-.215.092.092-.061-.122Zm-.153.092h0Zm-1.656-.245.122.245v-.061l-.1-.2Zm-25.257-.123-.245.246.122.122.49-.245-.246-.613Zm-6.5.368h.245v-.245h-.245Zm.735-.184.041.124.3-.421Zm5.272.061.246-.122v-.246Zm-2.084-.735-.613.122-.122.49v.122h.491l.613-.858V43.4h.123v-.122l.122-.368-.246-.122-.122.122h-.246Zm28.323.49.245.123v-.184l-.015-.053Zm-29.242.123-.062-.184Zm30.1-.123h0Zm-26.115,0h.122v-.49Zm-4.659-.122v.122l.246-.122v-.245h-.246Zm-2.742.118.167-.057-.122-.306Zm32.391-.094.114.069-.092-.093ZM44.67,43.587Zm0,0,.246-.245.153-.357-.031-.011Zm-2.083-.061.245-.122-.368-.122Zm28.689-.858H71.4v.613h.245l.122.122v-.245h-.245l.122-.246v-.368h-.368Zm3.188.674.013.034.109-.218-.015-.031Zm-.981-.306.122.245.123-.245-.368-.123ZM45.375,43l.092.032-.015-.047Zm29.149.031-.061-.122H74.4Zm-25.563-.122.245-.122-.245-.122Zm-5.089,0h0Zm.429-.552-.429.552.429-.429.11-.184Zm-1.962.429h.246v-.246Zm3.09-.013.013-.036-.037-.013Zm25.6-.11.122-.246-.246-.122ZM43.69,42.545l-.246.123h.613l.123-.246v-.245h-.246Zm-1.84.123h0Zm31.265-.246.367.122-.327-.2Zm.367.122.122-.367v-.061Zm-1.348-.122.368.122-.123-.122v-.245h-.245Zm-26.361.122.246-.367v-.246l-.491.123h.491Zm-2.82-.184-.245.061h.245l.058-.919h-.058Zm1.962-.184.246.122v-.061l-.2-.12Zm-3.8-.061.043.13.079-.007V41.81Zm29.59-.109.141.048.246.122-.368-.246Zm-.226.17h.184l-.234-.117Zm-27.28,0h.368l.367-.246h-.061l-.429.246.092-.276-.092-.092H43.2Zm-.929-.038.131.038.307-.122h-.184Zm-.665.038h0Zm3.184-.086.085-.024-.02-.012Zm26.241-.343.245.246-.169-.283Zm3.046.154.02.03.367-.245-.05-.025Zm-1.113-.044.03.074.122-.367-.019-.019Zm-22.9.074.245-.122-.245-.122Zm-10.422,0h.184l-.047-.078Zm30.836-.245-.185.061.064.149.182-.272-.061-.021Zm2.758,0,.067.135.055-.074-.035-.105ZM46.2,41.565l-.061.184v.061l.122-.245H46.2Zm-6.287.211.034.033.122-.122Zm.978,0-.086-.086h-.735Zm4.512-.209-.14.175.263-.175.122-.122Zm26.688.041.04.082v-.245Zm-1.908.044.048.038.2-.1-.073-.024Zm-30.42-.023.007.007.01-.013Zm31.081-.307.429.307-.425-.319Zm2.618.191.018-.006L73.36,41.2ZM43.2,41.5l-.123-.368Zm-3.065-.246-.115.192.115-.068.184-.307Zm31.632.185,0,0-.035-.029ZM45.9,41.381v.061l.7-.706-.031-.031Zm25.992,0,.368-.184H72.2Zm-2.7-.062h.368l-.122-.245ZM49.575,39.971l-.981.613.491.735h.122v-.367l.368.122.122-.49h.613v.245h.246v-.245l.367-.122-.122-.736-.368.614h-.245l.245-.491ZM43.567,41.2v.122h.245v-.49Zm29.3.061.031.031.2-.2-.043-.017Zm-28.853.021.041-.021-.02-.02Zm25.665-.021.122-.122.123-.368ZM45.222,41.2l.02-.021-.082-.04Zm-4.537,0,.429-.122h-.184Zm-.8-.184.122.122-.055-.164Zm30.774.061.17.042.013-.042h-.184v-.307l-.245-.49Zm1.165,0h0Zm-20.536,0,.245-.122-.122-.123Zm-10.176,0,.061-.246h-.061Zm3.923-.061.021.02.1-.2v-.061Zm2.33-.061h.49v-.246h-.49Zm-6.723-.041.163.041.128-.1Zm-.6.011.2-.067-.049-.025Zm31.153-.072-.1-.143h-.185Zm2.9-.021h0Zm-22.437-.367.122.367.491-.245.122-.122-.122-.246ZM46.73,40.8l.024.024.368-.245h-.061Zm-4.573.024.919-.49h-.184Zm3.127-.122h.49l.369-.245.245-.246v-.245l.735-.368v-.368H47l-.735.368-.614.736h-.367Zm-4.6,0,.429-.122h-.307Zm.451-.01.223-.174v-.184Zm29.956-.112.153.092-.2-.2Zm-26.446.075.023-.014-.1-.143Zm24.913-.075.491-.122-.368-.122Zm-.981,0h.185l.188-.095-.066-.028ZM48.47,39.971l-.367.49v.122h.245v-.245l.491-.123v-.368h-.122Zm-3.309.613h0Zm27.419-.031.045-.031-.257-.111Zm-.568-.092.217-.109-.033-.014-.184.061-.123-.429.92.245.026-.009-.946-.236Zm-1.227,0h.1l-.051-.154Zm-5.149,0,.613-.122-.368-.246h-.245Zm-1.84,0h.613l-.49-.246Zm-17.165,0h.246v-.246ZM72.869,40.4l.027.007.1-.192h-.031Zm-8.214-.184v.123h.613l.245-.368-.245-.123Zm-13.242.123h.368v-.246h-.368Zm-3.371-.368-.8.368.859-.368.031-.092Zm-6.682.368.736-.123-.028-.054Zm3.74-.123h.062l.122-.368Zm-2.636,0,.368-.245h.245V39.6l-.245-.122-.122.245h-.246ZM43.8,40.2l.536-.076-.215-.031Zm27.091-.046h.02v-.061Zm-3.167-.368v.185h.306l.245.122h.246l.514-.193.038-.114.122-.245-.076-.015-.046.138-.061.184h-.736l-.245-.122Zm-25.687.307-.061-.122h-.061Zm1.778-.061.735-.185H44.18Zm3.617-.185h0Zm-1.594-.122-.552.122.613-.122.368-.367H46.2Zm2.268-.061.076.077.035-.105Zm.735-.429V39.3l-.226.316.226.112h.123V39.48h-.246l.246-.122Zm15.326.185-.122.245.222-.311Zm.585.21.151-.087.036-.111-.036-.012Zm6.035-.026.246-.122-.246-.122Zm-.367-.122V39.6h.245v-.368Zm-1.84.076.185.046.275-.092-.153-.031Zm-.552.046.184-.092-.061-.031H67.9l-.368-.122Zm-3.494,0,.245-.122-.122-.122Zm-16.157-.109.095.048-.061-.184Zm18.67-.014h.368l.122-.122Zm-23.111-.122.122.122v-.246h-.245Zm21.16.043.051.018V38.99Zm1.645-.043.613-.246-.368-.122Zm-15.633-.246-.113.228.052.018.122-.246h-.061Zm-.919.246.245-.123-.245-.122Zm.49-.123.229.076-.229-.138Zm13.364,0h.245V38.99Zm-15.2,0,.368-.122h-.368ZM44.617,39.2l.421-.085-.141-.035Zm18.69-.085.367-.122-.367-.122Zm-14.1,0,.114-.229-.053-.015ZM45.076,39l.452.112L45.1,38.99Zm.452.112.122-.367-.015-.008Zm20.843-.184.068.122-.068-.306Zm-1.226.061h.306l.132-.087Zm-13.788-.014.056.014.122-.49Zm15.259-.23.368.122.122-.122-.122-.246Zm-22.069,0,.368.122-.327-.164Zm-.8,0-.8.113v.009l.859-.122.368-.491h-.062Zm26.667-.123.245.123v-.368Zm-2.072.086.11.037v-.093ZM63,38.53v.215h.061V38.5Zm-1.1-.153-1.349.368h.061l1.349-.368.193-.193-.009-.053Zm-1.656.368h.307l-.27-.055Zm-14.365-.021.021.021.46-.23-.031-.015Zm-2.739.021h0Zm18.821-.123.229.076-.174-.1Zm-10.913.061.019.005.1-.311Zm13.364,0-.122-.613Zm3.678-.061.154.051-.1-.223Zm-22.315,0,.031.031-.014-.04Zm-.378.01.051.011-.04-.021Zm23.551-.01h0Zm-1.84,0h.246v-.245h-.246Zm-4.352,0,.041-.02-.072-.072Zm-16.147-.013.024.013L47,38.5h-.061Zm2.967-.049.011.039.112-.222v-.061ZM68.64,38.5l.306-.122h-.122Zm-3.556,0,.031-.031-.038-.013ZM43.2,38.5l.245-.122-.245-.123Zm19.249-.061h.021l.1-.307-.013-.024Zm5.823-.061.093.031-.072-.072Zm-15.632,0,.123-.246-.368-.122Zm-1.041,0h.061l.735-.613h-.061Zm-5.117-.109.273.109-.245-.123Zm-1.454.1.011.012.123-.123v-.49Zm20.507-.152.164.041.246-.122Zm-15.112-.07.5.111-.491-.122Zm-2.2.111h0Zm-.368-.428-.184.306-.294.1-.012.024.367-.122.122-.245.368-.245-.017-.05Zm-.991.327.256.1-.245-.122Zm21.507.021.059-.03-.039-.012Zm-23.418,0,.082-.1-.028,0Zm24.6-.041h0Zm-2.82-.306.122.306V37.4Zm-3.495.184-.22.111.037.012.246-.122-.093-.092Zm-2.146.122.246-.122-.246-.122Zm-.367-.245.122.245-.1-.257Zm-12.262.245h.246l-.122-.245Zm-5.517,0H43.2v-.245Zm19.74-.122.23.076-.206-.123Zm5.885,0H68.7l-.086-.172-.037-.012Zm-.368,0h0Zm-5.793-.092.093.092-.061-.122Zm-5-.031.246.122-.123-.491Zm4.659.061.057.019.41-.307-.037-.018ZM66,37.764l.49.122v-.368h-.245Zm-14.223.122h.245l-.122-.245Zm-3.065,0,.246-.122-.246-.122Zm14.467-.061.013.037.233-.466v-.061ZM61.3,37.6l.041.164v-.246Zm-8.357.164h.061l.952-.357-.032-.011Zm-7.785,0,.367-.122h-.061Zm18.574-.07v-.052h-.184Zm-2.657-.039.051.016-.031-.03Zm6.581-.014.018-.076-.141-.048-.193-.035Zm-16.736,0h0Zm-3.678,0h.123V37.15Zm-1.165,0h.062l.122-.246.229.076-.229-.138Zm-1.326-.1.1.1.031-.032-.092-.092Zm10.889-.513-1.1.49H54.6l1.1-.49.334-.111-.027-.012Zm-6.1.385.211.105.021-.021-.2-.1Zm-2.794.105H47v-.246h-.245l.1-.2-.041-.041-.184.184-.058.288.058.019.122-.245ZM44.18,37.4l.367.122.246-.122-.246-.246Zm20.229-.246.123.122V37.4h.245l-.122-.491Zm-3.555.246H61.1l-.037-.076Zm-.429,0h.061l-.092-.092Zm-8.889,0h.246l-.122-.246Zm-.368,0h0ZM50.035,37.3l.092.092h.061l-.122-.123Zm11.923-.031.288.1.08-.035-.342-.114Zm3.259.074.051-.012v-.246Zm-1.845-.529.058.518v-.552Zm3.49.455-.246-.428Zm-5.333-.122-.315.115.008.007.368-.122-.092-.092Zm-3.306.1.057.018v-.245Zm-.486-.007.052.025v-.184Zm-.843.01.038.015.341-.227-.035-.018Zm-3.579.015.012-.007-.687-.115Zm-1.41,0h.245L51.9,37.15Zm-3.127,0h.061l.368-.122Zm-.184,0h.184l-.184-.061Zm11.954-.122-.184.061.017.053.228-.114.123-.367Zm.42.018.022.007-.013-.025Zm.131-.018.021.021.1-.2-.025-.01Zm6.008,0v-.674h-.056Zm-4.352,0,.019-.01-.447-.112Zm-3.77-.055.276.055.131-.087-.07-.035Zm-.241.049.027.006-.011-.01Zm-5.613-.361-.245.245.245.122.613-.245h.491l.735-.49-.246-.122ZM52.639,37.15Zm0,0,.246-.367v-.246h0Zm-3.433,0,.23-.345-.047-.022Zm-2.176-.045.092.045-.061-.061Zm-1.624-.077.257.086.172-.086H45.9v-.122h.368v-.368h-.736Zm12.383.061v-.184h-.061Zm-.981-.061.246-.122-.246-.122Zm4.659-.061.018.055.717-.238Zm-10.606,0-.184-.184h-.061Zm8.7-.021.062-.041h-.062Zm9.257-.041-.429-.245h-.368l-.245.122-.368-.613-.245.122.245-.122.368.613.613-.122Zm-13.9-.114.286.114-.245-.122Zm-5.261.1.031.015.184-.122Zm-1.257.015h0Zm-1.041-.061v.061l.735-.49h-.061Zm18.881-.613-.306.552.184-.185.306-.552.164-.081.082-.164.306-.185,1.287-1.9h.368l.307.307.122.245-.306.552.306-.184.122-.491-.245-.429H68.7v-.245h-.185l-.674.552-.122.49-.859,1.166-.674.367h-.859l-.8-1.348-.613-.123.184-.367.8-.246.122-.8-.429-.429h-.859l-.245.122.061-.184.368-1.226-.307-.184-.859.245h.614l.122-.122.306.061-.122.122v.613l-.245.429h-.246v.368l1.471-.123.122.8-.122.306-1.1.429.245.061V34.7h.613v.184l.92,1.288.981-.123ZM48.47,36.17l.123.613v-.061l-.112-.56Zm1.516.543.079-.052H50Zm16.876-.032.122-.082.041-.122h-.041Zm-2.7-.082v.062l.122-.123-.049-.012Zm-3.678.062h.368v-.246h-.368Zm-.368,0h.122V36.6h-.122Zm-3.729-.113.112.113h.062l-.123-.123Zm-5.1.01.307.1.006-.018-.313-.105Zm-.859.1h.246v-.246h-.246Zm12.629-.123.368-.122h-.736Zm-.735-.061v.061l.245-.245-.013-.049Zm-7.112-.306.123.122v.245l.245-.122-.245-.122.245-.246.613-.122h-.061l-.8.122.092-.414Zm-2.248.357.041.01h.368l-.1-.049Zm-2.778-.051v.061l.245-.245h-.061Zm7.573-.167.212.105L58,36.4l-.214-.107Zm-1.934-.017.246.122h.367l.246-.245-.613-.123Zm-2.519.018.312.1.368-.122h-.552Zm5.192-.129.331.111h.061l-.368-.122Zm-4.389.111h.368l.122-.246-.367-.245Zm-2.759,0h.061l.368-.122Zm-3.525-.107.215.107.037-.013-.221-.11ZM63.8,36.17l-.031-.061h-.092Zm-2.39,0,.061-.014v-.11l-.017-.011Zm-3.495,0,.491-.123h.122v-.122H58.4l-.245-.122Zm-10.3-.429-.122.429.237-.474Zm19.173.229.236.1-.1-.148Zm-3.234.076h0Zm-4.195-.1.21.1.028-.016-.212-.106Zm-11.376.1h.245V35.8h-.245Zm15.939-.122h.367l-.367-.245Zm-3.372,0,.061-.015V35.8l-.019,0Zm-4.169,0h.061l.927-.116L57.36,35.8Zm-2.145-.245H54.6v.245h.245l-.122-.245v-.245l.041.02-.759-.439-.017.051.246.245h-.368l-.123-.245-.122.245h.246v.245h-.123l-.367-.49-.246-.123-.007.022.253.1.306.49.307.061v.062l.122-.123Zm5.574.223.066-.04-.368-.061Zm3.866-.04.018.037.35-.466L64,35.425Zm-2.614-.051.149.064L61.1,35.8ZM57.6,35.8h.062l-.021-.041Zm2.453-.122.111.012-.049-.012L60,35.618Zm2.108-.151.038.151h0v-.246Zm-6.984.134.033.017.229-.115.016-.069Zm3.425-.12.041.014.341-.227-.035-.018Zm-.486-.011.037.024.107-.107-.046-.015ZM45.9,35.556h.246v-.245Zm17.226-.122h0Zm-2.636,0,.859-.245v-.061Zm-2.677-.109.164.109-.123-.122Zm-6.212.109.012-.016-.089-.03Zm11.8-.214.093.092.11.012-.049-.012-.122-.122Zm4.323-.031.49.122-.01-.064-.466-.116Zm-7.48.122.093-.184-.031-.061Zm-2.7,0h0Zm-.735,0,.368-.122-.368-.122ZM52,34.979l.211.211.735.122,0-.01-.678-.112-.246-.246Zm-.709.272.017.01.105-.317Zm11.525-.184h.123l.245-.368h-.122l-.122-.368-.368-.491-.245.368.245.735.245-.122Zm-5.027,0,.368-.246-.122-.122Zm-8.092,0h.368l-.368-.123Zm-.859,0,.246-.123h.367v-.122h-.245l.122-.246-.122-.122Zm13.242-.123.368-.122-.122-.246h-.491Zm-.735,0h0Zm-4.291-.061.245.061-.2-.1Zm-.614.061h.368l-.061-.061Zm-2.942,0,.245-.122L53.5,34.7Zm-2.575-.122h.368l-.368-.246Zm-.306-.122-.795.113,0,.009.859-.122.341-.228-.035-.018Zm10.85.061.015.046.445-.445-.031-.031Zm6.934-.08.055.019v-.123H68.7l-.037-.061h-.209Zm-8.957.019h0Zm-2.207,0h.306l.123-.123H57.36Zm-5.578-.123.245.123.122-.123-.245-.245Zm-3.8.123.123-.123-.123-.245Zm6.131-.246.11.221.013-.037L54,34.417Zm5.027.122.368-.122-.246-.122Zm-.367,0h0Zm.061-.122-.8.115.007.007.859-.122.367-.613-.023-.023Zm-3.041-.11.466.232.021-.02-.45-.225Zm-4.432.206.055.026v-.245Zm10.905-.464-.061.184-.046.138.046.046v-.122l.122-.245h-.061Zm-1.042.367v-.245h-.245Zm-4.689-.092.091.092h.062l-.123-.122Zm-1.135.092.03-.009-1.194-.358Zm-2.543-.031.031.031.245-.245-.046-.015Zm5.118-.214.368.122.028-.011-.335-.112H57.85Zm-1.778.122.245-.122v-.246h-.245Zm12.236-.319.23.3-.206-.345Zm-17.753.258.147.013.221-.074Zm9.869-.061h0Zm-3-.368h.122v.246l.614.122-.122-.368.2-.1-.014-.023h-.8Zm-6.552.15.054.218v-.246Zm-.5.218.014-.007-.811-.115Zm12.812-.981.123.368-.368.122.245.122-.368.122,1.1.123.367-.123h.122V33.35h.246l-.246-.367-.122.122-.491-.122-.245.245-.122-.122Zm-7.656.84.055.019v-.123h.184l-.184-.061Zm-1.049.019h.245L54.6,33.84Zm.781-.108.139.047-.123-.062Zm-2.97,0,.12.028-.138-.047ZM60,33.962H60.3l-.279-.055Zm-3.234-.014.046.014.337-.337-.031-.031Zm-1,.014h.061l.575-.114-.023-.008Zm-4.127-.02.143.02h.306l-.245-.122Zm9.693-.444.626.341-.613-.367Zm-.784.1.368.245.038-.015-.345-.229-.153-.153Zm-.683.219.009.026.172-.085.012-.037ZM53.375,33.6l.367.245h.246l-.122-.245V33.35H53.62Zm-2.82.245.245-.122-.245-.122Zm4.712-.038.069-.023-.023-.115Zm3.441-.085.021-.021-.082-.04Zm-1.463-.052.052.052V33.35Zm-2.412.028.012.024.368-.122-.122-.031Zm-2.072-.711-.614.367.368.246.491.122.122-.368-.245-.613Zm6.107.636.115.068-.092-.092Zm-.345-.085.047.046.321-.107v-.061Zm-7.08.031.276-.092h-.185Zm8.307-.092.015.045-.008-.05Zm-3.74,0,.008-.009-.131-.022Zm2.758-.093.122.032V33.35Zm-3.433,0,.085-.012-.085-.014Zm5.027-.149.307.122.184-.184-.122-.122.061-.184H60.3l-.613.368H59.2l-.614-.491h-.245l.674.368v.245h.552l.736-.367Zm-.324.052.139.07.111-.036-.172-.086ZM56.9,33.236l.4.113-.367-.122Zm-.6.012.2.1.037-.012-.221-.111Zm5.66-.021h.491v-.245h-.491ZM53.62,33.1h.368l-.246-.246Zm7.54-.122.368-.123h-.735Zm-3.862,0,.245-.123-.367-.122Zm-3.8,0v-.246h-.245Zm8.337-.123H61.9l.153-.214Zm.491-1.226-.123.552-.674.674.613-.49v.147l.061-.086.552-.8-.184.184-.306.43.184-.307.306-.429Zm-4.169,1.1h.122l-.122-.175Zm3.984-.147v.024l.911-.341L63,32.247Zm-5.21.024H57.3l.122-.122-.245-.245Zm6.344-.317.031.011.025-.142ZM39.766,56.338Zm-2.82-.428.122.245-.122.122Zm3.678-.491v-.184l-.123-.122.614-.613.245-.674.246.061-.123.245.123.122-.368.368-.122.49-.307.307Zm-29.364-.25-3.1-3.11A30.483,30.483,0,0,0,6.886,47.1l4.66,4.673c-.136,1.121-.232,2.264-.285,3.4h0Zm95.1-3.962h0ZM11.7,50.641,6.063,44.994A30.579,30.579,0,0,0,.116,36.057c.063-.172.129-.346.193-.518L12.263,47.523c-.223,1.025-.414,2.075-.567,3.118ZM78.387,48.8l-.552-.735-.491-.246-.49.246V47.94l.735-.368.368.491.552.429v.184h.306l.122.122.185-.184V48l-.735-1.1.061-.307.184.552.613.735v.614l.246.367-.122.307ZM76.3,47.633l-.123-.552-.306-.122-.491.245-.122-.245.245.122.122-.122-.061-.184.185-.184.674.552-.049.147.293.589Zm-1.594.184-.005-.012.024.017ZM12.5,46.483.667,34.619q.521-1.308,1.1-2.585L13.3,43.6c-.3.948-.564,1.918-.8,2.885h0Zm26.161-.138.012,0-.012.028ZM45.528,45Zm63.329-1.216L71.051,5.882c.8-.4,1.594-.849,2.358-1.323L110.156,41.4c-.466.772-.9,1.574-1.3,2.385ZM13.613,42.633,2.17,31.162Q2.757,29.916,3.4,28.7L14.613,39.948c-.359.878-.7,1.782-1,2.685h0ZM74.187,4.059c.727-.482,1.443-1,2.13-1.552l35.858,35.948c-.537.693-1.051,1.417-1.528,2.156ZM71.888,39.971Zm-30.713-.613.491-.123.306-.306v-.307h.491v-.184l-.245-.491L43.812,36.6v-.184H44l1.166-.491-.123-.429,1.166-.8.184.061-1.1.735v.368l-.307.307-.859.245L42.34,37.948l.368.613-1.042.8-.491.122ZM14.99,39.049,3.843,27.874q.649-1.185,1.347-2.337L16.169,36.543c-.415.818-.812,1.661-1.177,2.507ZM77.018,1.932c.66-.558,1.305-1.152,1.916-1.766l35.552,35.641c-.6.617-1.191,1.269-1.742,1.939h0ZM46.754,37.273h0ZM52.885,36.537ZM16.6,35.7,5.677,24.747l.048-.076c.867-.289,1.729-.621,2.568-.989l9.652,9.676c-.465.762-.916,1.551-1.339,2.344h0Zm38.118-.267h0Zm-.244,0v-.122l.244.122ZM98.811,18.815a30.3,30.3,0,0,0,9.108,5.443l3.315,3.324a61.041,61.041,0,0,1,3.333,7.029ZM9.167,23.281c.814-.388,1.622-.819,2.4-1.281l8.358,8.379c-.515.711-1.016,1.449-1.491,2.192Zm11.3,6.364-8.109-8.13c.741-.469,1.47-.977,2.17-1.512L22.1,27.6c-.56.661-1.11,1.35-1.635,2.048Zm-5.225-10.2c.671-.545,1.328-1.127,1.953-1.73l7.276,7.295c-.606.615-1.2,1.256-1.776,1.906Zm9.869,4.927-7.275-7.293c.6-.618,1.191-1.271,1.742-1.94L27.026,22.6c-.649.566-1.293,1.159-1.914,1.766h0Zm46.139-.978a1.856,1.856,0,0,1-.993-.718.935.935,0,0,1-.01-.8l.849-2.042a.936.936,0,0,1,.571-.554.814.814,0,0,1,.267-.041,2.584,2.584,0,0,1,.941.239,1.885,1.885,0,0,1,1,.719.933.933,0,0,1,.016.8l-.849,2.042a.928.928,0,0,1-.578.552.844.844,0,0,1-.267.039A2.625,2.625,0,0,1,71.249,23.391Zm.453-4.038a.857.857,0,0,0-.537.51l-.85,2.043a.862.862,0,0,0,.016.742,1.813,1.813,0,0,0,.947.674,2.519,2.519,0,0,0,.913.231.767.767,0,0,0,.238-.033.844.844,0,0,0,.545-.509l.85-2.042a.846.846,0,0,0-.024-.744,1.836,1.836,0,0,0-.952-.677,2.5,2.5,0,0,0-.9-.23A.76.76,0,0,0,71.7,19.353ZM42.975,23.259A1.574,1.574,0,0,1,42.654,23l-.906-.928a1.556,1.556,0,0,1-.215-.282,2.821,2.821,0,0,1-.168-.349l-.6-1.5.07-.028.6,1.5a2.221,2.221,0,0,0,.167.334,1.653,1.653,0,0,0,.2.269l.907.928a1.489,1.489,0,0,0,.278.24.293.293,0,0,0,.158.045.47.47,0,0,0,.172-.037l.612-.247a.347.347,0,0,0,.233-.234,1.425,1.425,0,0,0,.035-.365l.012-1.3a1.614,1.614,0,0,0-.038-.337,2.244,2.244,0,0,0-.111-.355l-.6-1.5.069-.027.6,1.5a2.721,2.721,0,0,1,.12.368,1.487,1.487,0,0,1,.041.352l-.012,1.3a1.536,1.536,0,0,1-.054.409.415.415,0,0,1-.267.261l-.612.246a.522.522,0,0,1-.2.042A.362.362,0,0,1,42.975,23.259Zm28.58-.562c-.249-.1-.4-.2-.439-.292a.321.321,0,0,1-.007-.275l.774-1.862a.317.317,0,0,1,.2-.182.254.254,0,0,1,.084-.012,1.266,1.266,0,0,1,.433.117.872.872,0,0,1,.439.292.322.322,0,0,1,.01.268l-.774,1.862a.329.329,0,0,1-.2.189.252.252,0,0,1-.083.012A1.261,1.261,0,0,1,71.555,22.7Zm-43.84-.682-7.569-7.588c.537-.693,1.051-1.417,1.527-2.155l8.1,8.118c-.694.517-1.386,1.064-2.056,1.625Zm38.976-.274-1.81-.456.018-.073,1.811.456a.988.988,0,0,0,.243.032.7.7,0,0,0,.338-.084.646.646,0,0,0,.32-.426l.105-.422a.716.716,0,0,0,0-.5.632.632,0,0,0-.282-.253l-1.455-.7a.633.633,0,0,1-.272-.227.571.571,0,0,1-.016-.441l.15-.6a.635.635,0,0,1,.323-.424.706.706,0,0,1,.339-.083,1,1,0,0,1,.245.032l1.615.406-.019.072-1.614-.4a.923.923,0,0,0-.224-.031.635.635,0,0,0-.305.075.567.567,0,0,0-.287.376l-.15.6a.424.424,0,0,0,.248.581l1.454.7a.693.693,0,0,1,.313.279.782.782,0,0,1,.011.559l-.107.422a.718.718,0,0,1-.35.472.752.752,0,0,1-.374.1A1.108,1.108,0,0,1,66.691,21.74Zm-18.758-.012a1.138,1.138,0,0,1-.468-.1.713.713,0,0,1-.29-.258,1.293,1.293,0,0,1-.158-.386l-.139-.575.073-.018.138.576a.884.884,0,0,0,.434.6.92.92,0,0,0,.439.092,2.809,2.809,0,0,0,.644-.091,1.5,1.5,0,0,0,.924-.488.9.9,0,0,0,.1-.724L48.9,17.316l.073-.018.732,3.04a.993.993,0,0,1-.1.772,1.53,1.53,0,0,1-.98.529,2.788,2.788,0,0,1-.643.09ZM62.6,20.885l-2.368-.268.009-.075,1.155.131.437-3.875-1.155-.13.008-.074,2.369.266-.008.075-1.14-.129-.437,3.875,1.14.129-.009.074h0Zm-8.064-4.269a.079.079,0,0,1,.028-.068.1.1,0,0,1,.058-.024h0a.09.09,0,0,1,.05.014.4.4,0,0,1,.062.05l2.849,3.021-.094-3.163.075,0,.121,4.047-.075,0-.023-.773-2.927-3.093-.019-.014a.055.055,0,0,0-.02-.006.012.012,0,0,0-.011.008.042.042,0,0,0,0,.014l.118,3.949-.075,0ZM30.508,19.851l-8.345-8.366c.465-.771.9-1.574,1.3-2.386l9.248,9.273c-.741.468-1.482.966-2.2,1.48ZM23.868,8.23c.387-.86.736-1.75,1.041-2.644L35.852,16.556c-.79.416-1.582.862-2.354,1.327ZM36.7,16.124,25.593,4.993q1.143-.7,2.321-1.359l11.3,11.326C38.37,15.32,37.522,15.711,36.7,16.124Zm0,0h0ZM80.361.319a61.029,61.029,0,0,1,7.014,3.344l2.852,2.859a30.4,30.4,0,0,0,5.42,9.12h0ZM28.741,3.183c.8-.43,1.618-.845,2.441-1.239L42.813,13.6c-.9.3-1.809.628-2.7.984Zm3.308-1.647Q33.318.952,34.618.424L46.68,12.516c-.967.227-1.942.49-2.9.78ZM47.723,12.285h0ZM35.531.061,35.69,0A30.418,30.418,0,0,0,46.057,6.926l4.8,4.816c-1.045.144-2.1.326-3.136.544ZM48.053,7.649a30.235,30.235,0,0,0,4.8,1.129l2.559,2.565c-1.139.043-2.29.13-3.422.257Z" transform="translate(7.5 4.5)"/></g></svg>